<?xml version="1.0" encoding="iso-8859-1"?>
<!-- Generator: Adobe Illustrator 19.0.0, SVG Export Plug-In . SVG Version: 6.00 Build 0)  -->
<svg version="1.1" id="Capa_1" xmlns="http://www.w3.org/2000/svg" xmlns:xlink="http://www.w3.org/1999/xlink" x="0px" y="0px"
	 viewBox="0 0 512 512" style="enable-background:new 0 0 512 512;" xml:space="preserve">
<g>
	<g>
		<path d="M443.392,151.236c-1.314-4.531-6.042-7.151-10.573-5.82c-4.531,1.306-7.134,6.042-5.82,10.564
			c4.958,17.075,5.794,30.993,2.705,45.099c-0.998,4.608,1.911,9.156,6.519,10.155c0.606,0.128,1.22,0.196,1.826,0.196
			c3.925,0,7.458-2.722,8.328-6.69C450.057,187.921,449.101,170.923,443.392,151.236z"/>
	</g>
</g>
<g>
	<g>
		<path d="M425.762,115.644c-11.213-22.417-50.867-31.027-71.185-20.881c-4.215,2.108-5.922,7.236-3.814,11.452
			c2.108,4.215,7.219,5.914,11.452,3.814c13.713-6.835,42.138,0.964,48.282,13.252c1.502,2.995,4.514,4.719,7.646,4.719
			c1.28,0,2.586-0.29,3.806-0.905C426.163,124.988,427.87,119.859,425.762,115.644z"/>
	</g>
</g>
<g>
	<g>
		<path d="M454.852,92.168c-30.959-32.853-64.853-49.502-100.753-49.502c-40.132,0-76.442,24.166-98.099,64.196
			c-21.632-40.03-57.839-64.196-97.818-64.196c-35.712,0-68.651,16.171-100.693,49.434C20.659,130.321,5.009,218.3,71.407,284.066
			c31.317,31.002,176.998,181.163,178.466,182.673c1.613,1.664,3.814,2.594,6.127,2.594c2.304,0,4.514-0.93,6.127-2.586
			c1.468-1.519,147.43-151.671,178.748-182.682C506.633,218.931,491.247,130.765,454.852,92.168z M428.868,271.94
			c-27.733,27.46-144.666,147.635-172.86,176.614C227.866,419.567,111.155,299.4,83.422,271.94
			c-58.598-58.027-45.568-134.852-13.636-168.004c28.655-29.747,57.566-44.203,88.397-44.203c38.221,0,72.661,26.999,89.882,70.46
			c1.297,3.26,4.437,5.393,7.936,5.393s6.647-2.133,7.936-5.393c17.22-43.46,51.772-70.46,90.163-70.46
			c31.445,0,60.339,14.43,88.337,44.143C474.035,137.395,486.904,214.46,428.868,271.94z"/>
	</g>
</g>
<g>
	<g>
		<path d="M503.467,264.533H362.965l-14.532-21.794c-3.166-4.753-11.034-4.753-14.199,0l-24.986,37.487l-36.745-95.548
			c-1.357-3.507-4.907-5.769-8.602-5.444c-3.755,0.273-6.878,2.978-7.697,6.656l-28.646,128.913l-40.602-87.979
			c-1.237-2.679-3.78-4.54-6.716-4.89c-2.961-0.435-5.854,0.828-7.697,3.132l-31.573,39.467H8.533c-4.71,0-8.533,3.814-8.533,8.533
			s3.823,8.533,8.533,8.533h136.533c2.594,0,5.043-1.178,6.665-3.2l25.506-31.889l45.414,98.398
			c1.408,3.038,4.454,4.958,7.748,4.958c0.299,0,0.606-0.017,0.904-0.051c3.644-0.393,6.63-3.055,7.424-6.63l27.998-125.978
			l32.512,84.523c1.143,2.978,3.857,5.069,7.023,5.419c3.191,0.341,6.272-1.084,8.038-3.746l27.034-40.55l9.967,14.95
			c1.587,2.372,4.25,3.797,7.1,3.797h145.067c4.71,0,8.533-3.814,8.533-8.533S508.177,264.533,503.467,264.533z"/>
	</g>
</g>
<g>
</g>
<g>
</g>
<g>
</g>
<g>
</g>
<g>
</g>
<g>
</g>
<g>
</g>
<g>
</g>
<g>
</g>
<g>
</g>
<g>
</g>
<g>
</g>
<g>
</g>
<g>
</g>
<g>
</g>
</svg>
