<svg height="512pt" viewBox="-114 0 512 512" width="512pt" xmlns="http://www.w3.org/2000/svg"><g fill-rule="evenodd"><path d="m10 235.839844c5.523438 0 10-4.476563 10-10v-76.394532c0-8.378906 6.816406-15.195312 15.195312-15.195312h213.109376c8.378906 0 15.191406 6.816406 15.191406 15.195312v75.363282c0 5.523437 4.480468 10 10 10 5.523437 0 10-4.476563 10-10v-75.363282c0-19.40625-15.785156-35.195312-35.191406-35.195312h-17.292969v-69.082031c0-24.90625-20.265625-45.167969-45.171875-45.167969h-88.183594c-24.90625 0-45.167969 20.261719-45.167969 45.167969v69.082031h-17.292969c-19.40625 0-35.195312 15.789062-35.195312 35.195312v76.394532c0 5.523437 4.476562 10 10 10zm62.488281-190.671875c0-13.878907 11.292969-25.167969 25.167969-25.167969h88.1875c13.875 0 25.167969 11.289062 25.167969 25.167969v69.082031h-138.523438zm0 0"/><path d="m273.5 294.808594c-5.523438 0-10 4.476562-10 10v57.746094c0 8.378906-6.816406 15.195312-15.195312 15.195312h-213.109376c-8.378906 0-15.195312-6.816406-15.195312-15.195312v-56.714844c0-5.523438-4.476562-10-10-10s-10 4.476562-10 10v56.714844c0 19.40625 15.789062 35.195312 35.195312 35.195312h17.292969v69.082031c0 24.90625 20.265625 45.167969 45.171875 45.167969h88.183594c24.902344 0 45.167969-20.261719 45.167969-45.167969v-69.082031h17.292969c19.40625 0 35.195312-15.789062 35.195312-35.195312v-57.746094c0-5.523438-4.476562-10-10-10zm-62.488281 172.023437c0 13.878907-11.292969 25.167969-25.171875 25.167969h-88.183594c-13.875 0-25.167969-11.289062-25.167969-25.167969v-69.082031h138.523438zm0 0"/><path d="m240.402344 254.898438h-21.160156l-28.898438-53.785157c-1.742188-3.242187-5.125-5.265625-8.808594-5.265625s-7.066406 2.023438-8.808594 5.265625l-39.433593 73.402344-30.480469-56.738281c-1.746094-3.242188-5.128906-5.265625-8.808594-5.265625-3.683594 0-7.066406 2.023437-8.8125 5.265625l-19.941406 37.125h-22.152344c-5.523437 0-10 4.476562-10 10 0 5.523437 4.476563 10 10 10h28.132813c3.679687 0 7.066406-2.023438 8.808593-5.269532l13.964844-25.992187 30.480469 56.734375c1.742187 3.246094 5.125 5.269531 8.808594 5.269531 3.683593 0 7.066406-2.027343 8.808593-5.269531l39.433594-73.398438 22.917969 42.65625c1.742187 3.246094 5.125 5.265626 8.808594 5.265626h27.136719c5.523437 0 10-4.476563 10-10 .003906-5.523438-4.472657-10-9.996094-10zm0 0"/><path d="m10 275.839844c5.507812 0 10-4.492188 10-10 0-5.507813-4.492188-10-10-10s-10 4.492187-10 10c0 5.507812 4.492188 10 10 10zm0 0"/><path d="m273.5 254.808594c-5.507812 0-10 4.492187-10 10 0 5.507812 4.492188 10 10 10s10-4.492188 10-10c0-5.507813-4.492188-10-10-10zm0 0"/></g></svg>