<svg id="Layer_1" height="512" viewBox="0 0 512 512" width="512" xmlns="http://www.w3.org/2000/svg" data-name="Layer 1"><path d="m376.223 309.282a6 6 0 0 0 -8.485 0l-24.986 24.985-41.1-41.1a171.155 171.155 0 0 0 -4.152-237.983c-66.805-66.8-175.5-66.8-242.311 0s-66.8 175.505 0 242.311a171.322 171.322 0 0 0 237.987 4.161l41.1 41.1-24.985 24.986a6 6 0 0 0 0 8.485l116.903 116.909a47.335 47.335 0 0 0 66.942-66.942zm-199.884 26.4a158.3 158.3 0 0 1 -112.67-46.67c-62.126-62.126-62.126-163.213 0-225.34a159.339 159.339 0 1 1 112.67 272.01zm195.641-13.672 20.743 20.743-49.97 49.97-20.743-20.743zm112.671 162.64a35.333 35.333 0 0 1 -49.97 0l-83.442-83.442 49.971-49.971 83.44 83.443a35.333 35.333 0 0 1 0 49.97z"/><path d="m176.339 93.724a146.08 146.08 0 0 0 -130.562 79.881 6 6 0 0 0 0 5.468 146.639 146.639 0 0 0 261.125 0 6 6 0 0 0 0-5.468 146.082 146.082 0 0 0 -130.563-79.881zm0 153.231a134.107 134.107 0 0 1 -118.439-70.616 134.638 134.638 0 0 1 236.884 0 134.106 134.106 0 0 1 -118.445 70.616z"/><path d="m199.756 167.2a6 6 0 0 0 -5.376.021 6.517 6.517 0 0 1 -2.968.7 6.659 6.659 0 0 1 -6.652-6.651 6.51 6.51 0 0 1 .7-2.967 6 6 0 0 0 -4.274-8.612 27.07 27.07 0 1 0 21.8 21.8 6 6 0 0 0 -3.23-4.291zm-23.417 24.231a15.088 15.088 0 0 1 -3.574-29.746 18.675 18.675 0 0 0 18.235 18.229 15.115 15.115 0 0 1 -14.661 11.512z"/><path d="m176.339 128.166a48.164 48.164 0 1 0 48.174 48.173 47.886 47.886 0 0 0 -48.174-48.173zm16.213 80.5a35.573 35.573 0 0 1 -16.213 3.852 36.214 36.214 0 0 1 -36.173-36.174 35.592 35.592 0 0 1 3.861-16.232 36.164 36.164 0 1 1 48.525 48.554z"/></svg>