<svg id="Capa_1" enable-background="new 0 0 512 512" height="512" viewBox="0 0 512 512" width="512" xmlns="http://www.w3.org/2000/svg"><g><path d="m71.519 416.679c5.522 0 10-4.49 10-10.013s-4.478-10-10-10-10 4.477-10 10v.025c0 5.523 4.478 9.988 10 9.988z"/><path d="m481.894 101.811c-11.946-16.97-35.475-21.058-52.45-9.114l-42.961 30.24c-2.8 1.97-6.558 1.965-9.354-.015l-24.901-17.647c10.913-11.18 17.646-26.458 17.646-43.278.001-34.185-27.811-61.997-61.995-61.997s-61.996 27.812-61.996 61.996c0 10.593 2.671 20.574 7.374 29.305h-108.006c-21.306 0-37.861 18.709-35.179 39.91l5.997 47.396c3.754 29.67 40.687 40.322 59.924 18.222 6.327-7.269 9.316-16.927 8.201-26.5l-1.585-13.607h38.707l-136.499 210.981c-3 4.637-1.673 10.828 2.965 13.828 4.637 3 10.828 1.672 13.828-2.964 2.535-3.918 163.367-252.508 171.565-265.18 18.094 12.284 41.855 14.152 61.963 4.288l30.428 21.564c9.689 6.866 22.723 6.886 32.431.051l42.959-30.238c7.955-5.599 18.986-3.683 24.585 4.271 5.601 7.956 3.684 18.984-4.292 24.599l-64.102 45.357c-6.97 4.933-16.084 5.089-23.221.401l-64.054-42.08c-4.609-3.03-10.845-1.754-13.876 2.91-6.883 10.593-214.872 330.719-220.53 339.428-8.304 12.84-28.347 9.858-31.77-5.601-1.075-4.856-.167-9.998 2.491-14.106l12.731-19.679c3-4.637 1.673-10.828-2.965-13.828-4.638-3.001-10.828-1.672-13.828 2.964l-12.731 19.679c-11.262 17.407-6.742 41.572 11.243 52.867 17.259 10.841 40.318 6.043 51.61-11.417l86.902-133.755h65.452c1.062 0 1.751 1.08 1.305 2.044l-24.161 51.985c-8.747 18.823-.551 41.254 18.272 50.004 18.919 8.791 41.289.469 50.001-18.272l49.759-107.059c11.964-25.739-6.517-53.99-33.913-53.99h-77.799l79.226-121.94 55.654 36.562c14.062 9.237 32.021 8.927 45.754-.791l64.081-45.343c16.974-11.948 21.062-35.477 9.114-52.451zm-174.015-81.811c23.156 0 41.996 18.839 41.996 41.996 0 17.183-10.158 32.01-25.484 38.612-27.482 11.782-58.509-8.673-58.509-38.612 0-23.157 18.84-41.996 41.997-41.996zm-126.295 116.723c-11.372 0-20.284 9.922-18.959 21.295l1.704 14.625c.971 8.337-5.408 15.777-13.897 15.966-7.346.185-13.597-5.215-14.521-12.514l-5.997-47.396c-1.159-9.154 5.928-17.4 15.337-17.4h105.452c-1.442 2.228-14.749 22.797-16.448 25.422h-52.671zm140.056 194.612-49.759 107.059c-4.05 8.713-14.49 12.72-23.436 8.564-8.822-4.101-12.664-14.615-8.564-23.438l24.161-51.984c6.61-14.221-3.787-30.475-19.441-30.475h-52.457l22.927-35.288h90.793c12.623.001 21.629 12.968 15.776 25.562z"/></g></svg>