<?xml version="1.0"?>
<svg xmlns="http://www.w3.org/2000/svg" viewBox="0 0 512 512" width="512" height="512"><g id="Out_line" data-name="Out line"><path d="M334.92432,236.7168a71.697,71.697,0,0,0-2.65528-26.55323L296,86.84766V64h8a7.99977,7.99977,0,0,0,8-8V40a24.02687,24.02687,0,0,0-24-24H224a24.02687,24.02687,0,0,0-24,24V56a7.99977,7.99977,0,0,0,8,8h8V86.84766L179.731,210.16309a71.70052,71.70052,0,0,0-2.65528,26.55371l13.80616,158.77a55.69027,55.69027,0,0,1-2.66309,22.55957l-8.97461,26.92334A38.76989,38.76989,0,0,0,216.02441,496h79.95118a38.76989,38.76989,0,0,0,36.78027-51.03027l-8.97461-26.92334a55.69163,55.69163,0,0,1-2.66309-22.56006ZM216,40a8.00917,8.00917,0,0,1,8-8h64a8.00917,8.00917,0,0,1,8,8v8H216ZM318.98486,235.33105,305.17871,394.1001a71.57881,71.57881,0,0,0,3.42383,29.00586l8.97461,26.92334A22.77072,22.77072,0,0,1,295.97559,480H216.02441a22.77072,22.77072,0,0,1-21.60156-29.9707l8.97461-26.92334a71.57746,71.57746,0,0,0,3.42383-29.00537L193.01514,235.33105a55.77266,55.77266,0,0,1,2.06543-20.65283L231.6748,90.25732A7.99129,7.99129,0,0,0,232,88V64h48V88a7.99129,7.99129,0,0,0,.3252,2.25732l36.59423,124.42139A55.769,55.769,0,0,1,318.98486,235.33105Z"/><circle cx="224" cy="256" r="8"/><circle cx="224" cy="288" r="8"/><circle cx="224" cy="320" r="8"/><circle cx="224" cy="352" r="8"/><circle cx="256" cy="256" r="8"/><circle cx="256" cy="288" r="8"/><circle cx="256" cy="320" r="8"/><circle cx="256" cy="352" r="8"/><circle cx="288" cy="256" r="8"/><circle cx="288" cy="288" r="8"/><circle cx="288" cy="320" r="8"/><circle cx="288" cy="352" r="8"/><path d="M488.686,181.37256,464,156.686V152h8a7.99977,7.99977,0,0,0,8-8V96a7.99977,7.99977,0,0,0-8-8H376a7.99977,7.99977,0,0,0-8,8v48a7.99977,7.99977,0,0,0,8,8h8v4.686l-24.686,24.68652A24.80706,24.80706,0,0,0,352,199.0293v65.9414a24.80706,24.80706,0,0,0,7.314,17.65674L364.68652,288l-5.37256,5.37256A24.80706,24.80706,0,0,0,352,311.0293V424.9707a24.80706,24.80706,0,0,0,7.314,17.65674L364.68652,448l-5.37256,5.37256A24.9704,24.9704,0,0,0,376.9707,496h94.0586A24.9704,24.9704,0,0,0,488.686,453.37256L483.31348,448l5.37256-5.37256A24.80706,24.80706,0,0,0,496,424.9707V311.0293a24.80706,24.80706,0,0,0-7.314-17.65674L483.31348,288l5.37256-5.37256A24.80706,24.80706,0,0,0,496,264.9707V199.0293A24.80706,24.80706,0,0,0,488.686,181.37256ZM368,264V200H480v64Zm16-160h80v32H384Zm13.65674,61.65674A7.99877,7.99877,0,0,0,400,160v-8h48v8a7.99877,7.99877,0,0,0,2.34326,5.65674L468.68652,184h-89.373ZM480,424.9707a8.9123,8.9123,0,0,1-2.62744,6.34326l-8.686,8.686H400v16h68.68652l8.686,8.686A8.97072,8.97072,0,0,1,471.0293,480H376.9707a8.97072,8.97072,0,0,1-6.34326-15.314l11.0293-11.0293a7.99915,7.99915,0,0,0,0-11.31348l-11.0293-11.0293A8.9123,8.9123,0,0,1,368,424.9707V311.0293a8.9123,8.9123,0,0,1,2.62744-6.34326l11.0293-11.0293a7.99915,7.99915,0,0,0,0-11.31348L379.31348,280h89.373l-2.34326,2.34326a7.99915,7.99915,0,0,0,0,11.31348l11.0293,11.0293A8.9123,8.9123,0,0,1,480,311.0293Z"/><path d="M449.49023,307.3501a104.35517,104.35517,0,0,0,0,121.2998l13.01954-9.2998a88.355,88.355,0,0,1,0-102.7002Z"/><path d="M385.49023,316.6499a88.355,88.355,0,0,1,0,102.7002l13.01954,9.2998a104.35517,104.35517,0,0,0,0-121.2998Z"/><path d="M159.75366,278.06146l.00757-.00189-8-32A8.00059,8.00059,0,0,0,144,240H96.12793A60.89466,60.89466,0,0,0,104,209.94092a32,32,0,0,0-64,0A60.89466,60.89466,0,0,0,47.87207,240H32a8.00059,8.00059,0,0,0-7.76123,6.05957l-8,32,.00757.00189A7.99208,7.99208,0,0,0,16,280V456a7.99208,7.99208,0,0,0,.24634,1.93854l-.00757.00189,8,32A8.00059,8.00059,0,0,0,32,496H144a8.00059,8.00059,0,0,0,7.76123-6.05957l8-32-.00757-.00189A7.99208,7.99208,0,0,0,160,456V280A7.99208,7.99208,0,0,0,159.75366,278.06146Zm-76.4397-79.434A15.86956,15.86956,0,0,1,87.87061,208H56.12939A15.98655,15.98655,0,0,1,83.314,198.62744ZM58.22925,224h27.5415a44.91838,44.91838,0,0,1-9.20386,16H67.43311A44.91838,44.91838,0,0,1,58.22925,224Zm79.52466,32,3.99987,16H34.24622l3.99987-16ZM64,448H32V288h80v6.05908a73.45818,73.45818,0,0,1-21.65674,52.28418A89.35089,89.35089,0,0,0,64,409.94092ZM38.24609,480l-3.99987-16H141.75378l-3.99987,16ZM144,448H112v-6.05908a73.45818,73.45818,0,0,1,21.65674-52.28418A90.91646,90.91646,0,0,0,144,377.26379Zm-21.65674-69.65674A89.35089,89.35089,0,0,0,96,441.94092V448H80V409.94092a73.45818,73.45818,0,0,1,21.65674-52.28418A89.35089,89.35089,0,0,0,128,294.05908V288h16v38.05908A73.45818,73.45818,0,0,1,122.34326,378.34326Z"/></g></svg>
