<svg height="512" viewBox="0 0 36 60" width="512" xmlns="http://www.w3.org/2000/svg"><g id="Page-1" fill="none" fill-rule="evenodd"><g id="016---Cockle-Jar" fill="rgb(0,0,0)" fill-rule="nonzero"><path id="Shape" d="m4.632 9.735-1.9.633c-1.63189201.5454406-2.73212812 2.0733673-2.732 3.794v40.838c.00330612 2.7600532 2.23994685 4.9966939 5 5h26c2.7600532-.0033061 4.9966939-2.2399468 5-5v-40.838c-.0003028-1.7214282-1.1019226-3.2495984-2.735-3.794l-1.9-.633c-.8155509-.2730663-1.3652079-1.0369486-1.365-1.897v-1.838h1c1.6568542 0 3-1.34314575 3-3s-1.3431458-3-3-3h-26c-1.65685425 0-3 1.34314575-3 3s1.34314575 3 3 3h1v1.838c-.00022313.86084674-.55126371 1.62497245-1.368 1.897zm.368 14.265c.55228475 0 1-.4477153 1-1v-6h28v30h-28v-6c0-.5522847-.44771525-1-1-1s-1 .4477153-1 1v6h-2v-30h2v6c0 .5522847.44771525 1 1 1zm26 34h-26c-1.65685425 0-3-1.3431458-3-3v-6h32v6c0 1.6568542-1.3431458 3-3 3zm-27-55c0-.55228475.44771525-1 1-1h26c.5522847 0 1 .44771525 1 1s-.4477153 1-1 1h-26c-.55228475 0-1-.44771525-1-1zm24 3v1.838c-.001562 1.72202986 1.1007623 3.2511774 2.735 3.794l1.9.633c.8155509.2730663 1.3652079 1.0369486 1.365 1.897l.0000001.838h-32.00000165l.00000155-.838c-.0010693-.8619508.55021537-1.627624 1.368-1.9l1.9-.633c1.63200332-.5435159 2.73269815-2.07087097 2.732-3.791v-1.838z"/><path id="Shape" d="m10 54h-4v-2c0-.5522847-.44771525-1-1-1s-1 .4477153-1 1v2c0 1.1045695.8954305 2 2 2h4c.5522847 0 1-.4477153 1-1s-.4477153-1-1-1z"/><path id="Shape" d="m4.025 31.475c.11504088.8898102.57643316 1.6983247 1.284 2.25.142.13 2.117 1.934 4.691 4.045v2.92c-.00001798 1.6514023 1.3346157 2.9922935 2.986 3 .1455985.0002911.2910114-.010406.435-.032l4.579-.648 4.571.649c.8575491.1283087 1.7284235-.1236424 2.385-.69.6629299-.5716458 1.0440629-1.4036401 1.044-2.279v-2.92c2.563-2.1 4.518-3.889 4.619-3.984 1.2076845-.9033164 1.6965629-2.4814182 1.2110481-3.909269-.4855148-1.4278507-1.8350434-2.3808355-3.3430481-2.360731.0178873-1.1554953-.5412984-2.2438977-1.4910756-2.9022386-.9497771-.6583408-2.165194-.8000096-3.2409244-.3777614-.4261909-1.1105728-1.3894049-1.9270544-2.5547837-2.1655977-1.1653789-.2385432-2.3719362.1338045-3.2002163.9875977-.8282801-.8537932-2.0348374-1.2261409-3.2002163-.9875977-1.1653788.2385433-2.1285928 1.0550249-2.5547837 2.1655977-1.1195181-.4401196-2.38754835-.2642255-3.345.464-.87968057.6644654-1.39357188 1.7055959-1.386 2.808-1.01526699-.0123361-1.98528823.4193442-2.65573072 1.1818573-.6704425.762513-.97443374 1.7798027-.83226928 2.7851427zm9.107 10.206c-.2814945.0424323-.5674187-.0409318-.782-.228-.2229361-.1906832-.3508982-.4696406-.35-.763l-.0000047-1.321c.9130047.713 1.8550047 1.418 2.7890047 2.077zm10.868-.991c.0008982.2933594-.1270639.5723168-.35.763-.2168094.1887652-.5060552.2718776-.79.227l-1.648-.234c.933-.659 1.875-1.365 2.7880047-2.077zm-17.7-10.6c.48273827-.647406 1.39276315-.7936125 2.054-.33l5 4.286c.2699265.2432956.6505913.3210127.9942841.2029944.3436928-.1180184.5963124-.4131946.6598341-.7709907.0635216-.3577961-.0720537-.721891-.3541182-.9510037l-4.887-4.187c-.45000022-.6601687-.3035733-1.5571985.333-2.04.6453499-.4851146 1.5588994-.3724126 2.067.255l1.333 2c.1982824.297245.5400812.4661282.8966441.4430331s.6737195-.2346599.832-.555c.1582805-.32034.1336383-.7007881-.0646441-.9980331l-1.2-1.792c.0160441-.049963.0280822-.1011249.036-.153 0-.8284271.6715729-1.5 1.5-1.5s1.5.6715729 1.5 1.5v12.5c0 .5522847.4477153 1 1 1s1-.4477153 1-1v-12.5c0-.8284271.6715729-1.5 1.5-1.5s1.5.6715729 1.5 1.5c.0057001.0511745.0160768.101719.031.151l-1.2 1.794c-.306518.4595009-.1825009 1.0804819.277 1.387.4595009.306518 1.080482.1825009 1.387-.277l1.305-1.955c.4992399-.6132836 1.3888463-.7336491 2.0331094-.2750837.6442632.4585653.8218645 1.3385341.4058906 2.0110837l-4.889 4.19c-.2820645.2291127-.4176398.5932076-.3541182.9510037.0635217.3577961.3161413.6529723.6598341.7709907.3436928.1180183.7243576.0403012.9942841-.2029944l4.95-4.245c.4835293-.3650343 1.1391789-.4033547 1.6619407-.0971344.5227617.3062202.8099872.8968524.7280593 1.4971344-.066123.4243802-.3022686.8035131-.654 1.05-3.400471 3.1013735-7.0059635 5.9701989-10.792 8.587-.3337325.2197805-.7662675.2197805-1.1 0-3.8074648-2.636994-7.434231-5.5257788-10.856-8.647-.6601259-.4995041-.79080906-1.4393488-.292-2.1z"/></g></g></svg>