<?xml version="1.0" encoding="iso-8859-1"?>
<!-- Generator: Adobe Illustrator 19.0.0, SVG Export Plug-In . SVG Version: 6.00 Build 0)  -->
<svg version="1.1" id="Capa_1" xmlns="http://www.w3.org/2000/svg" xmlns:xlink="http://www.w3.org/1999/xlink" x="0px" y="0px"
	 viewBox="0 0 460.007 460.007" style="enable-background:new 0 0 460.007 460.007;" xml:space="preserve">
<g>
	<g>
		<path d="M330.4,61.203c-38.4,0-76.8,43.2-100,89.6c-25.6-51.2-64.8-89.6-100-89.6c-60,0-130.4,110.4-130.4,203.2
			c0,67.2,44.8,134.4,129.6,134.4c44.8,0,78.4-18.4,100-46.4c28,33.6,69.6,46.4,100.8,46.4c84.8,0,129.6-68,129.6-134.4
			C460.8,171.603,390.4,61.203,330.4,61.203z M130.4,382.803c-54.4,0-113.6-36.8-113.6-118.4c0-84,62.4-187.2,113.6-187.2
			c32.8,0,70.4,42.4,92.8,95.2c0,0,0,0,0,0.8c12.8,29.6,20.8,61.6,20.8,92C244,346.003,184.8,382.803,130.4,382.803z M330.4,382.803
			c-28.8,0-67.2-12-91.2-44c13.6-22.4,20-48.8,20-74.4c0-31.2-8-64.8-20.8-95.2c24.8-54.4,61.6-92.8,92-92.8
			c51.2,0,113.6,103.2,113.6,187.2C444.8,346.003,385.6,382.803,330.4,382.803z"/>
	</g>
</g>
<g>
	<g>
		<path d="M60,193.203c-4-1.6-8.8,0.8-10.4,4.8c-0.8,2.4-23.2,60.8-4.8,101.6c1.6,2.4,4,4,7.2,4c0.8,0,2.4,0,3.2-0.8
			c4-1.6,5.6-6.4,4-10.4c-16-34.4,4.8-88,5.6-88.8C66.4,199.603,64,194.803,60,193.203z"/>
	</g>
</g>
<g>
	<g>
		<path d="M319.2,106.003c-3.2-4-8-4-11.2-0.8c-1.6,1.6-46.4,46.4-45.6,91.2c0,4,4,8,8,8c4.8,0,8-4,8-8c-0.8-37.6,40-79.2,40.8-79.2
			C322.4,114.003,322.4,109.203,319.2,106.003z"/>
	</g>
</g>
<g>
</g>
<g>
</g>
<g>
</g>
<g>
</g>
<g>
</g>
<g>
</g>
<g>
</g>
<g>
</g>
<g>
</g>
<g>
</g>
<g>
</g>
<g>
</g>
<g>
</g>
<g>
</g>
<g>
</g>
</svg>
