<svg height="512" viewBox="0 0 128 128" width="512" xmlns="http://www.w3.org/2000/svg"><g><path d="m104.36 23.368-.155-.051a18.038 18.038 0 0 0 -7.1-1.066c.059-.207.12-.413.168-.618 1.5-6.364-1.536-13.159-2.913-15.785l-.037-.072a1.748 1.748 0 0 0 -1.593-1.026c-.935 0-9.8 4.516-11.813 13.007-.054.23-.1.465-.14.7a13.967 13.967 0 0 0 -7.277-2.037 1.755 1.755 0 0 0 -1.012.321c-1.371.97-3.024 9.981-.343 15.872-.629-.068-1.178-.1-1.593-.1a1.681 1.681 0 0 0 -1.163.422c-1.076.924-2.307 10.024.942 15.824a12 12 0 0 0 -1.649 0 1.752 1.752 0 0 0 -1.035.462c-1.234 1.148-1.494 10.313 2.161 15.742a6.379 6.379 0 0 0 -2.144.275 1.751 1.751 0 0 0 -.942 1.291c-.231 1.462-.393 9.464 3.843 14.634a15.331 15.331 0 0 0 -1.7.242 1.751 1.751 0 0 0 -1.265 1.669c0 .409.007 10.075 5.958 15.089a13.394 13.394 0 0 0 8.8 2.957c.276 0 .547-.007.813-.018a192.78 192.78 0 0 0 5.307 20.924 1.75 1.75 0 0 0 1.668 1.224 1.71 1.71 0 0 0 .525-.081q2.584-.81 5.169-1.632a1.748 1.748 0 0 0 1.136-2.192 184.843 184.843 0 0 1 -5.048-19.9 15.124 15.124 0 0 0 7.927-5.595c3.055-4.535 2.676-10.6 2.178-13.8l-.011-.069a1.76 1.76 0 0 0 -.183-.63 1.741 1.741 0 0 0 -1.666-.952c-.172.01-.373.018-.6.026l-.559.022c2.395-4.084 2.465-9.185 2.256-12.058l-.005-.078a1.748 1.748 0 0 0 -1.265-1.669 7.844 7.844 0 0 0 -1.559-.186c2.668-3.873 3.132-8.912 3.149-11.777v-.079a1.711 1.711 0 0 0 -.033-.477 1.751 1.751 0 0 0 -1.316-1.348c-.188-.043-.666-.141-1.325-.226a19.851 19.851 0 0 0 4.1-12.066 1.75 1.75 0 0 0 -1.223-1.465 1.647 1.647 0 0 0 -.307-.065c-.36-.074-.716-.118-1.075-.175 3.3-3.4 4.6-8.384 5.083-11.248l.015-.088a1.753 1.753 0 0 0 -1.152-2.07zm-12.383-14.426c1.272 2.8 2.911 7.566 1.889 11.891a11.863 11.863 0 0 1 -.866 2.393 13.684 13.684 0 0 0 -2.7 1.505 12.343 12.343 0 0 0 -2.945 3.086 14.879 14.879 0 0 0 -1.495-3.955 15.979 15.979 0 0 0 -1.828-2.612 12.36 12.36 0 0 1 .3-2.687c1.147-4.887 5.396-8.181 7.645-9.621zm-8.09 76.739c.431-.05.861-.1 1.3-.173a1.8 1.8 0 0 0 .2-.055 7.552 7.552 0 0 0 1.133-.008 13.413 13.413 0 0 0 -.987 2.486 15.666 15.666 0 0 0 -1.646-2.25zm-1.166-15.15c.438-.014.873-.02 1.319-.062a1.7 1.7 0 0 0 .183-.037 7.26 7.26 0 0 0 1.137.09 13.115 13.115 0 0 0 -1.183 2.39 15.689 15.689 0 0 0 -1.456-2.381zm-7.541-17.11.052.024c.258.112.515.231.813.389a1.973 1.973 0 0 0 .194.1 10.358 10.358 0 0 1 3 2.431c2.473 2.947 2.948 7.627 3.011 10.158-.007.191-.011.377-.011.542a15.089 15.089 0 0 1 -4.917-.714c-.341-.151-.678-.279-1-.388l-.03-.011a8.669 8.669 0 0 1 -3.03-2.218c-2.844-3.284-2.952-8.863-2.825-11.468a15.28 15.28 0 0 1 4.743 1.155zm17.278 11.839a14.5 14.5 0 0 0 -2.341.971 18.408 18.408 0 0 1 -4.362.745c0-.16 0-.321 0-.5v-.022c.027-1.985.393-6.9 3.182-9.662a9.388 9.388 0 0 1 2.61-1.825c.031-.012.061-.025.091-.039a11.287 11.287 0 0 1 2.275-.753l.065-.011a13.828 13.828 0 0 1 4.078-.2c-.156 2.61-.818 6.875-3.341 9.568a9.081 9.081 0 0 1 -2.257 1.728zm-8.388-7.5a15.022 15.022 0 0 0 -1.255-2.413c.327.015.648.045.982.045h.373c.04 0 .078-.017.118-.02a7.981 7.981 0 0 0 1.128.154 13.048 13.048 0 0 0 -1.346 2.232zm1.018-14.97a15.749 15.749 0 0 0 -1.055-2.576c.446.055.893.111 1.343.137.061.005.122.009.184.009h.016a8.007 8.007 0 0 0 1.085.224 13.042 13.042 0 0 0 -1.573 2.206zm-10.274-22.79a10.172 10.172 0 0 1 6.186 3.113 12.1 12.1 0 0 1 1.8 2.464 14.7 14.7 0 0 1 1.576 7.094 27.045 27.045 0 0 1 -.276 3.982c0 .023-.006.036-.009.058a15.424 15.424 0 0 1 -4.034-1.134 14.367 14.367 0 0 0 -2.3-1.369 8.4 8.4 0 0 1 -2-2.209c-2.25-3.65-1.517-9.372-.943-11.999zm-2.829 16.116a13.853 13.853 0 0 1 4.079 1.147 10.926 10.926 0 0 1 2.043 1.215l.055.039a10.334 10.334 0 0 1 2.238 2.391c2.225 3.3 2.317 8.207 2.176 10.8l-.01.144a14.758 14.758 0 0 1 -4.864-1.1c-.036-.018-.079-.043-.106-.055-.283-.149-.566-.28-.849-.405a8.931 8.931 0 0 1 -2.866-2.466c-2.59-3.526-2.235-9.137-1.896-11.71zm2.969 33.074c.043.018.087.035.132.05a8.709 8.709 0 0 1 .963.372 9.312 9.312 0 0 1 3.2 2.187c2.734 2.908 3.594 7.754 3.861 10.353 0 .038.006.073.009.109a15.159 15.159 0 0 1 -4.738-.267c-.435-.152-.869-.278-1.3-.387a8.658 8.658 0 0 1 -3.167-1.963c-3.266-3.213-3.738-8.644-3.768-11.183a16.271 16.271 0 0 1 4.808.729zm.859 26.3c-3.437-2.9-4.369-8.264-4.62-10.881a15.528 15.528 0 0 1 5.826.626 1.815 1.815 0 0 0 .356.129l.051.011a9.374 9.374 0 0 1 3.081 1.839c2.128 1.939 3.753 5.4 4.586 9.649.029.176.062.342.094.507-2.349.396-6.422.602-9.374-1.884zm17.312 23.243-1.825.567a189.663 189.663 0 0 1 -4.651-18.658c.327-.07.627-.142.887-.21.014 0 .027-.014.041-.017.226-.024.551-.067.951-.132a188.017 188.017 0 0 0 4.597 18.446zm3.83-26.833c-2.1 3.124-6.169 4.368-8.319 4.823-.016-.09-.034-.183-.052-.274-.4-2.631-.6-7.306 1.6-10.318 2.536-3.47 6.152-4.025 8.568-4.167.248 2.609.258 6.882-1.797 9.936zm-6.348-10.986a18.349 18.349 0 0 1 -4.011.979l-.005-.061v-.007c-.193-2.33-.238-7.291 2.382-10.338a9.31 9.31 0 0 1 2.584-2.07 10.974 10.974 0 0 1 2.111-.869c.04-.012.08-.025.119-.04a14.536 14.536 0 0 1 4.045-.578h.016c.094 4.091-.823 7.621-2.575 9.819a8.581 8.581 0 0 1 -1.942 1.765 13.19 13.19 0 0 0 -2.724 1.4zm4.669-31.582a8.585 8.585 0 0 1 -2.265 1.47 14.834 14.834 0 0 0 -2.627.859 18.2 18.2 0 0 1 -4.324.381v-.068c.165-2.084.885-7.208 3.985-9.838a8.654 8.654 0 0 1 3.138-1.66l.087-.023a11.987 11.987 0 0 1 1.187-.27 16.151 16.151 0 0 1 5-.036c-.249 2.18-1.212 6.478-4.181 9.185zm1.7-14.151a9.226 9.226 0 0 1 -3.271 1.59c-.44.083-.864.175-1.277.289a18.259 18.259 0 0 1 -4.859.11v-.017-.024c.327-2.083 1.444-7.156 4.766-9.555a9.925 9.925 0 0 1 2.516-1.314 11.611 11.611 0 0 1 6.941-.027c-.886 4.014-2.609 7.232-4.82 8.948z"/><path d="m60.166 23.371-.125-.043a18 18 0 0 0 -7.131-1.072c.06-.208.123-.416.173-.626 1.5-6.359-1.538-13.152-2.911-15.778l-.038-.074a1.718 1.718 0 0 0 -.257-.406 1.748 1.748 0 0 0 -1.337-.622c-.934 0-9.8 4.515-11.823 13.008-.055.232-.1.467-.14.7a14.151 14.151 0 0 0 -7.267-2.04 1.752 1.752 0 0 0 -1.011.321c-1.37.968-3.028 9.976-.353 15.871-.628-.067-1.178-.1-1.594-.1a1.683 1.683 0 0 0 -1.167.427c-1.073.927-2.292 10.031.954 15.818a12.138 12.138 0 0 0 -1.649 0 1.75 1.75 0 0 0 -1.1.529c-1.013 1.051-1.555 10.12 2.222 15.676-1.461.027-2.687.343-3.006 1.268a1.8 1.8 0 0 0 -.074.3c-.232 1.464-.392 9.472 3.833 14.633a15.544 15.544 0 0 0 -1.7.242 1.751 1.751 0 0 0 -1.262 1.67c0 .1 0 10.071 5.958 15.09a13.394 13.394 0 0 0 8.8 2.957c.273 0 .543-.006.807-.018a192.784 192.784 0 0 0 5.307 20.924 1.752 1.752 0 0 0 1.669 1.224 1.725 1.725 0 0 0 .522-.08c1.734-.541 3.457-1.082 5.181-1.633a1.751 1.751 0 0 0 1.137-2.191 185.053 185.053 0 0 1 -5.048-19.907 15.44 15.44 0 0 0 7.922-5.589c3.055-4.536 2.675-10.595 2.177-13.8l-.01-.069a1.753 1.753 0 0 0 -1.843-1.581c-.172.01-.373.018-.6.026l-.57.023c2.514-4.3 2.442-9.748 2.255-12.168a1.691 1.691 0 0 0 -.058-.4 1.746 1.746 0 0 0 -1.209-1.245 7.967 7.967 0 0 0 -1.548-.182c2.675-3.874 3.141-8.914 3.158-11.779v-.075a1.747 1.747 0 0 0 -1.349-1.825c-.189-.044-.669-.141-1.331-.226a19.632 19.632 0 0 0 4.1-12.049 1.75 1.75 0 0 0 -1.08-1.434 1.772 1.772 0 0 0 -.463-.118c-.363-.075-.713-.135-1.059-.191 3.462-3.584 4.692-8.929 5.09-11.348a1.751 1.751 0 0 0 -1.153-2.037zm-12.382-14.433c1.269 2.8 2.908 7.569 1.9 11.881a12.15 12.15 0 0 1 -.9 2.423 13.345 13.345 0 0 0 -2.675 1.489 12.378 12.378 0 0 0 -2.957 3.1 14.739 14.739 0 0 0 -1.483-3.973 15.967 15.967 0 0 0 -1.832-2.609 11.963 11.963 0 0 1 .29-2.688c1.164-4.905 5.411-8.189 7.657-9.623zm-8.091 76.743c.432-.05.862-.1 1.3-.173a1.72 1.72 0 0 0 .207-.057 7.6 7.6 0 0 0 1.125-.011 13.415 13.415 0 0 0 -.989 2.49 15.789 15.789 0 0 0 -1.643-2.249zm-1.153-15.15c.432-.015.861-.02 1.3-.062a.184.184 0 0 0 .025 0 5.554 5.554 0 0 0 .735.053c.182 0 .377-.008.574-.016a13.04 13.04 0 0 0 -1.189 2.389 15.58 15.58 0 0 0 -1.445-2.364zm-7.484-17.081c.279.119.568.255.908.438a10.6 10.6 0 0 1 3.075 2.477c2.453 2.923 2.939 7.54 3.011 10.155v.547a15.092 15.092 0 0 1 -4.833-.681c-.054-.024-.11-.037-.165-.056-.308-.136-.621-.262-.944-.369l-.014-.008a8.648 8.648 0 0 1 -3.018-2.22c-2.756-3.176-2.983-8.741-2.845-11.469a15.344 15.344 0 0 1 4.825 1.186zm17.185 11.823a13.436 13.436 0 0 0 -2.3.944 18.28 18.28 0 0 1 -4.393.759.147.147 0 0 1 0-.021c.008-.155 0-.3 0-.433v-.013c.021-1.992.374-6.925 3.2-9.721a9.038 9.038 0 0 1 2.67-1.846 10.671 10.671 0 0 1 2.345-.777 13.355 13.355 0 0 1 2.682-.265c.53 0 1.01.029 1.417.069-.157 2.61-.82 6.874-3.351 9.568a9.109 9.109 0 0 1 -2.27 1.736zm-8.369-7.51a14.926 14.926 0 0 0 -1.258-2.418c.328.014.65.045.984.045h.373c.044 0 .088-.018.132-.021a7.967 7.967 0 0 0 1.124.153 13.068 13.068 0 0 0 -1.355 2.241zm1.028-14.98a15.738 15.738 0 0 0 -1.055-2.571c.442.055.884.111 1.33.138h.088a10.153 10.153 0 0 0 1.2.234 13.1 13.1 0 0 0 -1.563 2.199zm-10.275-22.783a10.392 10.392 0 0 1 7.99 5.579c1.979 3.515 1.665 8.439 1.3 11.044l-.013.086a15.656 15.656 0 0 1 -4.054-1.135 14.385 14.385 0 0 0 -2.275-1.365 8.411 8.411 0 0 1 -2.004-2.209c-2.255-3.651-1.52-9.377-.944-12zm-2.839 16.115a13.888 13.888 0 0 1 4.089 1.148 10.863 10.863 0 0 1 1.964 1.164c.029.025.058.049.089.072a10 10 0 0 1 2.272 2.411c2.234 3.307 2.326 8.176 2.183 10.774l-.009.137v.033a14.7 14.7 0 0 1 -4.818-1.083c-.333-.18-.671-.337-.994-.478a8.888 8.888 0 0 1 -2.87-2.47c-2.599-3.523-2.245-9.136-1.906-11.708zm3.106 33.123a7.573 7.573 0 0 1 .977.384 9.183 9.183 0 0 1 3.186 2.178c2.742 2.916 3.595 7.708 3.86 10.463a15.136 15.136 0 0 1 -4.737-.27c-.436-.152-.871-.278-1.3-.387a8.666 8.666 0 0 1 -3.166-1.961c-3.255-3.208-3.725-8.64-3.752-11.182a16.274 16.274 0 0 1 4.932.775zm.727 26.248c-3.441-2.9-4.371-8.266-4.621-10.88a16.108 16.108 0 0 1 4.979.377c.044.011.085.028.129.035.258.067.515.146.773.231a1.7 1.7 0 0 0 .3.111l.043.009a9.377 9.377 0 0 1 3.086 1.841c2.132 1.943 3.76 5.414 4.591 9.675.028.167.058.325.088.481-2.342.4-6.416.606-9.368-1.88zm17.317 23.243-1.834.577a189.385 189.385 0 0 1 -4.652-18.658c.321-.07.615-.14.871-.207.247-.018.592-.057 1.025-.129a188.647 188.647 0 0 0 4.59 18.417zm3.825-26.829c-2.1 3.124-6.168 4.368-8.318 4.823-.017-.09-.035-.183-.052-.274-.4-2.631-.6-7.306 1.6-10.318a9.514 9.514 0 0 1 4.469-3.381c.021-.006.04-.016.061-.022a14.146 14.146 0 0 1 4.039-.764c.25 2.609.255 6.882-1.799 9.936zm-6.342-10.991a18.3 18.3 0 0 1 -4.023.985c-.165-1.962-.318-7.274 2.381-10.413a9.155 9.155 0 0 1 2.606-2.081 10.079 10.079 0 0 1 2.1-.86 14.481 14.481 0 0 1 4.152-.611h.016c.059 2.61-.255 6.9-2.578 9.817a9.083 9.083 0 0 1 -1.921 1.759 13.331 13.331 0 0 0 -2.733 1.404zm4.665-31.585a8.968 8.968 0 0 1 -2.238 1.468 14.13 14.13 0 0 0 -2.675.885 18.12 18.12 0 0 1 -4.3.366l.008-.125c.165-2.073.882-7.153 3.985-9.782a8.651 8.651 0 0 1 3.136-1.66l.1-.026a11.575 11.575 0 0 1 1.161-.269 16.074 16.074 0 0 1 5.024-.035c-.253 2.203-1.217 6.464-4.201 9.178zm1.688-14.143a9.217 9.217 0 0 1 -3.166 1.563h-.008c-.489.09-.94.194-1.374.315a17.94 17.94 0 0 1 -4.848.106v-.017c.325-2.079 1.441-7.174 4.774-9.58a10.789 10.789 0 0 1 9.45-1.336c-.567 2.568-1.893 6.676-4.828 8.949z"/></g></svg>