<svg height="511pt" viewBox="0 -15 511.99821 511" width="511pt" xmlns="http://www.w3.org/2000/svg"><path d="m470.328125 378.683594-5.570313-1.277344c53.984376-44.226562 65.488282-142.429688 14.640626-193.597656-19.566407-19.679688-31.253907-50.824219-31.253907-83.320313 0-47.101562-30.984375-85.429687-69.078125-85.429687-38.082031 0-69.078125 38.328125-69.078125 85.429687 0 10.703125-1.265625 21.25-3.671875 31.289063-35.488281-40.960938-91.84375-45.65625-129.527344-19.472656v-96.078126c0-4.164062-3.378906-7.542968-7.539062-7.542968-4.164062 0-7.542969 3.378906-7.542969 7.542968v29.617188c-22.527343-40.640625-63.519531-51.511719-109.425781-42.269531-4.636719.9375-7.28125 5.875-5.492188 10.257812.421876 1.027344 10.582032 25.515625 30.210938 46.957031 23.230469 25.378907 52.0625 37.980469 84.707031 28.941407v22.574219c-44.300781-30.78125-118.476562-19.730469-148.949219 50.457031-1.65625 3.820312.101563 8.253906 3.921876 9.914062 3.824218 1.660157 8.257812-.089843 9.917968-3.914062 27.886719-64.21875 94.570313-69.40625 129.9375-41.550781 7.363282 6.195312 18.101563 6.164062 25.425782 0 40.261718-31.710938 109.914062-17.910157 133.78125 51.476562 12.832031 37.371094 10.265624 76.453125-12.007813 116.878906-8.859375 15.847656-16.140625 29.023438-22.15625 39.996094-46.710937-10.0625-53.378906-13.742188-69.277344-13.398438-4.164062.082032-7.472656 3.519532-7.382812 7.683594.082031 4.175782 3.511719 7.492188 7.695312 7.390625 2.734375-.058593 5.839844.082031 9.117188.484375l-4.523438 40.625c-.460937 4.136719 2.519531 7.867188 6.660157 8.328125 4.15625.460938 7.871093-2.535156 8.332031-6.660156l4.375-39.273437c30.128906 6.878906 49.738281 11.363281 73.101562 16.707031l-2.15625 19.371093c-.460937 4.140626 2.519531 7.871094 6.660157 8.332032 4.15625.460937 7.871093-2.535156 8.332031-6.664063l1.964843-17.660156c4.660157 1.066406 111.714844 25.519531 113.054688 25.828125l-5.824219 52.292969c-.460937 4.140625 2.523438 7.871093 6.660157 8.332031 4.160156.460938 7.871093-2.535156 8.332031-6.660156l5.636719-50.582032 14.636718 3.347657c18.144532 4.140625 30.128906 20.996093 28.058594 39.5-2.050781 18.402343-17.570312 32.3125-36.082031 32.351562l-77.203125.148438 2.742187-24.59375c.460938-4.140625-2.519531-7.871094-6.660156-8.332031-4.144531-.457032-7.871094 2.519531-8.332031 6.660156l-2.929688 26.296875-73.992187.140625 2.574219-23.121094c.460937-4.136719-2.519532-7.867188-6.660157-8.328125-4.128906-.464844-7.871093 2.519531-8.332031 6.660156-.640625 5.761719-2.699219 24.207031-2.761719 24.820313l-35.425781.066406 4.484375-40.246094c.460937-4.136718-2.519531-7.867187-6.660156-8.328125-4.144531-.464843-7.871094 2.519531-8.332031 6.660157l-4.675782 41.945312c-.074218 0-.128906 0-.171875 0-.003906 0-.011719 0-.015625 0-.011718 0-.023437 0-.035156 0 0 0-.003906 0-.007812 0-.015626 0-.023438 0-.039063 0-.488281 0-2.855469.003906-12.492187.023438-29.605469 0-54.984376-20.195313-62.199219-48.101563-7.402344-28.503906 5.558593-60.332031 34.734375-74.195313 3.761718-1.789062 5.367187-6.285156 3.578125-10.046874-1.789063-3.761719-6.285157-5.371094-10.046875-3.578126-14.703125 6.976563-26.566406 17.980469-34.460938 31.433594-15.265625-7.613281-32.726562-19.589844-42.039062-37.226562-12.035156-22.863282-46.746094-14.277344-46.863282 11.535156l-23.632812-42.964844c-16.199219-29.433594-22.132812-62.46875-15.082031-96.5625.84375-4.082031-1.78125-8.074218-5.863281-8.917968-4.082032-.84375-8.066407 1.78125-8.910157 5.863281-7.5625 36.585937-1.820312 73.339843 16.632813 106.890625l32.222656 58.566406-23.613281-2.632812c-13.664063-1.519532-25.957031 8.300781-27.476563 21.972656-1.515625 13.628906 8.328125 25.957031 21.964844 27.476562l39.097656 4.351563c-9.695312 8.679687-17.5 16.546875-16.519531 28.953125 1.695313 21.929687 29.285156 31.066406 43.703125 14.230468 11.867188-13.886718 30.410156-22.464843 49.207031-27.09375 10.21875 31.941407 40.226563 55.132813 75.566407 55.132813 11.492187-.023437 231.066406-.445313 244.945312-.472656 28.511719-.054688 51.378906-23.160157 51.378906-51.511719-.003906-24.132812-16.457031-44.75-40.019531-50.128906zm-405.457031-361.953125c50.152344-6.847657 81.777344 17.054687 92.339844 58.589843-40.859376 11-72.992188-21.300781-92.339844-58.589843zm380.214844 356.179687-148.160157-33.851562c4.28125-7.84375 9.03125-16.5 14.320313-26.023438 13.96875 24.0625 40.011718 40.273438 69.769531 40.273438 38.285156 0 71.523437-27.210938 79.023437-64.703125.816407-4.082031-1.839843-8.054688-5.921874-8.867188-4.09375-.816406-8.054688 1.828125-8.871094 5.910157-6.09375 30.460937-33.105469 52.578124-64.230469 52.578124-27.554687 0-51.1875-17.105468-60.851563-41.253906 12.53125-23.851562 18.535157-49.054687 18.332032-74.054687 37.84375-32.359375 96.191406-11.949219 106.539062 35.859375.886719 4.074218 4.886719 6.660156 8.972656 5.773437 4.070313-.882812 6.65625-4.898437 5.769532-8.96875-3.828125-17.710937-13.726563-33.8125-27.835938-45.335937-26.808594-21.878906-65.128906-24.347656-94.640625-5.207032-2.511719-19.824218-9.101562-40.484374-19.628906-57.695312 4.835937-14.582031 7.402344-30.453125 7.402344-46.855469 0-34.800781 21.675781-70.34375 53.992187-70.34375 31.972656 0 53.992188 35.066407 53.992188 70.34375 0 36.929688 12.992187 71.171875 35.640625 93.960938 39.28125 39.5 35.480469 112.835937 1.359375 156.035156-7.414063 9.382813-15.851563 16.925781-24.972656 22.425781zm-309.839844 37.902344c-21.488282 5.226562-43.230469 15.5-57.460938 32.140625-3.511718 4.105469-9.707031 4.585937-13.808594 1.078125-4.113281-3.527344-4.59375-9.699219-1.074218-13.800781 6.566406-7.675781 14.433594-14.355469 22.804687-19.730469 5.9375-3.839844 3.785157-13.046875-3.257812-13.824219-6.53125-.730469-52.871094-5.898437-57.8125-6.449219-5.359375-.59375-9.242188-5.449218-8.648438-10.808593.59375-5.300781 5.339844-9.242188 10.820313-8.648438.03125.003907.0625.003907.089844.007813-.015626 0-.03125-.003906-.042969-.003906.035156.003906.09375.011718.179687.019531-.003906 0-.007812 0-.015625 0 .082031.007812.140625.011719.175781.019531-.027343-.003906-.066406-.007812-.109374-.015625 1.542968.171875 10.554687 1.175781 52.246093 5.824219 2.398438-.152344 9.707031 2.953125 12.902344-3.601563 1.398437-2.875.835937-6.304687-1.398437-8.585937-7.320313-7.464844-13.34375-15.628906-17.898438-24.257813-2.523438-4.777343-.683594-10.710937 4.082031-13.234375h.011719c4.820312-2.535156 10.695312-.671875 13.222656 4.09375 11.113282 21.058594 31.496094 35.066406 49.035156 43.785156-4.003906 11.292969-5.5 23.839844-4.042968 35.992188zm0 0"/></svg>