<svg id="Layer_1" enable-background="new 0 0 512 512" height="512" viewBox="0 0 512 512" width="512" xmlns="http://www.w3.org/2000/svg"><g><g><path d="m240.554 267.827c-25.268 0-45.824 20.901-45.824 46.591 0 25.706 20.557 46.62 45.824 46.62 25.269 0 45.825-20.914 45.825-46.62 0-25.69-20.556-46.591-45.825-46.591zm0 78.211c-16.996 0-30.824-14.185-30.824-31.62 0-17.419 13.828-31.591 30.824-31.591 16.997 0 30.825 14.172 30.825 31.591 0 17.436-13.828 31.62-30.825 31.62z"/><path d="m371.205 384.392c-16.515 0-29.95 13.64-29.95 30.405s13.436 30.405 29.95 30.405c16.499 0 29.922-13.64 29.922-30.405s-13.423-30.405-29.922-30.405zm0 45.81c-8.243 0-14.95-6.911-14.95-15.405s6.707-15.405 14.95-15.405c8.228 0 14.922 6.911 14.922 15.405s-6.695 15.405-14.922 15.405z"/><path d="m494.955 351.963v-22.521c0-5.886-4.776-10.675-10.646-10.675h-.965c2.779-13.69.006-29.03-8.212-44.272-8.269-15.333-21.493-29.199-33.691-35.324-2.094-1.05-4.556-1.063-6.658-.036-2.104 1.028-3.606 2.979-4.063 5.275-5.3 26.647-35.382 29.342-80.67 30.413-3.8.09-7.669.185-11.523.307l15.18-102.647c.599-4.011-.364-7.721-2.712-10.445-1.707-1.981-4.928-4.342-10.573-4.342h-80.256c-8.732-26.22-21.908-45.581-39.238-57.674v-24.431c0-8.292-5.105-15.406-12.33-18.375v-45.01c0-6.73-5.488-12.206-12.234-12.206h-112c-6.745 0-12.234 5.476-12.234 12.206v45.011c-7.225 2.969-12.331 10.082-12.331 18.375v24.438c-22.525 15.707-37.931 43.485-45.813 82.67-9.372 46.596-7.636 107.891 4.891 172.593 11.359 58.674 29.74 110.032 49.169 137.382 8.265 11.634 15.371 19.325 36.921 19.325.477 0 .96-.003 1.45-.011h333.159c10.325 0 18.726-8.4 18.726-18.726v-17.949c27.893-14.402 45.666-43.194 45.666-74.691v-36.738c0-5.664-3.819-10.442-9.013-11.922zm-144.551-62.143c37.016-.875 78.514-1.854 91.864-32.275 15.676 12.57 32.116 39.254 25.651 61.223h-135.846l4.222-28.552c4.68-.169 9.447-.286 14.109-.396zm-263.274-274.82h106.466v40.731h-106.466zm-12.331 60.591c0-2.634 2.212-4.86 4.831-4.86h121.466c2.618 0 4.83 2.226 4.83 4.86v20.961h-131.127zm-46.108 110.065c7.23-35.943 20.959-60.858 40.819-74.104h141.662c14.16 9.438 25.268 24.917 33.098 46.146h-103.58c-5.636 0-8.856 2.363-10.565 4.346-2.352 2.727-3.317 6.434-2.722 10.432l7.454 50.365h-110.98c.877-12.913 2.442-25.393 4.814-37.185zm-5.52 52.184h113.905l21.509 145.333h-118.044c-11.305-45.201-18.662-97.515-17.37-145.333zm83.19 259.148c-.04 0-.08 0-.12.001-16.559.262-19.691-4.169-25.967-13.002-12.464-17.546-25.371-48.589-35.768-85.814h116.298l4.417 29.846v68.135c0 .281.028.556.042.834zm158.952 0h-49.517v-24.63h49.517zm35.603-.834c0 .325-.221.627-.514.761-.007.003-.015.004-.022.007-.094.04-.194.065-.298.065h-19.77v-27.226c0-6.84-5.564-12.404-12.404-12.404h-54.708c-6.839 0-12.403 5.564-12.403 12.404v27.226h-19.741c-.452 0-.834-.382-.834-.834v-61.186h120.695v61.187zm10.159-137.925-9.13 61.74h-122.752l-30.798-208.124h73.537c4.143 0 7.5-3.358 7.5-7.5s-3.357-7.5-7.5-7.5h-75.757l-3.573-24.147h112.043c.008 0 .016.002.024.002.009 0 .018-.002.027-.002h83.816l-3.571 24.147h-78.398c-4.143 0-7.5 3.358-7.5 7.5s3.357 7.5 7.5 7.5h76.18l-21.6 146.063c-.016.107-.038.212-.048.321zm132.227 135.034c0 2.054-1.671 3.726-3.726 3.726h-123.682c.015-.276.022-.555.022-.834v-18.042h127.386zm45.666-92.64c0 26.709-15.569 51.067-39.801 62.49h-133.251v-35.095l9.1-61.537h59.624c4.143 0 7.5-3.358 7.5-7.5s-3.357-7.5-7.5-7.5h-57.406l2.619-17.713h150.1v17.713h-60.702c-4.143 0-7.5 3.358-7.5 7.5s3.357 7.5 7.5 7.5h69.716v34.142z"/></g></g></svg>