<svg xmlns="http://www.w3.org/2000/svg" viewBox="0 0 512 512"><g id="outline"><path d="M479.969,72.616C479.979,72.489,480,24,480,24a8,8,0,0,0-11.578-7.155L456,23.056l-12.422-6.211a8,8,0,0,0-7.156,0L424,23.056l-12.422-6.211a8,8,0,0,0-7.156,0L392,23.056l-12.422-6.211a8,8,0,0,0-7.156,0L360,23.056l-12.422-6.211a8,8,0,0,0-7.156,0L328,23.056l-12.422-6.211a8,8,0,0,0-7.156,0L296,23.056l-12.422-6.211a8,8,0,0,0-7.156,0L264,23.056l-12.422-6.211a8,8,0,0,0-7.156,0L232,23.056l-12.422-6.211A8,8,0,0,0,208,24V67.056l-8,4-12.422-6.211a8,8,0,0,0-7.156,0L168,71.056l-12.422-6.211a8,8,0,0,0-7.156,0L136,71.056l-12.422-6.211a8,8,0,0,0-7.156,0L104,71.056,91.578,64.845a8,8,0,0,0-7.156,0L72,71.056,59.578,64.845a8,8,0,0,0-7.156,0L40,71.056,27.578,64.845A8,8,0,0,0,16,72s.23,41.9.239,41.94L24,144.985v222.03s-8,32.814-8,32.912C16,399.951,16,440,16,440a8,8,0,0,0,11.578,7.155L40,440.944l12.422,6.211a8,8,0,0,0,7.156,0L72,440.944l12.422,6.211a8,8,0,0,0,7.156,0L104,440.944l12.422,6.211a7.973,7.973,0,0,0,3.572.847H120v40a8,8,0,0,0,10.971,7.428L169.541,480h148.57l30.311,15.155A8,8,0,0,0,360,488V424.944l12.422,6.211a8,8,0,0,0,7.156,0L392,424.944l12.422,6.211a8,8,0,0,0,7.156,0L424,424.944l12.422,6.211a8,8,0,0,0,7.156,0L456,424.944l12.422,6.211A8,8,0,0,0,480,424s-.073-49.084-.08-49.131l-7.872-55.105,3.934-47.191a609.932,609.932,0,0,0,.3-97.116l-4.235-55.1S479.956,72.781,479.969,72.616ZM360,368V344a8,8,0,0,0-11.578-7.155L318.111,352H280V295.527a96,96,0,1,0,0-143.054v-7.488l7.761-31.045c.009-.037.012-.076.021-.113C287.829,113.63,288,80,288,80H462.557s-6.583,39.969-6.534,40.613l4.31,56.072a593.788,593.788,0,0,1-.3,94.561S456,320.537,456.08,321.131l6.7,46.869ZM123.515,337.375A8,8,0,0,0,120,344v48H34.246l5.515-22.06C39.92,369.306,40,144,40,144c0-.654-5.754-24-5.754-24H269.754S264,143.346,264,144V352H169.541l-38.57-15.428A8,8,0,0,0,123.515,337.375ZM280,176.009a80,80,0,1,1,0,95.982V176.009ZM228.422,39.155a8,8,0,0,0,7.156,0L248,32.944l12.422,6.211a8,8,0,0,0,7.156,0L280,32.944l12.422,6.211a8,8,0,0,0,7.156,0L312,32.944l12.422,6.211a8,8,0,0,0,7.156,0L344,32.944l12.422,6.211a8,8,0,0,0,7.156,0L376,32.944l12.422,6.211a8,8,0,0,0,7.156,0L408,32.944l12.422,6.211a8,8,0,0,0,7.156,0L440,32.944l12.422,6.211a8,8,0,0,0,7.156,0L464,36.944V64H448V48H432V64H416V48H400V64H384V48H368V64H352V48H336V64H320V48H304V64H288V48H272V64H256V48H240V64H224V36.944Zm-192,48a8,8,0,0,0,7.156,0L56,80.944l12.422,6.211a8,8,0,0,0,7.156,0L88,80.944l12.422,6.211a8,8,0,0,0,7.156,0L120,80.944l12.422,6.211a8,8,0,0,0,7.156,0L152,80.944l12.422,6.211a8,8,0,0,0,7.156,0L184,80.944l12.422,6.211a8,8,0,0,0,7.156,0L216,80.944l12.422,6.211a8,8,0,0,0,7.156,0L248,80.944l12.422,6.211a8,8,0,0,0,7.156,0L272,84.944V104H32V84.944Zm71.156,337.69a8,8,0,0,0-7.156,0L88,431.056l-12.422-6.211a8,8,0,0,0-7.156,0L56,431.056l-12.422-6.211a8,8,0,0,0-7.156,0L32,427.056V408h88v23.056Zm216,40A7.994,7.994,0,0,0,320,464H168a8,8,0,0,0-2.971.572L136,476.184V456h16V440H136V424h16V408H136V392h16V376H136V355.816l29.029,11.612A8,8,0,0,0,168,368H320a7.994,7.994,0,0,0,3.578-.845L344,356.944V376H328v16h16v16H328v16h16v16H328v16h16v19.056ZM464,411.056l-4.422-2.211a8,8,0,0,0-7.156,0L440,415.056l-12.422-6.211a8,8,0,0,0-7.156,0L408,415.056l-12.422-6.211a8,8,0,0,0-7.156,0L376,415.056l-12.422-6.211A8,8,0,0,0,360,408V384h8v16h16V384h16v16h16V384h16v16h16V384h16Z"/><path d="M324,272a41.033,41.033,0,0,0,17.2-3.836A47.994,47.994,0,0,0,408,224a8,8,0,0,0-8-8H367.377c-3.5-22.671-21.614-40-43.377-40-24.262,0-44,21.533-44,48S299.738,272,324,272Zm36-16a32.054,32.054,0,0,1-30.987-24h61.974A32.054,32.054,0,0,1,360,256Zm-36-64c13.023,0,24,10.214,27.114,24H320a8,8,0,0,0-8,8,47.8,47.8,0,0,0,12.254,31.991c-.085,0-.169.009-.254.009-15.439,0-28-14.355-28-32S308.561,192,324,192Z"/><path d="M240,376a40,40,0,1,0,40,40A40.045,40.045,0,0,0,240,376Zm0,64a24,24,0,1,1,24-24A24.028,24.028,0,0,1,240,440Z"/><path d="M211.875,288H214a34.038,34.038,0,0,0,34-34V192a8,8,0,0,0-12.438-6.656l-2.426,1.617a77.408,77.408,0,0,1-28.7,11.7A72,72,0,0,0,98.328,200H90a34.038,34.038,0,0,0-34,34v70a8,8,0,0,0,13.554,5.758,77.46,77.46,0,0,1,26.294-16.693A72.007,72.007,0,0,0,211.875,288ZM152,192a55.887,55.887,0,0,1,28.855,8H123.142A55.805,55.805,0,0,1,152,192ZM72,234a18.021,18.021,0,0,1,18-18H190.072A93.306,93.306,0,0,0,232,206.1V254a18.021,18.021,0,0,1-18,18H123.45A93.148,93.148,0,0,0,72,287.38Zm41.511,54.65a78.452,78.452,0,0,1,9.939-.65h67.719a55.937,55.937,0,0,1-77.658.65Z"/></g></svg>