<?xml version="1.0" encoding="iso-8859-1"?>
<!-- Generator: Adobe Illustrator 19.0.0, SVG Export Plug-In . SVG Version: 6.00 Build 0)  -->
<svg version="1.1" id="Capa_1" xmlns="http://www.w3.org/2000/svg" xmlns:xlink="http://www.w3.org/1999/xlink" x="0px" y="0px"
	 viewBox="0 0 512 512" style="enable-background:new 0 0 512 512;" xml:space="preserve">
<g>
	<g>
		<path d="M137.062,354.929c-1.87-1.861-4.439-2.93-7.069-2.93c-2.641,0-5.21,1.069-7.07,2.93c-1.87,1.86-2.93,4.44-2.93,7.07
			c0,2.63,1.06,5.21,2.93,7.069c1.86,1.86,4.439,2.931,7.07,2.931c2.63,0,5.199-1.07,7.069-2.931
			c1.86-1.859,2.931-4.439,2.931-7.069C139.993,359.369,138.923,356.789,137.062,354.929z"/>
	</g>
</g>
<g>
	<g>
		<path d="M161.999,443.999h-22.01v-47c0-5.522-4.478-10-10-10c-5.522,0-10,4.478-10,10v47h-20V30.002c0-5.514,4.486-10,10-10
			s10,4.486,10,10v292.998c0,5.522,4.478,10,10,10c5.522,0,10-4.478,10-10v-28.635c31.664-4.833,56-32.249,56-65.242V208.57
			c11.639-4.128,20-15.243,20-28.28c0-16.542-13.458-30-30-30s-30,13.458-30,30c0,13.036,8.361,24.152,20,28.28v20.552
			c0,21.93-15.43,40.313-36,44.892V144.076c31.664-4.833,56-32.249,56-65.242V58.282c11.639-4.128,20-15.243,20-28.28
			c0-16.542-13.458-30-30-30s-30,13.458-30,30c0,13.036,8.361,24.152,20,28.28v20.552c0,21.93-15.43,40.313-36,44.892V30.002
			c0-16.542-13.458-30-30-30s-30,13.458-30,30v148.425c-22.531-2.957-39.986-22.269-39.986-45.594v-20.552
			c11.639-4.128,20-15.243,20-28.28c0-16.542-13.458-30-30-30s-30,13.458-30,30c0,13.036,8.361,24.152,20,28.28v20.552
			c0,34.364,26.403,62.664,59.986,65.713v130.169c-22.531-2.957-39.986-22.269-39.986-45.594V262.57
			c11.639-4.128,20-15.243,20-28.28c0-16.542-13.458-30-30-30s-30,13.458-30,30c0,13.036,8.361,24.152,20,28.28v20.552
			c0,34.364,26.403,62.664,59.986,65.713v95.163H58c-31.981,0-58,26.019-58,58c0,5.522,4.478,10,10,10h199.998
			c5.522,0,10-4.478,10-10C219.998,470.017,193.979,443.999,161.999,443.999z M185.989,170.291c5.514,0,10,4.486,10,10
			s-4.486,10-10,10c-5.514,0-10-4.486-10-10S180.476,170.291,185.989,170.291z M185.989,20.002c5.514,0,10,4.486,10,10
			s-4.486,10-10,10c-5.514,0-10-4.486-10-10S180.476,20.002,185.989,20.002z M30.004,94.001c-5.514,0-10-4.486-10-10s4.486-10,10-10
			c5.514,0,10,4.486,10,10S35.518,94.001,30.004,94.001z M30.004,244.29c-5.514,0-10-4.486-10-10c0-5.514,4.486-10,10-10
			c5.514,0,10,4.486,10,10C40.004,239.804,35.518,244.29,30.004,244.29z M21.335,491.998c4.4-16.118,19.171-28,36.665-28h103.999
			c17.494,0,32.265,11.882,36.665,28H21.335z"/>
	</g>
</g>
<g>
	<g>
		<path d="M502,0.002H256.002c-5.522,0-10,4.477-10,10v40c0,5.523,4.478,10,10,10h41.361v20c0,3.309-2.691,6-6,6
			c-3.309,0-6-2.691-6-6c0-5.523-4.478-10-10-10c-5.522,0-10,4.477-10,10c0,14.336,11.663,26,26,26c14.337,0,26-11.664,26-26v-20
			h58.152v20c0,3.309-2.691,6-6,6s-6-2.691-6-6c0-5.523-4.478-10-10-10s-10,4.477-10,10c0,14.336,11.663,26,26,26s26-11.664,26-26
			v-20h58.153v20c0,3.309-2.691,6-6,6s-6-2.691-6-6c0-5.523-4.478-10-10-10c-5.522,0-10,4.477-10,10c0,14.336,11.663,26,26,26
			c14.337,0,26-11.664,26-26v-20h28.333c5.522,0,10-4.477,10-10v-40C512,4.479,507.522,0.002,502,0.002z M492.001,40.002
			L492.001,40.002H473.65c-0.178-5.367-4.573-9.667-9.983-9.667s-9.806,4.299-9.983,9.667h-58.187
			c-0.178-5.367-4.573-9.667-9.983-9.667s-9.806,4.299-9.983,9.667h-58.186c-0.177-5.367-4.573-9.667-9.983-9.667
			c-5.41,0-9.806,4.299-9.983,9.667h-31.378v-20h225.998V40.002z"/>
	</g>
</g>
<g>
	<g>
		<path d="M502,235.937h-99.999c-5.522,0-10,4.477-10,10s4.478,10,10,10H492v52H312.002v-52h22c5.522,0,10-4.477,10-10
			s-4.478-10-10-10h-32c-5.522,0-10,4.477-10,10v256.061c0,5.522,4.478,10,10,10c5.522,0,10-4.478,10-10v-30.063H492v30.063
			c0,5.522,4.478,10,10,10s10-4.478,10-10V245.937C512,240.415,507.522,235.937,502,235.937z M492,451.935H312.002v-52H492V451.935z
			 M492,379.936H312.002v-52H492V379.936z"/>
	</g>
</g>
<g>
	<g>
		<path d="M376.07,238.87c-1.859-1.86-4.439-2.93-7.069-2.93c-2.641,0-5.21,1.07-7.07,2.93s-2.93,4.43-2.93,7.07
			c0,2.63,1.069,5.21,2.93,7.07s4.44,2.93,7.07,2.93s5.21-1.07,7.069-2.93c1.86-1.86,2.931-4.44,2.931-7.07
			C379.001,243.31,377.931,240.73,376.07,238.87z"/>
	</g>
</g>
<g>
	<g>
		<path d="M410.834,415.499h-17.666c-5.522,0-10,4.478-10,10s4.478,10,10,10h17.666c5.522,0,10-4.478,10-10
			S416.356,415.499,410.834,415.499z"/>
	</g>
</g>
<g>
	<g>
		<path d="M410.834,343.499h-17.666c-5.522,0-10,4.478-10,10c0,5.522,4.477,10,10,10h17.666c5.522,0,10-4.478,10-10
			C420.834,347.977,416.356,343.499,410.834,343.499z"/>
	</g>
</g>
<g>
	<g>
		<path d="M410.834,271.5h-17.666c-5.522,0-10,4.478-10,10s4.478,10,10,10h17.666c5.522,0,10-4.478,10-10
			S416.356,271.5,410.834,271.5z"/>
	</g>
</g>
<g>
</g>
<g>
</g>
<g>
</g>
<g>
</g>
<g>
</g>
<g>
</g>
<g>
</g>
<g>
</g>
<g>
</g>
<g>
</g>
<g>
</g>
<g>
</g>
<g>
</g>
<g>
</g>
<g>
</g>
</svg>
