<svg height="492pt" viewBox="0 -92 492 492" width="492pt" xmlns="http://www.w3.org/2000/svg"><path d="m358.5 102.199219c5.5 0 9.5-4.199219 9.5-9.800781v-52.5c.097656-2.574219-.863281-5.078126-2.65625-6.929688-1.792969-1.847656-4.265625-2.886719-6.84375-2.867188h-225c-5.5 0-9.5 4.199219-9.5 9.796876v52.5c-.097656 2.578124.863281 5.082031 2.65625 6.933593 1.792969 1.847657 4.265625 2.886719 6.84375 2.867188h82.5v196.199219c.015625 2.628906 1.082031 5.144531 2.957031 6.984374 1.878907 1.839844 4.414063 2.855469 7.042969 2.816407h40c2.632812.054687 5.179688-.953125 7.058594-2.796875 1.882812-1.84375 2.941406-4.367188 2.941406-7.003906v-196.199219zm-214.5-52h204v32h-204zm112 238h-20v-186h20zm0 0"/><path d="m482 0c-5.515625.015625-9.984375 4.484375-10 10v120.199219h-139c-2.632812-.054688-5.179688.957031-7.058594 2.800781-1.882812 1.84375-2.941406 4.367188-2.941406 7v158.5c0 5.523438 4.476562 10 10 10s10-4.476562 10-10v-96.300781h129v96.199219c0 5.523437 4.476562 10 10 10s10-4.476563 10-10v-288.5c-.011719-2.636719-1.070312-5.164063-2.949219-7.019532-1.875-1.859375-4.410156-2.894531-7.050781-2.878906zm-139 182.199219v-32h129v31.902343zm0 0"/><path d="m159 130.199219h-139v-120.199219c0-5.523438-4.476562-10-10-10s-10 4.476562-10 10v288.5c0 5.523438 4.476562 10 10 10s10-4.476562 10-10v-96.300781h129v96.199219c0 5.523437 4.476562 10 10 10s10-4.476563 10-10v-158.5c-.019531-2.617188-1.089844-5.117188-2.96875-6.941407s-4.414062-2.816406-7.03125-2.757812zm-139 52v-32h129v32zm0 0"/></svg>