<?xml version="1.0" encoding="iso-8859-1"?>
<!-- Generator: Adobe Illustrator 19.0.0, SVG Export Plug-In . SVG Version: 6.00 Build 0)  -->
<svg version="1.1" id="Layer_1" xmlns="http://www.w3.org/2000/svg" xmlns:xlink="http://www.w3.org/1999/xlink" x="0px" y="0px"
	 viewBox="0 0 490.667 490.667" style="enable-background:new 0 0 490.667 490.667;" xml:space="preserve">
<g>
	<g>
		<g>
			<path d="M471.893,255.995H20.907c-8.96,0-20.907,2.133-20.907,20.267v192.747c0,5.333,3.84,10.133,9.067,10.88
				c6.613,0.96,12.267-4.16,12.267-10.56V351.995h448v117.013c0,5.333,3.84,10.133,9.067,10.88c6.613,0.96,12.267-4.16,12.267-10.56
				V276.262C490.667,266.449,489.173,255.995,471.893,255.995z M469.333,330.662h-448v-53.333h448V330.662z"/>
			<path d="M256,213.329c-6.4,0-11.52,5.653-10.56,12.267c0.747,5.333,5.547,9.067,10.88,9.067h116.693
				c5.333,0,10.133-3.84,10.88-9.067c0.96-6.613-4.16-12.267-10.56-12.267H256z"/>
			<path d="M170.667,191.995h288c5.867,0,10.667-4.8,10.667-10.667v-160c0-5.867-4.8-10.667-10.667-10.667h-288
				c-5.867,0-10.667,4.8-10.667,10.667v160C160,187.195,164.8,191.995,170.667,191.995z M181.333,31.995H448v138.667H181.333V31.995
				z"/>
			<path d="M32,234.662h96c5.867,0,10.667-4.8,10.667-10.667v-192c0-5.867-4.8-10.667-10.667-10.667H32
				c-5.867,0-10.667,4.8-10.667,10.667v192C21.333,229.862,26.133,234.662,32,234.662z M42.667,42.662h74.667v170.667H42.667V42.662
				z"/>
		</g>
	</g>
</g>
<g>
</g>
<g>
</g>
<g>
</g>
<g>
</g>
<g>
</g>
<g>
</g>
<g>
</g>
<g>
</g>
<g>
</g>
<g>
</g>
<g>
</g>
<g>
</g>
<g>
</g>
<g>
</g>
<g>
</g>
</svg>
