<?xml version="1.0" encoding="iso-8859-1"?>
<!-- Generator: Adobe Illustrator 19.0.0, SVG Export Plug-In . SVG Version: 6.00 Build 0)  -->
<svg version="1.1" id="Capa_1" xmlns="http://www.w3.org/2000/svg" xmlns:xlink="http://www.w3.org/1999/xlink" x="0px" y="0px"
	 viewBox="0 0 480 480" style="enable-background:new 0 0 480 480;" xml:space="preserve">
<g>
	<g>
		<g>
			<path d="M440,152L440,152l-8,0V96c-0.026-22.08-17.92-39.974-40-40H88c-22.08,0.026-39.974,17.92-40,40v56h-8
				c-22.08,0.026-39.974,17.92-40,40v128c0.026,22.08,17.92,39.974,40,40h8v56c0,4.418,3.582,8,8,8h16
				c3.337,0.002,6.325-2.067,7.496-5.192L101.544,360h276.912l22.048,58.808c1.171,3.125,4.159,5.194,7.496,5.192h16
				c4.418,0,8-3.582,8-8v-56h8c22.08-0.026,39.974-17.92,40-40V192C479.974,169.92,462.08,152.026,440,152z M64,96
				c0-13.255,10.745-24,24-24h304c13.255,0,24,10.745,24,24v56h-24c-4.418,0-8,3.582-8,8v88H96v-88c0-4.418-3.582-8-8-8H64V96z
				 M16,192c0-13.255,10.745-24,24-24h40v80H16V192z M66.456,408H64v-48h20.456L66.456,408z M416,408h-2.456l-18-48H416V408z
				 M464,320c0,13.255-10.745,24-24,24H40c-13.255,0-24-10.745-24-24v-56h448V320z M464,248h-64v-80h40c13.255,0,24,10.745,24,24
				V248z"/>
			<path d="M40,328h336c4.418,0,8-3.582,8-8s-3.582-8-8-8H40c-4.418,0-8,3.582-8,8S35.582,328,40,328z"/>
			<path d="M408,328h32c4.418,0,8-3.582,8-8s-3.582-8-8-8h-32c-4.418,0-8,3.582-8,8S403.582,328,408,328z"/>
		</g>
	</g>
</g>
<g>
</g>
<g>
</g>
<g>
</g>
<g>
</g>
<g>
</g>
<g>
</g>
<g>
</g>
<g>
</g>
<g>
</g>
<g>
</g>
<g>
</g>
<g>
</g>
<g>
</g>
<g>
</g>
<g>
</g>
</svg>
