<svg id="Capa_1" enable-background="new 0 0 512 512" height="512" viewBox="0 0 512 512" width="512" xmlns="http://www.w3.org/2000/svg"><g><path d="m502 229.907h-17.974c.123-1.628.191-3.262.191-4.899 0-22.04-12.003-43.918-30.983-57.16-2.531-28.349-26.417-50.646-55.413-50.646-6.543 0-13.044 1.161-19.151 3.394-17.731-17.899-42.903-28.398-68.789-28.398-42.979 0-79.472 28.665-89.093 67.569-8.37-4.918-17.993-7.602-27.825-7.602-4.389 0-8.704.511-12.901 1.525-11.887-16.89-31.23-27.083-52.262-27.083-29.734 0-55.118 20.353-62.065 48.509-21.565 4.043-37.951 23.034-37.951 45.737 0 3.057.313 6.087.9 9.054h-18.684c-5.523 0-10 4.478-10 10v47.428c0 5.522 4.477 10 10 10h12.661l15.911 112.406c3.099 21.888 22.087 38.394 44.169 38.394h346.516c22.083 0 41.071-16.506 44.169-38.394l15.912-112.406h12.662c5.522 0 10-4.478 10-10v-47.428c0-5.522-4.478-10-10-10zm-454.217-9.053c0-14.592 11.87-26.494 26.461-26.531 5.071-.013 9.33-3.82 9.909-8.859 2.544-22.151 21.308-38.855 43.646-38.855 16.436 0 31.374 9.062 38.984 23.648 2.403 4.606 7.934 6.606 12.729 4.598 4.259-1.784 8.785-2.688 13.451-2.688 9.69 0 18.694 3.884 25.351 10.935 2.599 2.754 6.529 3.805 10.154 2.711.79-.237 1.591-.457 2.382-.651 4.244-1.045 7.317-4.725 7.59-9.087 2.237-35.817 33.619-63.875 71.442-63.875 22.647 0 44.549 10.047 58.585 26.876 3.05 3.655 8.249 4.652 12.436 2.392 5.157-2.789 11.009-4.263 16.92-4.263 19.649 0 35.635 15.985 35.635 35.635l-.003.463c-.052 3.596 1.831 6.943 4.932 8.766 15.451 9.082 25.833 26.34 25.833 42.942 0 1.641-.09 3.275-.268 4.899h-35.711c-3.232 0-6.266 1.563-8.142 4.194-1.877 2.632-2.366 6.008-1.313 9.064.928 2.692 1.398 5.52 1.398 8.402 0 14.208-11.56 25.767-25.768 25.767s-25.767-11.559-25.767-25.767c0-2.883.471-5.71 1.398-8.402 1.054-3.057.564-6.433-1.313-9.064-1.876-2.632-4.909-4.194-8.142-4.194h-311.223c-1.045-2.886-1.586-5.947-1.586-9.056zm-27.783 29.053h328.678c-.02.553-.029 1.106-.029 1.661 0 9.549 2.944 18.422 7.966 25.767h-336.615zm433.624 157.031c-1.71 12.084-12.186 21.196-24.366 21.196h-346.516c-12.181 0-22.656-9.112-24.367-21.196l-15.514-109.603h426.278zm38.376-129.603h-59.784c5.022-7.344 7.967-16.217 7.967-25.767 0-.555-.01-1.108-.029-1.661h51.846z"/><path d="m194.362 128.801c17.903 0 32.468-14.565 32.468-32.468s-14.565-32.468-32.468-32.468-32.468 14.565-32.468 32.468 14.565 32.468 32.468 32.468zm0-44.936c6.875 0 12.468 5.593 12.468 12.468s-5.593 12.468-12.468 12.468-12.468-5.593-12.468-12.468 5.593-12.468 12.468-12.468z"/></g></svg>