<svg version="1.2" xmlns="http://www.w3.org/2000/svg" viewBox="0 0 14 25" width="14" height="25">
	<title>drink-svg</title>
	<style>
		.s0 { fill: #222222 } 
	</style>
	<path id="Layer" fill-rule="evenodd" class="s0" d="m6.9 23.8c0 0.2-0.2 0.4-0.4 0.4h-5c-0.7 0-1.3-0.6-1.3-1.3v-12.3c0-1.9 1.2-3.6 3-4.4v-4q-0.3-0.2-0.3-0.5v-0.9c0-0.4 0.3-0.7 0.6-0.8q0.1 0 0.2 0h2.8q0.1 0 0.2 0c0.3 0.1 0.5 0.4 0.5 0.8v0.9q0 0.3-0.2 0.5v4c1 0.4 1.8 1.2 2.4 2.1 0.1 0.2 0 0.4-0.2 0.5-0.2 0.2-0.5 0.1-0.6-0.1-0.5-0.9-1.2-1.5-2.2-1.8-0.1-0.1-0.2-0.2-0.2-0.4v-4.1h-0.1c-0.3 0-0.4-0.2-0.4-0.4 0-0.2 0.1-0.4 0.4-0.4h0.3v-0.8h-2.6v0.8h0.3c0.2 0 0.4 0.2 0.4 0.4 0 0.2-0.2 0.4-0.4 0.4h-0.1v4.1c0 0.2-0.1 0.3-0.3 0.4-1.6 0.5-2.7 2-2.7 3.7v12.3c0 0.2 0.2 0.5 0.5 0.5h5c0.2 0 0.4 0.1 0.4 0.4zm-2.9-15.5c0.1 0.2 0 0.5-0.2 0.6-0.6 0.3-1 1-1 1.7v11c0 0.2-0.2 0.4-0.4 0.4-0.3 0-0.4-0.2-0.4-0.4v-11c0-1 0.5-1.9 1.4-2.4 0.2-0.2 0.4-0.1 0.6 0.1zm8.9 10.2c-0.7 0.7-1.7 1.2-2.7 1.3v4.4h1.3c0.2 0 0.4 0.2 0.4 0.4 0 0.2-0.2 0.4-0.4 0.4h-1.7q0 0 0 0 0 0 0 0h-1.8c-0.2 0-0.4-0.2-0.4-0.4 0-0.2 0.2-0.4 0.4-0.4h1.4v-4.4c-1.1-0.1-2.1-0.6-2.8-1.3-0.6-0.8-0.9-1.7-0.8-2.6l0.3-2.5q0 0 0 0l0.3-2.8c0-0.2 0.2-0.3 0.4-0.3h5.9c0.2 0 0.4 0.1 0.4 0.3l0.7 5.3c0.1 0.9-0.2 1.8-0.9 2.6zm0.1-2.5l-0.6-4.9h-5.2l-0.3 2.2c1.1 0.6 3 0.6 4.5-0.1 0.2-0.1 0.5-0.1 0.6 0.1 0.1 0.2 0 0.5-0.2 0.6-1.7 0.8-3.6 0.8-5 0.2l-0.2 1.9c-0.1 0.7 0.1 1.4 0.7 1.9 0.6 0.7 1.5 1.2 2.5 1.2 0.9 0 1.9-0.5 2.5-1.2 0.5-0.5 0.7-1.2 0.7-1.9zm-0.7-0.3c0.1 0.6-0.1 1.2-0.6 1.7-0.4 0.5-1.2 0.9-1.9 0.9-0.3 0-0.4-0.2-0.4-0.4 0-0.3 0.1-0.5 0.4-0.5 0.5 0 1-0.2 1.3-0.6 0.3-0.3 0.4-0.6 0.4-1 0-0.2 0.1-0.4 0.3-0.4 0.3-0.1 0.5 0.1 0.5 0.3z"/>
</svg>