<svg id="Capa_1" enable-background="new 0 0 512 512" height="512" viewBox="0 0 512 512" width="512" xmlns="http://www.w3.org/2000/svg"><g><g><path d="m340.577 145.103c-4.145 0-7.504 3.36-7.504 7.504v9.233c0 4.144 3.359 7.504 7.504 7.504s7.504-3.36 7.504-7.504v-9.233c0-4.145-3.36-7.504-7.504-7.504z"/><path d="m367.574 145.103c-4.145 0-7.504 3.36-7.504 7.504v9.233c0 4.144 3.359 7.504 7.504 7.504s7.504-3.36 7.504-7.504v-9.233c0-4.145-3.359-7.504-7.504-7.504z"/><path d="m394.572 145.103c-4.145 0-7.504 3.36-7.504 7.504v9.233c0 4.144 3.359 7.504 7.504 7.504s7.504-3.36 7.504-7.504v-9.233c0-4.145-3.359-7.504-7.504-7.504z"/><path d="m447.461 284.95-11.683-18.706c-4.488-7.184-6.859-15.46-6.859-23.931v-3.038c6.82-.972 12.086-6.834 12.086-13.919v-30.346c0-7.085-5.266-12.948-12.086-13.92v-37.74c0-13.698-11.145-24.844-24.844-24.844h-2.431l-5.685-48.79c-1.167-10.026-9.66-17.587-19.754-17.587h-17.26c-10.094 0-18.587 7.561-19.754 17.586l-5.685 48.79h-2.431c-13.699 0-24.844 11.145-24.844 24.844v37.739c-6.82.972-12.086 6.835-12.086 13.92v30.346c0 7.085 5.266 12.947 12.086 13.919v3.038c0 8.471-2.371 16.747-6.859 23.931l-11.683 18.706c-5.978 9.571-9.138 20.596-9.138 31.881v164.578c0 16.868 13.722 30.591 30.59 30.591h13.398c4.145 0 7.504-3.36 7.504-7.504s-3.359-7.504-7.504-7.504h-13.399c-8.592 0-15.582-6.99-15.582-15.582v-26.21h148.032v26.21c0 8.592-6.99 15.582-15.582 15.582h-68.951c-4.145 0-7.504 3.36-7.504 7.504s3.359 7.504 7.504 7.504h68.951c16.868 0 30.59-13.723 30.59-30.591v-164.576c.001-11.286-3.159-22.31-9.137-31.881zm-93.364-213.497c.287-2.46 2.37-4.315 4.847-4.315h17.26c2.477 0 4.56 1.855 4.847 4.315l5.482 47.053h-37.918zm-32.858 71.897c0-5.423 4.413-9.835 9.835-9.835h73c5.423 0 9.836 4.412 9.836 9.835v37.582h-92.671zm-12.086 52.59h116.843v28.483h-116.843zm132.437 244.251h-148.032v-92.696h31.377c-4.312 12.949-5.619 27.347.047 41.532 6.682 16.727 25.144 26.542 42.591 26.542 15.843 0 30.352-7.353 38.814-19.67 7.202-10.482 8.728-24.322 6.751-36.635-.184-1.145-1.992-11.77-2.926-11.77h31.377v92.697zm-104.749-78.53c2.981-18.737 15.248-37.23 28.759-50.289.055-.053.109-.106.161-.16l1.814-1.859 1.813 1.859c.053.054.106.107.161.16.102.098 10.29 9.997 18.689 24.262 8.529 14.483 16.445 36.249 5.778 51.77-11.981 17.438-40.895 17.45-52.884 0-5.01-7.295-5.64-17.27-4.291-25.743zm104.749-29.174h-37.885c-9.409-17.701-22.121-30.345-23.648-31.831-3.742-3.835-6.694-7.087-12.484-7.087-5.739 0-8.852 3.554-12.482 7.087-1.527 1.486-14.239 14.13-23.648 31.831h-37.885v-15.656c0-8.471 2.371-16.747 6.859-23.931l11.683-18.706c5.978-9.571 9.138-20.596 9.138-31.882v-2.881h92.671v2.881c0 11.286 3.16 22.311 9.138 31.882l11.683 18.706c4.488 7.184 6.859 15.459 6.859 23.931v15.656z"/></g><g><path d="m227.81 0h-21.825-133.97c-9.16 0-16.614 7.453-16.614 16.614v478.549c0 9.161 7.453 16.614 16.614 16.614h155.795c9.16 0 16.614-7.453 16.614-16.614v-478.549c0-9.161-7.454-16.614-16.614-16.614zm1.606 495.163c0 .885-.72 1.605-1.605 1.605h-155.796c-.885 0-1.605-.72-1.605-1.605v-101.486c80.11-65.197 115.173-179.562 130.492-264.521.736-4.079-1.975-7.981-6.053-8.717-4.079-.732-7.982 1.976-8.717 6.053-14.239 78.967-45.832 183.925-115.722 247.382v-357.26c0-.885.72-1.605 1.605-1.605h126.292c-.42 12.834-1.85 41.066-6.703 76.804-.558 4.107 2.32 7.888 6.427 8.446 4.09.556 7.888-2.319 8.445-6.426 5.047-37.165 6.463-65.88 6.859-78.824h14.476c.885 0 1.605.72 1.605 1.605z"/><path d="m182.43 422.592h-65.036c-4.145 0-7.504 3.36-7.504 7.504 0 4.145 3.359 7.504 7.504 7.504h65.036c4.145 0 7.504-3.36 7.504-7.504.001-4.144-3.359-7.504-7.504-7.504z"/><path d="m182.43 451.608h-65.036c-4.145 0-7.504 3.36-7.504 7.504 0 4.145 3.359 7.504 7.504 7.504h65.036c4.145 0 7.504-3.36 7.504-7.504.001-4.144-3.359-7.504-7.504-7.504z"/></g></g></svg>