<svg id="Capa_1" enable-background="new 0 0 511.98 511.98" height="512" viewBox="0 0 511.98 511.98" width="512" xmlns="http://www.w3.org/2000/svg"><g id="XMLID_781_"><g id="XMLID_378_"><path id="XMLID_396_" d="m492.523 284.769c-9.294-5.443-20.132-6.868-30.515-4.016-10.384 2.854-18.97 9.617-24.176 19.043l-7.688 13.92-7.031-26.241 20.926-36.245c12.393-21.464 5.012-49.009-16.453-61.402-7.926-4.576-16.76-6.436-25.367-5.862l19.549-33.831c6.003-10.397 7.598-22.511 4.491-34.108s-10.545-21.291-20.943-27.293c-7.989-4.613-16.819-6.481-25.397-5.909l3.132-5.424c12.393-21.464 5.012-49.009-16.453-61.402-21.464-12.394-49.009-5.01-61.402 16.453l-3.129 5.42c-3.793-7.714-9.831-14.424-17.818-19.036-10.397-6.003-22.511-7.598-34.108-4.491-11.598 3.107-21.291 10.545-27.293 20.943l-13.921 24.113c-2.762 4.783-1.123 10.899 3.66 13.66 4.784 2.761 10.9 1.123 13.66-3.66l13.921-24.113c3.332-5.771 8.712-9.9 15.149-11.625s13.161-.839 18.932 2.492c5.771 3.332 9.899 8.712 11.625 15.149 1.715 6.399.85 13.081-2.433 18.83l-90.331 156.452c-2.761 4.783-1.123 10.898 3.66 13.66 4.782 2.76 10.898 1.123 13.66-3.659l112.084-194.136c6.879-11.914 22.167-16.011 34.082-9.132 11.914 6.879 16.011 22.168 9.132 34.082l-90.76 157.201c-16.248 5.535-25.675 22.854-21.169 39.672l1.558 5.813c-4.275-.616-8.739-.398-13.168.788-17.535 4.699-27.978 22.787-23.28 40.322l26.862 100.249c4.963 18.522 13.996 35.253 26.335 49.213-52.074 28.925-115.123 28.631-167.24-1.459-73.117-42.215-103.942-129.954-73.295-208.623l31.905-81.901c5.207-13.365 20.408-20.247 33.885-15.341 13.123 4.776 20.346 19.021 16.444 32.43l-20.684 71.079c-1.545 5.309 1.125 10.948 6.209 13.118 5.085 2.169 11.004.195 13.767-4.592l68.178-118.081c2.762-4.783 1.123-10.898-3.66-13.66-4.781-2.761-10.898-1.123-13.66 3.66l-30.691 53.155c6.253-23.222-6.369-47.644-29.061-55.903-11.514-4.189-24-3.714-35.159 1.337-11.16 5.053-19.756 14.122-24.203 25.538l-31.905 81.901c-16.449 42.223-17.236 89.02-2.216 131.772 15.02 42.751 44.904 78.773 84.146 101.43 28.938 16.708 61.555 25.451 94.732 25.451 2.21 0 4.424-.039 6.638-.117 32.151-1.13 63.449-10.385 90.965-26.827 4.835 3.87 9.994 7.403 15.458 10.558 18.814 10.863 39.692 16.412 60.851 16.411 10.604 0 21.283-1.395 31.801-4.213 38.987-10.446 70.243-39.421 83.609-77.506l30.751-87.626c6.382-18.188-.829-38.325-17.148-47.881zm-74.938-77.62c11.914 6.879 16.01 22.167 9.132 34.082l-10.926 18.925-9.822-36.656c-1.862-6.947-5.847-12.959-11.403-17.325 7.162-3.317 15.772-3.209 23.019.974zm-22.271-101.095c5.771 3.332 9.899 8.712 11.625 15.149 1.725 6.438.839 13.161-2.491 18.929l-34.207 59.198c-1.537.188-3.072.481-4.594.889-4.398 1.178-8.417 3.213-11.885 5.952-2.59-7.464-7.707-13.683-14.618-17.673-5.456-3.151-11.558-4.634-17.703-4.39l39.794-68.925c6.879-11.911 22.166-16.007 34.079-9.129zm95.485 219.973-30.751 87.625c-11.176 31.847-37.312 56.076-69.914 64.811-26.344 7.058-53.857 3.436-77.475-10.2s-40.512-35.653-47.571-61.996l-26.861-100.247c-1.844-6.883 2.255-13.983 9.138-15.828 6.88-1.841 13.98 2.253 15.827 9.133l17.263 64.426c1.197 4.468 5.237 7.414 9.653 7.414.856 0 1.728-.111 2.595-.343 5.334-1.429 8.5-6.913 7.071-12.248l-26.655-99.479c-1.844-6.883 2.255-13.983 9.138-15.828 6.882-1.842 13.983 2.255 15.828 9.138l26.656 99.479c1.429 5.334 6.91 8.501 12.248 7.071 5.334-1.429 8.5-6.913 7.071-12.248l-33.86-126.353c-.894-3.334-.435-6.816 1.291-9.806 1.726-2.989 4.513-5.127 7.847-6.021s6.816-.435 9.806 1.291c2.989 1.726 5.127 4.513 6.021 7.847l33.857 126.355c1.197 4.468 5.237 7.415 9.653 7.414.856 0 1.728-.111 2.595-.343 5.334-1.429 8.5-6.913 7.071-12.248l-26.655-99.479c-.894-3.334-.435-6.816 1.291-9.806 1.726-2.989 4.513-5.127 7.847-6.021 6.883-1.84 13.982 2.255 15.827 9.138l30.594 114.178c1.056 3.94 4.399 6.844 8.448 7.338 4.051.497 7.993-1.521 9.964-5.091l19.681-35.634c2.578-4.667 6.829-8.015 11.97-9.428 5.14-1.414 10.505-.706 15.108 1.989 8.078 4.731 11.603 14.824 8.383 24z"/><path id="XMLID_399_" d="m195.083 113.37c2.63 0 5.21-1.07 7.07-2.93s2.93-4.44 2.93-7.07-1.07-5.21-2.93-7.07-4.44-2.93-7.07-2.93c-2.64 0-5.21 1.07-7.07 2.93-1.87 1.86-2.93 4.44-2.93 7.07s1.06 5.21 2.93 7.07c1.86 1.861 4.43 2.93 7.07 2.93z"/></g></g></svg>