<svg id="Capa_1" enable-background="new 0 0 512 512" height="512" viewBox="0 0 512 512" width="512" xmlns="http://www.w3.org/2000/svg"><g><g><path d="m419.643 143.46c-15.048 0-27.29 12.23-27.29 27.262 0 15.048 12.242 27.291 27.29 27.291 15.032 0 27.262-12.243 27.262-27.291-.001-15.032-12.23-27.262-27.262-27.262zm0 39.553c-6.776 0-12.29-5.514-12.29-12.291 0-6.761 5.514-12.262 12.29-12.262 6.761 0 12.262 5.501 12.262 12.262-.001 6.777-5.502 12.291-12.262 12.291z"/><path d="m343.852 143.46c-15.048 0-27.29 12.23-27.29 27.262 0 15.048 12.242 27.291 27.29 27.291 15.032 0 27.262-12.243 27.262-27.291-.001-15.032-12.23-27.262-27.262-27.262zm0 39.553c-6.776 0-12.29-5.514-12.29-12.291 0-6.761 5.514-12.262 12.29-12.262 6.761 0 12.262 5.501 12.262 12.262-.001 6.777-5.502 12.291-12.262 12.291z"/><path d="m434.337 39.439h-105.179c-6.946 0-12.597 5.65-12.597 12.596v50.312c0 6.946 5.65 12.597 12.597 12.597h36.296c4.143 0 7.5-3.358 7.5-7.5s-3.357-7.5-7.5-7.5h-33.893v-45.505h100.343v45.504h-29.985c-4.143 0-7.5 3.358-7.5 7.5s3.357 7.5 7.5 7.5h32.418c6.93 0 12.567-5.651 12.567-12.597v-50.31c0-6.946-5.637-12.597-12.567-12.597z"/><path d="m441.159 0h-118.852c-24.93 0-45.212 20.282-45.212 45.212v143.234c0 42.187 34.239 76.52 76.386 76.688v39.623h-104.124c5.591-16.805 3.958-31.899 1.212-42.329-4.167-15.824-13.252-29.813-24.934-38.386-7.416-5.43-16.894-6.625-24.738-3.122-7.946 3.55-13.078 11.414-14.082 21.582-2.42 24.822-9.854 41.245-22.723 50.205-9.995 6.951-30.259 11.792-39.322 12.049h-20.412v-3.23c0-5.915-4.8-10.728-10.699-10.728h-57.303c-5.915 0-10.728 4.812-10.728 10.728v72.707c0 4.142 3.358 7.5 7.5 7.5s7.5-3.358 7.5-7.5v-68.434h48.73v175.487h-48.73v-72.483c0-4.142-3.358-7.5-7.5-7.5s-7.5 3.358-7.5 7.5v76.756c0 5.915 4.812 10.728 10.728 10.728h57.304c5.899 0 10.699-4.812 10.699-10.728v-3.231h15.914c12.701 0 19.297 5.072 27.647 11.494 9.179 7.059 20.603 15.844 41.817 18.134.268.029.536.043.805.043h70.044 63.475c12.6 0 20.292-5.367 24.526-9.869 5.411-5.753 8.391-13.444 8.391-21.654 0-6.89-2.189-13.816-6.479-19.415 12.056-5.279 18.295-17.016 18.295-28.654 0-6.895-2.192-13.825-6.487-19.427 4.426-1.946 7.668-4.578 9.92-6.972 5.411-5.753 8.391-13.444 8.391-21.654 0-5.747-1.528-11.517-4.522-16.523h30.89c21.61 0 32.917-15.865 32.917-31.538 0-14.921-10.257-30.007-29.891-31.419v-39.742c42.134-.183 76.357-34.51 76.357-76.687v-143.233c.002-24.93-20.28-45.212-45.21-45.212zm-46.145 306.538c0 7.308-5.957 13.253-13.28 13.253-7.308 0-13.253-5.945-13.253-13.253v-78.4h26.533zm-57.353 185.316c-3.166 3.366-7.868 5.146-13.6 5.146h-63.475c-12.377 0-17.917-8.299-17.917-16.523 0-4.377 1.533-8.417 4.317-11.378 3.166-3.366 7.869-5.146 13.6-5.146h63.475c12.377 0 17.917 8.299 17.917 16.523.001 4.378-1.533 8.418-4.317 11.378zm-1.793-42.9h-75.281c-12.384 0-17.928-8.31-17.928-16.545 0-4.379 1.534-8.422 4.319-11.383 3.167-3.368 7.873-5.147 13.609-5.147h75.281c12.384 0 17.927 8.302 17.927 16.53 0 8.235-5.543 16.545-17.927 16.545zm29.751-64.599c0 8.224-5.54 16.523-17.917 16.523h-87.115c-12.384 0-17.928-8.303-17.928-16.531 0-4.375 1.533-8.413 4.317-11.371 3.167-3.366 7.874-5.145 13.61-5.145h87.115c12.378.001 17.918 8.3 17.918 16.524zm59.285-48.061c0 8.232-5.54 16.538-17.917 16.538h-146.4c-21.617 0-32.928 15.854-32.928 31.516 0 8.945 3.692 17.947 10.877 24.031-7.185 6.084-10.877 15.086-10.877 24.03 0 8.956 3.699 17.97 10.896 24.057-.935.79-1.77 1.586-2.494 2.357-5.411 5.753-8.391 13.444-8.391 21.654 0 5.747 1.528 11.517 4.522 16.523h-41.236c-16.761-1.894-25.083-8.294-33.892-15.068-9.335-7.18-18.989-14.604-36.792-14.604h-15.914v-147.571h21.095c9.546-.091 34.48-5.886 47.207-14.737 16.698-11.626 26.211-31.6 29.083-61.053.33-3.339 1.512-7.671 5.272-9.352 2.894-1.294 6.723-.693 9.751 1.524 18.157 13.325 28.917 44.904 14.64 72.689-1.195 2.325-1.093 5.104.27 7.335 1.362 2.231 3.787 3.592 6.401 3.592h118.695c4.751 8.934 14.154 15.034 24.959 15.034 10.821 0 20.237-6.106 24.99-15.047.088.003.175.013.264.013 12.379.002 17.919 8.308 17.919 16.539zm46.467-147.848c0 33.906-27.494 61.504-61.357 61.687v-24.796c0-6.727-5.473-12.2-12.199-12.2h-32.162c-6.712 0-12.172 5.473-12.172 12.2v24.797c-33.876-.168-61.386-27.772-61.386-61.688v-143.234c0-16.659 13.553-30.212 30.212-30.212h118.853c16.659 0 30.212 13.553 30.212 30.212v143.234z"/></g></g></svg>