<svg  xmlns="http://www.w3.org/2000/svg">

<symbol version="1.1" id="television" x="0px" y="0px"
	 viewBox="0 0 512 512" style="enable-background:new 0 0 512 512;" xml:space="preserve">
	<g transform="translate(1 1)">
	<g>
		<g>
			<path d="M485.4,45.933H24.6c-14.114,0-25.6,11.486-25.6,25.6v290.133c0,14.114,11.486,25.6,25.6,25.6h141.759L146.448,447
				h-27.981c-4.71,0-8.533,3.814-8.533,8.533c0,4.719,3.823,8.533,8.533,8.533H152.6h204.8h34.133c4.719,0,8.533-3.814,8.533-8.533
				c0-4.719-3.814-8.533-8.533-8.533h-27.989l-19.911-59.733H485.4c14.114,0,25.6-11.486,25.6-25.6V71.533
				C511,57.419,499.514,45.933,485.4,45.933z M16.067,97.133h477.867v238.933H16.067V97.133z M24.6,63h460.8
				c4.71,0,8.533,3.831,8.533,8.533v8.533H16.067v-8.533C16.067,66.831,19.898,63,24.6,63z M345.556,447h-181.12l19.917-59.733
				h141.295L345.556,447z M485.4,370.2H331.8H178.2H24.6c-4.702,0-8.533-3.823-8.533-8.533v-8.533h477.867v8.533
				C493.933,366.377,490.11,370.2,485.4,370.2z"/>
			<path d="M41.667,182.467c2.185,0,4.369-0.836,6.033-2.5l51.2-51.2c3.337-3.337,3.337-8.73,0-12.066
				c-3.336-3.336-8.73-3.336-12.066,0l-51.2,51.2c-3.337,3.337-3.337,8.73,0,12.066C37.298,181.63,39.482,182.467,41.667,182.467z"
				/>
			<path d="M138.034,116.7l-102.4,102.4c-3.337,3.337-3.337,8.73,0,12.066c1.664,1.664,3.849,2.5,6.033,2.5
				c2.185,0,4.369-0.836,6.033-2.5l102.4-102.4c3.337-3.337,3.337-8.73,0-12.066C146.763,113.364,141.37,113.364,138.034,116.7z"/>
			<path d="M462.3,253.234l-51.2,51.2c-3.337,3.337-3.337,8.73,0,12.066c1.664,1.664,3.849,2.5,6.033,2.5
				c2.185,0,4.369-0.836,6.033-2.5l51.2-51.2c3.336-3.337,3.337-8.73,0-12.066C471.03,249.897,465.637,249.897,462.3,253.234z"/>
			<path d="M474.366,202.034c-3.337-3.337-8.73-3.337-12.066,0l-102.4,102.4c-3.336,3.337-3.336,8.73,0,12.066
				c1.664,1.664,3.849,2.5,6.033,2.5c2.185,0,4.369-0.836,6.033-2.5l102.4-102.4C477.703,210.763,477.703,205.37,474.366,202.034z"
				/>
		</g>
	</g>
</g>
</symbol>

<symbol version="1.1" id="phone" x="0px" y="0px"
	 viewBox="0 0 512 512" style="enable-background:new 0 0 512 512;" xml:space="preserve">
<g>
	<g>
		<path d="M298.667,25.6h-85.333c-4.71,0-8.533,3.823-8.533,8.533c0,4.71,3.823,8.533,8.533,8.533h85.333
			c4.71,0,8.533-3.823,8.533-8.533C307.2,29.423,303.377,25.6,298.667,25.6z"/>
	</g>
</g>
<g>
	<g>
		<path d="M358.4,25.6h-8.533c-4.71,0-8.533,3.823-8.533,8.533c0,4.71,3.823,8.533,8.533,8.533h8.533
			c4.71,0,8.533-3.823,8.533-8.533C366.933,29.423,363.11,25.6,358.4,25.6z"/>
	</g>
</g>
<g>
	<g>
		<path d="M266.598,435.2H245.41c-12.979,0-23.543,10.564-23.543,23.543v4.122c0,12.979,10.564,23.535,23.535,23.535h21.188
			c12.979,0,23.543-10.556,23.543-23.535v-4.122C290.133,445.764,279.569,435.2,266.598,435.2z M273.067,462.865
			c0,3.567-2.901,6.468-6.468,6.468H245.41c-3.575,0-6.477-2.901-6.477-6.468v-4.122c0-3.575,2.901-6.477,6.477-6.477h21.18
			c3.576,0,6.477,2.901,6.477,6.477V462.865z"/>
	</g>
</g>
<g>
	<g>
		<path d="M370.227,0H141.781c-17.007,0-30.848,13.841-30.848,30.848v450.304c0,17.007,13.841,30.848,30.848,30.848h228.437
			c17.007,0,30.848-13.841,30.848-30.839V30.848C401.067,13.841,387.226,0,370.227,0z M384,481.152
			c0,7.595-6.178,13.781-13.773,13.781H141.781c-7.603,0-13.781-6.187-13.781-13.773V30.848c0-7.595,6.178-13.781,13.781-13.781
			h228.437c7.603,0,13.781,6.187,13.781,13.781V481.152z"/>
	</g>
</g>
<g>
	<g>
		<path d="M392.533,51.2H119.467c-4.71,0-8.533,3.823-8.533,8.533v358.4c0,4.71,3.823,8.533,8.533,8.533h273.067
			c4.71,0,8.533-3.823,8.533-8.533v-358.4C401.067,55.023,397.244,51.2,392.533,51.2z M384,409.6H128V68.267h256V409.6z"/>
	</g>
</g>
</symbol>


<symbol id="pc" enable-background="new 0 0 64 64"  viewBox="0 0 64 64" xmlns="http://www.w3.org/2000/svg"><path d="m14.215 46.99h-1.22c-1.654 0-3 1.346-3 3v1c0 .553.447 1 1 1h19.994c.553 0 1-.447 1-1v-1c0-1.654-1.346-3-3-3h-1.22l-.499-1.996h11.711c1.654 0 3-1.346 3-3v-26.984c0-1.654-1.346-3-3-3h-35.978c-1.654 0-3 1.346-3 3v26.984c0 1.654 1.346 3 3 3h11.711zm-1.22 2h15.994c.552 0 1 .448 1 1h-17.994c0-.552.448-1 1-1zm12.714-2h-9.434l.499-1.996h8.436zm-22.706-32.98h35.979c.552 0 1 .448 1 1v23.984h-37.979v-23.984c0-.552.448-1 1-1zm-1 27.984v-1h19.009c-.552 0-.994.447-.994 1s.452 1 1.005 1c.552 0 1-.447 1-1s-.448-1-1-1h18.959v1c0 .552-.448 1-1 1h-17.96-18.019c-.552 0-1-.448-1-1z"/><path d="m60.997 12.01h-14.001c-1.654 0-3 1.346-3 3v33.98c0 1.654 1.346 3 3 3h14.001c1.654 0 3-1.346 3-3v-33.98c0-1.655-1.346-3-3-3zm-15.001 5.996h16.001v.998h-16.001zm1-3.996h14.001c.552 0 1 .448 1 1v.996h-16.001v-.996c0-.552.448-1 1-1zm14.001 35.98h-14.001c-.552 0-1-.448-1-1v-27.986h16.001v27.986c0 .552-.448 1-1 1z"/><path d="m53.997 33.004c1.654 0 3-1.346 3-3s-1.346-3-3-3-3 1.346-3 3 1.346 3 3 3zm0-4c.552 0 1 .448 1 1s-.448 1-1 1-1-.448-1-1 .448-1 1-1z"/><path d="m57.997 39.006h-8c-.553 0-1 .447-1 1s.447 1 1 1h8c.553 0 1-.447 1-1s-.447-1-1-1z"/><path d="m57.997 42.006h-8c-.553 0-1 .447-1 1s.447 1 1 1h8c.553 0 1-.447 1-1s-.447-1-1-1z"/><path d="m57.997 45.006h-8c-.553 0-1 .447-1 1s.447 1 1 1h8c.553 0 1-.447 1-1s-.447-1-1-1z"/></symbol>
<symbol version="1.1" id="appliances" xmlns="http://www.w3.org/2000/svg" xmlns:xlink="http://www.w3.org/1999/xlink" x="0px" y="0px"
	 viewBox="0 0 512 512" style="enable-background:new 0 0 512 512;" xml:space="preserve">
<g>
	<g>
		<path d="M481.065,292.93c-4.2,0-7.604,3.405-7.604,7.604v196.258H287.958c-0.007,0-0.013-0.001-0.019-0.001h-57.792V234.13H473.46
			v41.058c0,4.199,3.404,7.604,7.604,7.604s7.604-3.405,7.604-7.604v-95.805c0-4.199-3.404-7.604-7.604-7.604H295.543V7.604
			c0-4.199-3.404-7.604-7.604-7.604H30.935c-4.2,0-7.604,3.405-7.604,7.604v35.42c0,4.199,3.404,7.604,7.604,7.604
			c4.2,0,7.604-3.405,7.604-7.604V15.208h241.795v156.571h-57.792c-4.2,0-7.604,3.405-7.604,7.604v66.912H38.539V68.371
			c0-4.199-3.404-7.604-7.604-7.604c-4.2,0-7.604,3.405-7.604,7.604v436.024c0,4.199,3.404,7.604,7.604,7.604L481.065,512
			c4.2,0,7.604-3.405,7.604-7.604V300.534C488.669,296.335,485.265,292.93,481.065,292.93z M322.911,186.987H473.46v31.935H322.911
			V186.987z M230.147,186.987h77.556v31.935h-77.556V186.987z M214.939,496.791H38.539V261.502h176.399V496.791z"/>
	</g>
</g>
<g>
	<g>
		<path d="M65.909,118.555c-4.2,0-7.604,3.405-7.604,7.604v92.763c0,4.199,3.404,7.604,7.604,7.604c4.2,0,7.604-3.405,7.604-7.604
			v-92.763C73.513,121.959,70.11,118.555,65.909,118.555z"/>
	</g>
</g>
<g>
	<g>
		<path d="M65.909,281.27c-4.2,0-7.604,3.405-7.604,7.604v92.764c0,4.199,3.404,7.604,7.604,7.604c4.2,0,7.604-3.405,7.604-7.604
			v-92.764C73.513,284.674,70.109,281.27,65.909,281.27z"/>
	</g>
</g>
<g>
	<g>
		<path d="M351.803,263.021c-54.504,0-98.845,44.343-98.845,98.847c0,11.047,1.811,21.897,5.383,32.249
			c1.37,3.969,5.692,6.078,9.668,4.708c3.969-1.37,6.077-5.698,4.708-9.668c-3.02-8.753-4.55-17.934-4.55-27.289
			c0-46.118,37.52-83.639,83.638-83.639c46.118,0,83.638,37.52,83.638,83.639s-37.52,83.639-83.638,83.639
			c-26.249,0-50.468-11.969-66.447-32.837c-2.554-3.335-7.327-3.969-10.662-1.414c-3.335,2.553-3.967,7.326-1.415,10.66
			c18.881,24.657,47.502,38.799,78.522,38.799c54.504,0,98.846-44.342,98.846-98.847
			C450.649,307.364,406.307,263.021,351.803,263.021z"/>
	</g>
</g>
<g>
	<g>
		<path d="M393.801,397.781c-10.26-9.121-16.145-22.209-16.145-35.909c0-13.7,5.884-26.791,16.145-35.913
			c1.624-1.443,2.553-3.511,2.553-5.683s-0.929-4.24-2.552-5.683c-11.586-10.299-26.501-15.97-41.998-15.97
			c-34.874,0-63.247,28.372-63.247,63.247c0,34.875,28.372,63.247,63.247,63.247c15.497,0,30.412-5.672,41.998-15.97
			c1.623-1.443,2.552-3.511,2.552-5.683C396.354,401.292,395.425,399.223,393.801,397.781z M377.304,402.573
			c-7.598,4.768-16.417,7.333-25.501,7.333c-26.488,0-48.039-21.55-48.039-48.039s21.551-48.039,48.039-48.039
			c9.083,0,17.903,2.566,25.501,7.333c-9.526,11.33-14.856,25.739-14.856,40.704C362.448,376.832,367.778,391.244,377.304,402.573z"
			/>
	</g>
</g>
</symbol>


<symbol id="dslr" enable-background="new 0 0 64 64" viewBox="0 0 64 64" xmlns="http://www.w3.org/2000/svg"><path d="m58 18h-7.219l-1.053-4.212c-.558-2.23-2.552-3.788-4.851-3.788h-.877v-1c0-1.654-1.346-3-3-3h-8c-1.654 0-3 1.346-3 3v1h-.877c-2.299 0-4.293 1.558-4.851 3.787l-1.053 4.213h-4.219v-1c0-1.654-1.346-3-3-3h-6c-1.654 0-3 1.346-3 3v1h-1c-2.757 0-5 2.243-5 5v4 5 21c0 2.757 2.243 5 5 5h52c2.757 0 5-2.243 5-5v-30c0-2.757-2.243-5-5-5zm3 5v3h-7c-1.654 0-3-1.346-3-3v-3h7c1.654 0 3 1.346 3 3zm-29-14c0-.551.449-1 1-1h8c.551 0 1 .449 1 1v1h-10zm-17 17h4v30h-4zm-6-9c0-.551.449-1 1-1h6c.551 0 1 .449 1 1v1h-8zm-6 6c0-1.654 1.346-3 3-3h13v4h-6v1c0 2.757-2.243 5-5 5h-5v-3zm0 30v-21h5c1.958 0 3.728-.81 5-2.109v26.109h-7c-1.654 0-3-1.346-3-3zm52.448-4.945c.887.204 1.552.996 1.552 1.945 0 1.103-.897 2-2 2-.585 0-1.133-.264-1.508-.699.767-1.002 1.425-2.088 1.956-3.246zm-15.448 7.945c-8.271 0-15-6.729-15-15s6.729-15 15-15 15 6.729 15 15-6.729 15-15 15zm18 0h-10.017c1.566-.837 2.981-1.913 4.207-3.177.738.734 1.74 1.177 2.81 1.177 2.206 0 4-1.794 4-4 0-1.792-1.193-3.295-2.82-3.802.528-1.64.82-3.385.82-5.198 0-9.374-7.626-17-17-17s-17 7.626-17 17c0 6.489 3.658 12.136 9.017 15h-11.017v-36h3.781l1.432-5.728c.334-1.337 1.531-2.272 2.91-2.272h15.754c1.379 0 2.576.935 2.91 2.272l1.213 4.851v3.877c0 2.757 2.243 5 5 5h7v25c0 1.654-1.346 3-3 3z"/><path d="m43 14h-12c-1.654 0-3 1.346-3 3v2c0 1.654 1.346 3 3 3h12c1.654 0 3-1.346 3-3v-2c0-1.654-1.346-3-3-3zm1 5c0 .551-.449 1-1 1h-12c-.551 0-1-.449-1-1v-2c0-.551.449-1 1-1h12c.551 0 1 .449 1 1z"/><path d="m8 28c1.654 0 3-1.346 3-3s-1.346-3-3-3-3 1.346-3 3 1.346 3 3 3zm0-4c.551 0 1 .449 1 1s-.449 1-1 1-1-.449-1-1 .449-1 1-1z"/><path d="m9 34h2v2h-2z"/><path d="m5 34h2v2h-2z"/><path d="m40 28c-7.168 0-13 5.832-13 13s5.832 13 13 13 13-5.832 13-13-5.832-13-13-13zm0 24c-6.065 0-11-4.935-11-11s4.935-11 11-11 11 4.935 11 11-4.935 11-11 11z"/><path d="m40 34c-3.86 0-7 3.14-7 7s3.14 7 7 7 7-3.14 7-7-3.14-7-7-7zm0 12c-2.757 0-5-2.243-5-5s2.243-5 5-5 5 2.243 5 5-2.243 5-5 5z"/><path d="m40 38c-1.654 0-3 1.346-3 3s1.346 3 3 3 3-1.346 3-3-1.346-3-3-3zm0 4c-.551 0-1-.449-1-1s.449-1 1-1 1 .449 1 1-.449 1-1 1z"/><path d="m57 22h2v2h-2z"/><path d="m53 22h2v2h-2z"/><path d="m57 30h2v2h-2z"/><path d="m23 52h2v2h-2z"/><path d="m23 22h2v2h-2z"/><path d="m23 26h2v2h-2z"/></symbol>


<symbol id="headphone" viewBox="-3 0 512 512" xmlns="http://www.w3.org/2000/svg"><path d="m491.730469 332.21875c7.613281-38.246094 19.183593-126.222656-15.367188-198.921875-3.496093-7.351563-10.308593-15.839844-22.152343-15.960937-13.210938-23.472657-30.285157-44.296876-50.804688-61.921876-3.144531-2.699218-7.878906-2.339843-10.578125.800782-2.699219 3.144531-2.339844 7.878906.804687 10.578125 17.785157 15.273437 32.800782 33.117187 44.734376 53.113281-1.082032.515625-12.621094 7.820312-18.308594 11.441406-34.796875-58.644531-97.722656-94.75-166.117188-94.75-68.335937 0-131.316406 36.125-166.113281 94.753906-5.6875-3.621093-17.230469-10.929687-18.316406-11.449218 38.753906-64.941406 108.5625-104.902344 184.429687-104.902344 41.535156 0 81.863282 11.933594 116.621094 34.515625 3.472656 2.253906 8.121094 1.269531 10.375-2.207031 2.257812-3.472656 1.269531-8.117188-2.203125-10.375-37.195313-24.160156-80.347656-36.933594-124.792969-36.933594-83.148437 0-159.496094 44.847656-200.285156 117.335938-9.707031-.945313-18.644531 8.609374-22.136719 15.960937-34.550781 72.699219-22.984375 160.671875-15.371093 198.921875-16.742188 18.027344-21.382813 45.320312-9.574219 68.476562l39.988281 78.410157c10.644531 20.867187 31.855469 32.894531 53.816406 32.894531 38.445313 0 48.4375-29.5 49.34375-36.355469l10.207032-5.203125c8.808593-4.492187 15.34375-12.148437 18.394531-21.554687 3.050781-9.410157 2.257812-19.441407-2.234375-28.25l-46.132813-90.460938c-9.273437-18.183593-31.617187-25.4375-49.804687-16.160156l-10.207032 5.203125c-20.484374-8.84375-39.421874 1.640625-40.566406 2.324219-17.652344-96.75 4.632813-159.105469 15.6875-181.808594 4.96875-10.207031 16.210938-7.578125 19.492188-5.464844 5.980468 3.851563 13.25 8.492188 21.59375 13.789063 5.4375 3.453125 7.660156 10.113281 5.402344 16.199218-7.632813 20.605469-19.070313 63.886719-9.902344 122.257813.644531 4.089844 4.480468 6.886719 8.574218 6.242187 4.09375-.640624 6.890626-4.480468 6.246094-8.570312-8.640625-55.003906 2.023438-95.484375 9.148438-114.71875 3.761718-10.152344 1.351562-21.4375-5.648438-29.183594 31.941406-54.835937 90.445313-88.6875 153.964844-88.6875 63.574219 0 122.027344 33.828125 153.972656 88.679688-7.003906 7.746094-9.417968 19.035156-5.65625 29.191406 8.824219 23.8125 20.816406 73.421875 3.773438 140.847656-11.648438 1.566406-22.375 8.621094-28.105469 19.863282l-46.132813 90.457031c-9.277343 18.1875-2.027343 40.527343 16.160157 49.804687l10.203125 5.203125c.910156 6.855469 9.628906 36.355469 49.347656 36.355469 21.960938 0 43.171875-12.027344 53.816406-32.898438l39.988282-78.40625c11.808593-23.15625 7.167968-50.449218-9.574219-68.476562zm-375.136719 4.773438 46.132812 90.457031c10.109376 20.605469-14.582031 32.164062-14.582031 32.164062-.773437-2.4375-64.628906-127.644531-66.148437-129.699219 0 0 22.117187-13.90625 34.597656 7.078126zm-76.914062-4.027344c16.351562-8.515625 27.675781-.183594 33.257812 10.761718l58.707031 115.109376c10.769531 21.117187-8.496093 32.023437-10.804687 33.234374-22.246094 11.332032-49.566406 2.460938-60.914063-19.785156l-39.988281-78.40625c-11.347656-22.25-2.378906-49.394531 19.742188-60.914062zm403.640624-198.691406c10.828126-6.835938 17.824219 1.953124 19.492188 5.460937 10.839844 22.808594 33.339844 85.0625 15.6875 181.8125-1.144531-.6875-17.761719-11.171875-40.570312-2.328125 0 0-14.503907-7.132812-16.710938-7.773438 17.101562-70.074218 4.421875-122.035156-4.894531-147.1875-2.253907-6.085937-.035157-12.746093 5.402343-16.199218 8.34375-5.292969 15.578126-9.988282 21.59375-13.785156zm44.621094 259.605468-39.988281 78.410156c-8 15.683594-23.9375 24.71875-40.433594 24.71875-6.90625 0-13.910156-1.585937-20.464843-4.929687-2.246094-1.175781-21.609376-12.082031-10.816407-33.242187l3.695313-7.25c1.882812-3.691407.417968-8.207032-3.273438-10.089844-3.691406-1.882813-8.207031-.414063-10.085937 3.277344 0 0-6.066407 12.402343-6.839844 14.839843 0 0-25.078125-7.210937-14.582031-32.164062l46.132812-90.453125c11.691406-21.652344 34.597656-7.082032 34.597656-7.082032-1.519531 2.058594-45.761718 88.292969-45.761718 88.292969-1.882813 3.691407-.417969 8.207031 3.273437 10.089844 3.6875 1.882813 8.207031.414063 10.085938-3.277344l41.460937-81.289062c10.792969-21.160157 30.992188-11.890625 33.226563-10.78125 22.25 11.347656 31.121093 38.679687 19.773437 60.929687zm0 0"/></symbol>

<symbol version="1.1" id="speaker" xmlns="http://www.w3.org/2000/svg" xmlns:xlink="http://www.w3.org/1999/xlink" x="0px" y="0px"
	 viewBox="0 0 480 480" style="enable-background:new 0 0 480 480;" xml:space="preserve">
<g>
	<g>
		<path d="M360,0H120C97.92,0.026,80.026,17.92,80,40v368c0.024,19.001,13.389,35.373,32,39.2V480h48v-32h160v32h48v-32.8
			c18.611-3.827,31.976-20.199,32-39.2V40C399.974,17.92,382.08,0.026,360,0z M144,464h-16v-16h16V464z M352,464h-16v-16h16V464z
			 M384,408c0,13.255-10.745,24-24,24H120c-13.255,0-24-10.745-24-24V40c0-13.255,10.745-24,24-24h240c13.255,0,24,10.745,24,24V408
			z"/>
	</g>
</g>
<g>
	<g>
		<path d="M240,160c-70.692,0-128,57.308-128,128c0.084,70.658,57.342,127.916,128,128c70.692,0,128-57.308,128-128
			S310.692,160,240,160z M240,400c-61.856,0-112-50.144-112-112c0.066-61.828,50.172-111.934,112-112c61.856,0,112,50.144,112,112
			S301.856,400,240,400z"/>
	</g>
</g>
<g>
	<g>
		<path d="M240,192c-53.019,0-96,42.981-96,96c0.057,52.996,43.004,95.943,96,96c53.019,0,96-42.981,96-96S293.019,192,240,192z
			 M240,368c-44.183,0-80-35.817-80-80c0.049-44.163,35.837-79.952,80-80c44.183,0,80,35.817,80,80C320,332.183,284.183,368,240,368
			z"/>
	</g>
</g>
<g>
	<g>
		<path d="M240,32c-30.928,0-56,25.072-56,56c0.035,30.913,25.087,55.965,56,56c30.928,0,56-25.072,56-56
			C296,57.072,270.928,32,240,32z M240,128c-22.091,0-40-17.909-40-40c0.026-22.08,17.92-39.974,40-40c22.091,0,40,17.909,40,40
			S262.091,128,240,128z"/>
	</g>
</g>
<g>
	<g>
		<path d="M240,64c-13.255,0-24,10.745-24,24s10.745,24,24,24s24-10.745,24-24S253.255,64,240,64z M240,96c-4.418,0-8-3.582-8-8
			s3.582-8,8-8s8,3.582,8,8S244.418,96,240,96z"/>
	</g>
</g>
<g>
	<g>
		<rect x="112" y="32" width="16" height="16"/>
	</g>
</g>
<g>
	<g>
		<rect x="352" y="32" width="16" height="16"/>
	</g>
</g>
<g>
	<g>
		<rect x="112" y="400" width="16" height="16"/>
	</g>
</g>
<g>
	<g>
		<rect x="352" y="400" width="16" height="16"/>
	</g>
</g>
<g>
	<g>
		<path d="M240,248c-22.091,0-40,17.909-40,40c0.026,22.08,17.92,39.974,40,40c22.091,0,40-17.909,40-40
			C280,265.909,262.091,248,240,248z M240,312c-13.255,0-24-10.745-24-24s10.745-24,24-24s24,10.745,24,24S253.255,312,240,312z"/>
	</g>
</g>
<g>
	<g>
		<path d="M48,280H16c-4.418,0-8,3.582-8,8s3.582,8,8,8h32c4.418,0,8-3.582,8-8S52.418,280,48,280z"/>
	</g>
</g>
<g>
	<g>
		<path d="M53.656,226.344l-24-24c-3.178-3.069-8.243-2.981-11.312,0.197c-2.994,3.1-2.994,8.015,0,11.115l24,24
			c3.178,3.069,8.243,2.981,11.312-0.197C56.65,234.359,56.65,229.444,53.656,226.344z"/>
	</g>
</g>
<g>
	<g>
		<path d="M53.46,338.344c-3.1-2.995-8.016-2.995-11.116,0l-24,24c-3.178,3.07-3.266,8.134-0.196,11.312s8.134,3.266,11.312,0.196
			c0.067-0.064,0.132-0.13,0.196-0.196l24-24C56.726,346.478,56.638,341.414,53.46,338.344z"/>
	</g>
</g>
<g>
	<g>
		<path d="M464,280h-32c-4.418,0-8,3.582-8,8s3.582,8,8,8h32c4.418,0,8-3.582,8-8S468.418,280,464,280z"/>
	</g>
</g>
<g>
	<g>
		<path d="M461.46,202.344c-3.1-2.994-8.015-2.994-11.116,0l-24,24c-3.124,3.125-3.123,8.19,0.002,11.314
			c1.5,1.499,3.534,2.342,5.654,2.342c2.122,0,4.156-0.844,5.656-2.344l24-24C464.726,210.478,464.638,205.414,461.46,202.344z"/>
	</g>
</g>
<g>
	<g>
		<path d="M461.656,362.344l-24-24c-3.178-3.07-8.242-2.982-11.312,0.196c-2.995,3.1-2.995,8.016,0,11.116l24,24
			c3.178,3.07,8.242,2.982,11.312-0.196C464.651,370.36,464.651,365.444,461.656,362.344z"/>
	</g>
</g>
</symbol>


<symbol version="1.1" id="rings" xmlns="http://www.w3.org/2000/svg"
	xmlns:xlink="http://www.w3.org/1999/xlink" x="0px" y="0px" viewBox="0 0 512 512"
	style="enable-background:new 0 0 512 512;" xml:space="preserve">
	<g>
		<g>
			<path d="M371.769,176.364l30.47-30.47l-21.71-25.265h-52.305l-21.71,25.265l30.47,30.47
c-29.557,3.279-57.658,14.863-80.982,33.507c-23.324-18.644-51.425-30.228-80.982-33.507l30.47-30.47l-21.71-25.265h-52.305
l-21.71,25.265l30.47,30.47C61.471,185.049,0,251.988,0,333.024c0,86.914,70.71,157.625,157.625,157.625
c35.834,0,70.513-12.2,98.375-34.472c27.862,22.272,62.542,34.472,98.375,34.472C441.29,490.649,512,419.938,512,333.024
C512,251.988,450.529,185.049,371.769,176.364z M327.237,145.11l7.97-9.275h38.337l7.969,9.275l-27.138,27.138L327.237,145.11z
M130.486,145.11l7.97-9.275h38.337l7.969,9.275l-27.138,27.138L130.486,145.11z M157.625,475.441
c-78.529,0-142.417-63.888-142.417-142.417s63.888-142.417,142.417-142.417c34.337,0,67.503,12.392,93.387,34.894
c8.035,6.984,15.308,14.898,21.618,23.522c17.933,24.508,27.412,53.555,27.412,84.002c0,27.573-7.775,54-22.563,76.946
c-0.192-0.192-0.376-0.39-0.566-0.583c-0.834-0.847-1.659-1.702-2.465-2.574c-0.357-0.386-0.705-0.781-1.055-1.172
c-0.661-0.736-1.315-1.479-1.955-2.233c-0.368-0.433-0.731-0.869-1.092-1.308c-0.618-0.751-1.225-1.513-1.823-2.28
c-0.337-0.432-0.675-0.863-1.005-1.3c-0.655-0.867-1.293-1.748-1.921-2.636c-0.195-0.275-0.396-0.545-0.589-0.823
c10.887-18.81,16.619-40.153,16.619-62.037c0-21.925-5.759-43.301-16.685-62.137l0.061-0.096l-2.58-4.072
c-4.983-7.859-10.817-15.117-17.407-21.662c-2.197-2.182-4.478-4.285-6.839-6.304l-6.234-5.332l-0.161,0.22
c-21.339-15.929-47.37-24.62-74.156-24.62c-68.375,0-124.002,55.628-124.002,124.002s55.627,124.001,124.002,124.001
c26.853,0,52.947-8.733,74.315-24.737c0.095,0.118,0.196,0.231,0.291,0.348c0.539,0.661,1.092,1.311,1.641,1.964
c0.423,0.501,0.841,1.007,1.269,1.503c0.586,0.677,1.185,1.342,1.782,2.01c0.409,0.457,0.812,0.92,1.226,1.372
c0.656,0.716,1.326,1.418,1.995,2.122c0.37,0.389,0.734,0.787,1.108,1.172c0.815,0.841,1.646,1.666,2.48,2.488
c0.228,0.225,0.449,0.456,0.677,0.68C219.606,465.022,189.107,475.441,157.625,475.441z M289.077,246.04
c18.767-14.095,41.689-21.81,65.298-21.81c59.989,0,108.794,48.805,108.794,108.794c0,59.989-48.805,108.792-108.794,108.792
c-23.608,0-46.531-7.715-65.298-21.81c17.142-25.819,26.172-55.735,26.172-86.984C315.249,301.775,306.22,271.858,289.077,246.04z
M256,379.489c-6.834-14.454-10.418-30.285-10.418-46.465c0-16.18,3.584-32.012,10.418-46.465
c6.834,14.454,10.418,30.285,10.418,46.465C266.418,349.204,262.834,365.035,256,379.489z M222.923,246.04
c-17.142,25.819-26.172,55.735-26.172,86.984c0,31.248,9.029,61.165,26.172,86.984c-18.767,14.095-41.69,21.81-65.298,21.81
c-59.989,0-108.794-48.804-108.794-108.793S97.636,224.23,157.625,224.23C181.234,224.23,204.156,231.945,222.923,246.04z
M354.375,475.441c-34.337,0-67.503-12.392-93.387-34.894c-8.034-6.983-15.308-14.898-21.618-23.522
c-17.933-24.508-27.412-53.555-27.412-84.001c0-27.573,7.775-54.001,22.562-76.946c0.194,0.194,0.38,0.394,0.572,0.589
c0.833,0.845,1.656,1.698,2.46,2.569c0.355,0.384,0.701,0.778,1.05,1.167c0.664,0.739,1.32,1.485,1.964,2.243
c0.364,0.429,0.724,0.862,1.082,1.296c0.622,0.756,1.233,1.522,1.835,2.294c0.334,0.428,0.669,0.855,0.997,1.289
c0.655,0.867,1.292,1.748,1.921,2.635c0.196,0.277,0.398,0.548,0.591,0.827c-10.887,18.81-16.619,40.153-16.619,62.038
c0,21.925,5.759,43.3,16.685,62.136l-0.062,0.096l2.581,4.072c6.643,10.478,14.8,19.888,24.245,27.966l6.234,5.332l0.161-0.221
c21.34,15.929,47.369,24.62,74.156,24.62c68.375,0,124.002-55.626,124.002-124.001s-55.626-124.001-124.002-124.001
c-26.853,0-52.947,8.733-74.315,24.738c-0.095-0.118-0.196-0.231-0.291-0.348c-0.538-0.66-1.089-1.309-1.638-1.96
c-0.424-0.503-0.844-1.011-1.274-1.508c-0.58-0.67-1.173-1.329-1.764-1.989c-0.416-0.464-0.825-0.935-1.246-1.394
c-0.642-0.701-1.298-1.387-1.951-2.075c-0.385-0.406-0.763-0.818-1.153-1.221c-0.781-0.805-1.577-1.594-2.373-2.382
c-0.262-0.259-0.516-0.525-0.78-0.783c24.804-19.075,55.302-29.493,86.786-29.493c78.529,0,142.417,63.888,142.417,142.417
C496.792,411.554,432.904,475.441,354.375,475.441z" />
		</g>
	</g>
	<g>
		<g>
			<rect x="248.396" y="21.351" width="15.208" height="47.344" />
		</g>
	</g>
	<g>
		<g>

			<rect x="294.983" y="52.217"
				transform="matrix(0.4198 -0.9076 0.9076 0.4198 130.5873 323.9224)"
				width="47.343" height="15.207" />
		</g>
	</g>
	<g>
		<g>
			<rect x="185.738" y="36.156"
				transform="matrix(0.9076 -0.4198 0.4198 0.9076 -7.2537 86.6932)"
				width="15.207" height="47.343" />
		</g>
	</g>
</symbol>

 <symbol version="1.1" id="diamonds" xmlns="http://www.w3.org/2000/svg"
	xmlns:xlink="http://www.w3.org/1999/xlink" x="0px" y="0px"
	viewBox="0 0 512.003 512.003" style="enable-background:new 0 0 512.003 512.003;"
	xml:space="preserve">
	<g>
		<g>
			<path d="M381.176,33.536c-4.787-2.764-10.915-1.122-13.679,3.665c-2.764,4.797-1.122,10.915,3.665,13.679
	c4.787,2.774,10.915,1.132,13.679-3.665C387.605,42.429,385.963,36.31,381.176,33.536z" />
		</g>
	</g>
	<g>
		<g>
			<path d="M256.002,0c-5.528,0-10.014,4.486-10.014,10.014c0,5.528,4.486,10.014,10.014,10.014c5.528,0,10.014-4.486,10.014-10.014
	C266.016,4.486,261.53,0,256.002,0z" />
		</g>
	</g>
	<g>
		<g>
			<path d="M256.002,266.369c-5.528,0-10.014,4.486-10.014,10.014c0,5.528,4.486,10.014,10.014,10.014
	c5.528,0,10.014-4.486,10.014-10.014C266.016,270.856,261.53,266.369,256.002,266.369z" />
		</g>
	</g>
	<g>
		<g>
			<path d="M144.508,37.202c-2.764-4.787-8.892-6.429-13.679-3.665c-4.787,2.774-6.429,8.892-3.665,13.679
	c2.764,4.797,8.892,6.439,13.679,3.665C145.629,48.117,147.272,41.998,144.508,37.202z" />
		</g>
	</g>
	<g>
		<g>
			<path d="M256.002,40.056c-5.53,0-10.014,4.483-10.014,10.014v40.056c0,5.531,4.484,10.014,10.014,10.014
	s10.014-4.483,10.014-10.014V50.069C266.016,44.539,261.532,40.056,256.002,40.056z" />
		</g>
	</g>
	<g>
		<g>
			<path d="M184.564,106.588L164.537,71.89c-2.766-4.79-8.889-6.435-13.679-3.667c-4.79,2.765-6.432,8.888-3.667,13.679
	l20.028,34.699c1.856,3.213,5.221,5.009,8.683,5.009c1.697,0,3.42-0.433,4.996-1.343
	C185.687,117.502,187.329,111.378,184.564,106.588z" />
		</g>
	</g>
	<g>
		<g>
			<path d="M361.147,68.225c-4.793-2.766-10.914-1.124-13.679,3.667l-20.028,34.698c-2.765,4.789-1.123,10.913,3.667,13.678
	c1.577,0.91,3.298,1.343,4.996,1.343c3.462,0,6.827-1.797,8.683-5.009l20.028-34.698
	C367.579,77.114,365.937,70.989,361.147,68.225z" />
		</g>
	</g>
	<g>
		<g>
			<path d="M466.291,276.315c-0.001-0.123-0.008-0.245-0.014-0.369c-0.006-0.128-0.014-0.256-0.024-0.385
	c-0.007-0.082-0.008-0.165-0.017-0.246c-0.012-0.112-0.032-0.224-0.047-0.335c-0.018-0.125-0.039-0.25-0.061-0.376
	c-0.017-0.094-0.028-0.189-0.048-0.282c-0.02-0.093-0.047-0.185-0.069-0.278c-0.031-0.128-0.065-0.256-0.101-0.384
	c-0.029-0.103-0.054-0.208-0.086-0.31c-0.023-0.072-0.053-0.143-0.078-0.215c-0.047-0.136-0.097-0.271-0.149-0.406
	c-0.042-0.107-0.081-0.215-0.126-0.32c-0.024-0.055-0.053-0.109-0.078-0.164c-0.064-0.141-0.132-0.279-0.202-0.418
	c-0.054-0.106-0.106-0.212-0.164-0.315c-0.01-0.018-0.017-0.036-0.027-0.054L404.995,165.31c-0.03-0.053-0.068-0.098-0.099-0.15
	c-0.167-0.285-0.349-0.562-0.545-0.829c-0.051-0.07-0.1-0.141-0.152-0.21c-0.249-0.323-0.516-0.636-0.805-0.928
	c-0.004-0.004-0.009-0.008-0.014-0.013c-0.274-0.276-0.571-0.533-0.879-0.778c-0.077-0.061-0.155-0.118-0.233-0.176
	c-0.248-0.185-0.508-0.359-0.777-0.524c-0.087-0.053-0.172-0.109-0.261-0.159c-0.341-0.194-0.693-0.375-1.063-0.531
	c-0.004-0.002-0.008-0.004-0.013-0.006c-0.001-0.001-0.003-0.001-0.004-0.002c-0.372-0.156-0.75-0.28-1.129-0.389
	c-0.106-0.03-0.213-0.053-0.32-0.08c-0.298-0.075-0.597-0.135-0.897-0.182c-0.107-0.016-0.212-0.034-0.32-0.047
	c-0.401-0.049-0.802-0.08-1.201-0.08c-0.001,0-0.002,0-0.004,0h-0.002c-0.017,0-0.033,0-0.05,0H256.002h-0.026H115.824
	c-0.415-0.001-0.83,0.031-1.247,0.082c-0.097,0.012-0.192,0.029-0.288,0.044c-0.303,0.047-0.606,0.108-0.908,0.184
	c-0.112,0.028-0.223,0.054-0.333,0.086c-0.327,0.094-0.652,0.206-0.974,0.335c-0.054,0.022-0.109,0.037-0.163,0.06
	c-0.009,0.004-0.019,0.006-0.028,0.01c-0.362,0.154-0.706,0.332-1.039,0.523c-0.084,0.048-0.163,0.102-0.245,0.152
	c-0.27,0.164-0.53,0.339-0.779,0.526c-0.082,0.061-0.163,0.123-0.244,0.187c-0.278,0.221-0.544,0.455-0.794,0.702
	c-0.033,0.032-0.068,0.061-0.1,0.094c-0.287,0.291-0.554,0.6-0.801,0.922c-0.047,0.061-0.089,0.126-0.135,0.188
	c-0.197,0.269-0.381,0.548-0.549,0.835c-0.03,0.052-0.068,0.097-0.098,0.149L47.134,271.233c-0.002,0.003-0.003,0.005-0.005,0.008
	l-0.119,0.209c-0.01,0.018-0.017,0.037-0.028,0.055c-0.062,0.111-0.118,0.225-0.176,0.339c-0.072,0.141-0.142,0.282-0.207,0.427
	c-0.02,0.044-0.042,0.088-0.062,0.132c-0.049,0.113-0.091,0.229-0.136,0.345c-0.054,0.138-0.106,0.276-0.154,0.417
	c-0.021,0.06-0.045,0.12-0.064,0.18c-0.035,0.11-0.061,0.223-0.093,0.335c-0.037,0.132-0.074,0.264-0.105,0.399
	c-0.019,0.08-0.042,0.159-0.059,0.239c-0.021,0.101-0.034,0.205-0.052,0.307c-0.023,0.13-0.046,0.26-0.064,0.393
	c-0.013,0.098-0.03,0.196-0.04,0.294c-0.01,0.09-0.011,0.181-0.019,0.271c-0.011,0.133-0.021,0.265-0.026,0.399
	c-0.004,0.11-0.01,0.22-0.011,0.33c0,0.023-0.003,0.046-0.003,0.069c0,0.062,0.008,0.123,0.009,0.185
	c0.002,0.132,0.007,0.264,0.014,0.397c0.006,0.109,0.012,0.218,0.022,0.327c0.008,0.093,0.019,0.184,0.03,0.276
	c0.015,0.126,0.033,0.251,0.053,0.377c0.016,0.099,0.031,0.198,0.05,0.296c0.019,0.102,0.039,0.203,0.062,0.304
	c0.027,0.121,0.058,0.24,0.089,0.36c0.023,0.089,0.047,0.178,0.072,0.267c0.031,0.107,0.062,0.213,0.096,0.319
	c0.037,0.114,0.079,0.226,0.12,0.338c0.032,0.087,0.065,0.174,0.099,0.261c0.042,0.104,0.083,0.208,0.128,0.311
	c0.045,0.104,0.095,0.206,0.144,0.308c0.045,0.093,0.091,0.185,0.138,0.277c0.051,0.097,0.101,0.194,0.155,0.29
	c0.051,0.091,0.104,0.18,0.158,0.27c0.06,0.1,0.123,0.199,0.187,0.297c0.059,0.091,0.12,0.18,0.182,0.269
	c0.055,0.078,0.109,0.156,0.167,0.234c0.074,0.1,0.15,0.197,0.228,0.295c0.071,0.088,0.145,0.173,0.218,0.259
	c0.042,0.049,0.077,0.101,0.121,0.15L249.784,508.66c0.247,0.277,0.511,0.538,0.785,0.783c0.04,0.035,0.083,0.065,0.123,0.1
	c0.289,0.251,0.592,0.482,0.905,0.697c0.102,0.07,0.206,0.136,0.31,0.202c0.292,0.184,0.592,0.352,0.9,0.506
	c0.085,0.042,0.166,0.089,0.252,0.129c0.389,0.179,0.788,0.332,1.198,0.461c0.098,0.031,0.198,0.053,0.297,0.08
	c0.329,0.092,0.663,0.167,1.001,0.226c0.124,0.021,0.247,0.043,0.372,0.06c0.437,0.058,0.876,0.098,1.323,0.098
	c0.011,0,0.021,0,0.031,0c0.448-0.001,0.889-0.043,1.327-0.103c0.125-0.017,0.247-0.039,0.372-0.061
	c0.339-0.06,0.675-0.136,1.005-0.23c0.099-0.028,0.199-0.05,0.297-0.082c0.41-0.13,0.81-0.286,1.2-0.468
	c0.085-0.04,0.166-0.087,0.25-0.129c0.309-0.155,0.61-0.326,0.902-0.513c0.105-0.067,0.208-0.134,0.311-0.205
	c0.31-0.215,0.61-0.446,0.896-0.696c0.043-0.038,0.09-0.071,0.133-0.109c0.274-0.249,0.538-0.512,0.786-0.793L463.79,283.01
	c0.036-0.041,0.065-0.085,0.1-0.126c0.066-0.077,0.132-0.155,0.196-0.234c0.086-0.107,0.168-0.215,0.249-0.325
	c0.056-0.076,0.111-0.152,0.165-0.229c0.056-0.08,0.11-0.162,0.164-0.244c0.07-0.107,0.136-0.215,0.202-0.324
	c0.054-0.09,0.108-0.178,0.159-0.269c0.048-0.087,0.093-0.175,0.139-0.264c0.051-0.099,0.1-0.2,0.148-0.301
	c0.05-0.104,0.101-0.207,0.147-0.312c0.041-0.094,0.077-0.189,0.115-0.284c0.037-0.093,0.072-0.187,0.106-0.282
	c0.042-0.115,0.086-0.23,0.124-0.346c0.031-0.096,0.057-0.193,0.086-0.29c0.028-0.096,0.052-0.193,0.077-0.29
	c0.031-0.122,0.065-0.243,0.091-0.367c0.02-0.091,0.037-0.183,0.054-0.276c0.02-0.107,0.036-0.215,0.053-0.323
	c0.019-0.126,0.039-0.251,0.054-0.378c0.01-0.082,0.019-0.165,0.026-0.248c0.011-0.12,0.016-0.24,0.023-0.362
	c0.007-0.129,0.013-0.258,0.015-0.386c0.001-0.054,0.008-0.107,0.008-0.161C466.294,276.36,466.291,276.338,466.291,276.315z
	M381.223,180.25l-32.468,77.478l-70.172-77.478H381.223z M233.58,180.25l-69.537,77.586l-33.079-77.586H233.58z M114.542,192.8
	l31.367,73.569H72.9L114.542,192.8z M78.098,286.397h76.348l69.721,163.517L78.098,286.397z M257.174,476.267l-80.956-189.87
	h39.729c5.53,0,10.014-4.483,10.014-10.014c0-5.531-4.484-10.014-10.014-10.014h-32.656l72.751-81.174l73.519,81.174h-33.502
	c-5.53,0-10.014,4.483-10.014,10.014c0,5.531,4.484,10.014,10.014,10.014h40.683L257.174,476.267z M290.019,449.71l68.438-163.313
	h75.636L290.019,449.71z M366.848,266.369l30.767-73.418l41.502,73.418H366.848z" />
		</g>
	</g>
	<g>
	</g>
	<g>
	</g>
	<g>
	</g>
	<g>
	</g>
	<g>
	</g>
	<g>
	</g>
	<g>
	</g>
	<g>
	</g>
	<g>
	</g>
	<g>
	</g>
	<g>
	</g>
	<g>
	</g>
	<g>
	</g>
	<g>
	</g>
	<g>
	</g>
	</symbol>


	<symbol id="neckles" viewBox="0 -5 382.40085 382"
	xmlns="http://www.w3.org/2000/svg">
	<path
		d="m296.328125 83.535156c-2.421875 0-4.761719-1.289062-6-3.558594-1.808594-3.308593-.589844-7.457031 2.722656-9.261718 3.808594-2.078125 6.175781-6.0625 6.175781-10.398438 0-6.523437-5.304687-11.832031-11.832031-11.832031-4.171875 0-8.082031 2.234375-10.203125 5.835937-1.90625 3.25-6.089844 4.335938-9.347656 2.410157-3.246094-1.910157-4.328125-6.09375-2.414062-9.347657 4.566406-7.742187 12.980468-12.550781 21.964843-12.550781 14.050781 0 25.484375 11.433594 25.484375 25.484375 0 9.335938-5.09375 17.914063-13.289062 22.382813-1.039063.566406-2.160156.835937-3.261719.835937zm0 0" />
	<path
		d="m90.296875 85.203125c-.566406 0-1.148437-.070313-1.722656-.21875-11.222657-2.921875-19.054688-13.066406-19.054688-24.667969 0-14.046875 11.433594-25.484375 25.484375-25.484375 9.386719 0 17.984375 5.136719 22.441406 13.402344 1.789063 3.320313.546876 7.460937-2.769531 9.25-3.3125 1.785156-7.460937.546875-9.25-2.769531-2.070312-3.839844-6.0625-6.226563-10.421875-6.226563-6.523437 0-11.832031 5.304688-11.832031 11.832031 0 5.386719 3.636719 10.097657 8.839844 11.453126 3.652343.949218 5.839843 4.679687 4.886719 8.328124-.800782 3.070313-3.570313 5.101563-6.601563 5.101563zm0 0" />
	<path
		d="m191.199219 373.125c-24.214844 0-48.429688-6.265625-70.027344-18.796875-42.421875-24.621094-75.292969-61.542969-97.695313-109.738281-15.359374-33.039063-23.476562-70.839844-23.476562-109.320313v-18.835937c0-3.53125 2.699219-6.480469 6.21875-6.800782.164062-.011718 16.816406-1.601562 37.171875-9.488281 3.488281-1.367187 7.464844.378907 8.832031 3.898438 1.363282 3.515625-.382812 7.46875-3.898437 8.832031-14.679688 5.6875-27.457031 8.351562-34.667969 9.519531v12.875c0 36.503907 7.675781 72.316407 22.203125 103.566407 21.203125 45.609374 52.214844 80.492187 92.167969 103.683593 38.96875 22.609375 87.382812 22.609375 126.347656 0 42.171875-24.472656 74.300781-61.859375 95.5-111.125 12.523438-29.109375 18.875-61.328125 18.875-95.769531v-13.414062c-9.3125-1.847657-28.265625-6.714844-49.308594-18.472657-3.292968-1.839843-4.46875-6-2.628906-9.289062 1.835938-3.289063 5.996094-4.46875 9.289062-2.628907 26.792969 14.976563 50.027344 17.808594 50.257813 17.835938 3.445313.394531 6.042969 3.3125 6.042969 6.78125v19.1875c0 36.308594-6.722656 70.347656-19.988282 101.167969-22.382812 52.015625-56.425781 91.5625-101.1875 117.535156-21.597656 12.53125-45.8125 18.796875-70.027343 18.796875zm0 0" />
	<path
		d="m90.296875 86.324219c-1.84375 0-3.679687-.742188-5.027344-2.203125-2.550781-2.773438-2.375-7.09375.398438-9.648438 9.933593-9.140625 17.871093-19.804687 23.613281-31.71875v-35.726562c0-3.769532 3.054688-6.828125 6.824219-6.828125h150.1875c3.769531 0 6.828125 3.058593 6.828125 6.828125v35.277344c7.515625 11.683593 16.597656 22.195312 27.007812 31.277343 2.839844 2.476563 3.136719 6.789063.660156 9.632813-2.472656 2.847656-6.785156 3.136718-9.632812.660156-11.914062-10.390625-22.226562-22.492188-30.652344-35.964844-.675781-1.089844-1.039062-2.339844-1.039062-3.621094v-30.433593h-136.53125v30.429687c0 .996094-.21875 1.976563-.636719 2.878906-6.539063 14.082032-15.753906 26.652344-27.378906 37.359376-1.3125 1.203124-2.972657 1.800781-4.621094 1.800781zm0 0" />
	<path
		d="m295.410156 224.699219c-15.496094 0-28.101562-12.609375-28.101562-28.105469s12.605468-28.105469 28.101562-28.105469 28.105469 12.609375 28.105469 28.105469-12.609375 28.105469-28.105469 28.105469zm0-42.554688c-7.964844 0-14.449218 6.484375-14.449218 14.449219 0 7.972656 6.484374 14.457031 14.449218 14.457031 7.96875 0 14.453125-6.484375 14.453125-14.457031 0-7.96875-6.484375-14.449219-14.453125-14.449219zm0 0" />
	<path
		d="m311.441406 182.675781c-14.425781 0-26.160156-11.734375-26.160156-26.160156 0-14.429687 11.734375-26.164063 26.160156-26.164063 14.429688 0 26.164063 11.734376 26.164063 26.164063 0 14.425781-11.734375 26.160156-26.164063 26.160156zm0-38.671875c-6.894531 0-12.507812 5.613282-12.507812 12.511719 0 6.894531 5.613281 12.507813 12.507812 12.507813 6.898438 0 12.511719-5.613282 12.511719-12.507813 0-6.898437-5.613281-12.511719-12.511719-12.511719zm0 0" />
	<path
		d="m86.988281 224.699219c-15.496093 0-28.105469-12.609375-28.105469-28.105469s12.609376-28.105469 28.105469-28.105469c15.496094 0 28.105469 12.609375 28.105469 28.105469s-12.605469 28.105469-28.105469 28.105469zm0-42.554688c-7.96875 0-14.453125 6.484375-14.453125 14.449219 0 7.972656 6.484375 14.457031 14.453125 14.457031s14.449219-6.484375 14.449219-14.457031c0-7.96875-6.480469-14.449219-14.449219-14.449219zm0 0" />
	<path
		d="m70.957031 182.675781c-14.425781 0-26.164062-11.734375-26.164062-26.160156 0-14.429687 11.738281-26.164063 26.164062-26.164063s26.164063 11.734376 26.164063 26.164063c0 14.425781-11.738282 26.160156-26.164063 26.160156zm0-38.671875c-6.898437 0-12.511719 5.613282-12.511719 12.511719 0 6.894531 5.613282 12.507813 12.511719 12.507813 6.894531 0 12.507813-5.613282 12.507813-12.507813 0-6.898437-5.613282-12.511719-12.507813-12.511719zm0 0" />
	<path
		d="m311.441406 107.085938c-12.527344 0-22.714844-10.191407-22.714844-22.71875 0-12.523438 10.1875-22.71875 22.714844-22.71875s22.71875 10.195312 22.71875 22.71875c0 12.527343-10.191406 22.71875-22.71875 22.71875zm0-31.785157c-4.996094 0-9.0625 4.066407-9.0625 9.066407 0 4.996093 4.066406 9.066406 9.0625 9.066406 5 0 9.066406-4.070313 9.066406-9.066406 0-5-4.066406-9.066407-9.066406-9.066407zm0 0" />
	<path
		d="m70.957031 107.085938c-12.527343 0-22.71875-10.191407-22.71875-22.71875 0-12.523438 10.191407-22.71875 22.71875-22.71875 12.523438 0 22.714844 10.195312 22.714844 22.71875 0 12.527343-10.1875 22.71875-22.714844 22.71875zm0-31.785157c-5 0-9.066406 4.066407-9.066406 9.066407 0 4.996093 4.066406 9.066406 9.066406 9.066406 4.996094 0 9.0625-4.070313 9.0625-9.066406 0-5-4.066406-9.066407-9.0625-9.066407zm0 0" />
	<path
		d="m319.460938 141.917969c-14.050782 0-25.484376-11.433594-25.484376-25.484375 0-7.980469 3.628907-15.347656 9.957032-20.214844 2.988281-2.292969 7.273437-1.738281 9.574218 1.253906 2.296876 2.988282 1.738282 7.277344-1.253906 9.570313-2.9375 2.261719-4.625 5.679687-4.625 9.386719 0 6.523437 5.304688 11.832031 11.832032 11.832031 6.523437 0 11.828124-5.304688 11.828124-11.832031 0-5.113282-3.253906-9.628907-8.101562-11.234376-3.582031-1.1875-5.515625-5.050781-4.332031-8.632812 1.1875-3.574219 5.050781-5.511719 8.632812-4.328125 10.4375 3.464844 17.457031 13.191406 17.457031 24.195313-.003906 14.054687-11.433593 25.488281-25.484374 25.488281zm0 0" />
	<path
		d="m62.941406 141.917969c-14.050781 0-25.484375-11.433594-25.484375-25.484375 0-14.054688 11.433594-25.488282 25.484375-25.488282 14.050782 0 25.484375 11.433594 25.484375 25.488282-.003906 14.050781-11.4375 25.484375-25.484375 25.484375zm0-37.316407c-6.523437 0-11.832031 5.308594-11.832031 11.832032 0 6.527344 5.304687 11.832031 11.832031 11.832031 6.523438 0 11.828125-5.304687 11.828125-11.832031 0-6.523438-5.304687-11.832032-11.828125-11.832032zm0 0" />
	<path
		d="m111.035156 256.761719c-15.496094 0-28.101562-12.605469-28.101562-28.101563s12.605468-28.105468 28.101562-28.105468 28.109375 12.609374 28.109375 28.105468-12.613281 28.101563-28.109375 28.101563zm0-42.554688c-7.964844 0-14.449218 6.484375-14.449218 14.453125s6.484374 14.453125 14.449218 14.453125c7.972656 0 14.453125-6.484375 14.453125-14.453125s-6.480469-14.453125-14.453125-14.453125zm0 0" />
	<path
		d="m143.101562 283.582031c-17.027343 0-30.875-13.847656-30.875-30.875 0-17.023437 13.847657-30.875 30.875-30.875 17.023438 0 30.875 13.851563 30.875 30.875 0 17.027344-13.851562 30.875-30.875 30.875zm0-48.09375c-9.496093 0-17.222656 7.722657-17.222656 17.21875 0 9.496094 7.726563 17.222657 17.222656 17.222657 9.5 0 17.222657-7.726563 17.222657-17.222657 0-9.496093-7.722657-17.21875-17.222657-17.21875zm0 0" />
	<path
		d="m271.363281 256.761719c-15.496093 0-28.105469-12.605469-28.105469-28.101563s12.609376-28.105468 28.105469-28.105468c15.496094 0 28.105469 12.609374 28.105469 28.105468s-12.609375 28.101563-28.105469 28.101563zm0-42.554688c-7.96875 0-14.453125 6.484375-14.453125 14.453125s6.484375 14.453125 14.453125 14.453125 14.449219-6.484375 14.449219-14.453125-6.480469-14.453125-14.449219-14.453125zm0 0" />
	<path
		d="m239.296875 283.582031c-17.023437 0-30.875-13.847656-30.875-30.875 0-17.023437 13.851563-30.875 30.875-30.875 17.027344 0 30.878906 13.851563 30.878906 30.875-.003906 17.027344-13.851562 30.875-30.878906 30.875zm0-48.09375c-9.496094 0-17.21875 7.722657-17.21875 17.21875 0 9.496094 7.722656 17.222657 17.21875 17.222657s17.222656-7.726563 17.222656-17.222657c0-9.496093-7.726562-17.21875-17.222656-17.21875zm0 0" />
	<path
		d="m191.199219 291.601562c-17.027344 0-30.875-13.851562-30.875-30.878906 0-17.023437 13.847656-30.875 30.875-30.875 17.027343 0 30.878906 13.851563 30.878906 30.875 0 17.027344-13.851563 30.878906-30.878906 30.878906zm0-48.097656c-9.496094 0-17.222657 7.722656-17.222657 17.222656 0 9.496094 7.726563 17.222657 17.222657 17.222657 9.496093 0 17.222656-7.726563 17.222656-17.222657 0-9.5-7.726563-17.222656-17.222656-17.222656zm0 0" />
</symbol>



  <symbol id="watches" viewBox="-111 0 512 512.00043"
	xmlns="http://www.w3.org/2000/svg">
	<path
		d="m8.644531 302.082031 7.21875 92.472657c1.109375 13.289062 12.191407 23.523437 25.523438 23.578124h4.898437l11.289063 72.226563c1.90625 12.488281 12.671875 21.691406 25.300781 21.640625h90.25c12.632812.050781 23.398438-9.160156 25.300781-21.648438l11.289063-72.21875h4.898437c13.34375-.054687 24.429688-10.3125 25.523438-23.609374l7.21875-92.496094c4.671875-11.996094 7.449219-24.644532 8.242187-37.492188h17.46875v8.53125c0 4.714844 3.820313 8.535156 8.535156 8.535156 4.710938 0 8.53125-3.820312 8.53125-8.535156v-34.132812c0-4.710938-3.820312-8.535156-8.53125-8.535156-4.714843 0-8.535156 3.824218-8.535156 8.535156v8.535156h-17.46875c-.789062-12.867188-3.566406-25.535156-8.242187-37.546875l-7.21875-92.476563c-1.109375-13.289062-12.191407-23.523437-25.523438-23.578124h-4.898437l-11.289063-72.226563c-1.90625-12.484375-12.671875-21.6914062-25.300781-21.640625h-90.25c-12.632812-.0507812-23.398438 9.160156-25.300781 21.648438l-11.289063 72.21875h-4.898437c-13.34375.058593-24.429688 10.3125-25.523438 23.613281l-7.21875 92.492187c-11.527343 29.609375-11.527343 62.464844 0 92.074219zm25.488281-54.613281h-16.664062c.789062-11.199219 3.332031-22.199219 7.535156-32.609375.902344-2.292969 1.96875-4.503906 3.027344-6.722656l14.414062 8.320312c2.640626 1.546875 5.910157 1.5625 8.566407.039063 2.65625-1.527344 4.289062-4.359375 4.28125-7.417969-.003907-3.0625-1.652344-5.886719-4.316407-7.402344l-14.367187-8.300781c7.664063-11.339844 17.425781-21.105469 28.765625-28.773438l8.300781 14.375c1.515625 2.664063 4.339844 4.3125 7.402344 4.316407 3.058594.007812 5.890625-1.625 7.417969-4.28125 1.523437-2.65625 1.507812-5.925781-.039063-8.566407l-8.304687-14.378906c12.339844-5.917968 25.671875-9.492187 39.3125-10.546875v16.613281c0 4.714844 3.824218 8.535157 8.535156 8.535157s8.535156-3.820313 8.535156-8.535157v-16.613281c1.046875.085938 2.105469.058594 3.148438.171875 12.554687 1.371094 24.78125 4.878906 36.15625 10.375l-8.296875 14.378906c-1.546875 2.640626-1.5625 5.910157-.039063 8.566407 1.527344 2.65625 4.359375 4.289062 7.421875 4.28125 3.058594-.003907 5.882813-1.652344 7.398438-4.316407l8.292969-14.367187c11.347656 7.65625 21.113281 17.421875 28.773437 28.765625l-14.367187 8.300781c-2.664063 1.515625-4.308594 4.339844-4.316407 7.402344-.007812 3.058594 1.628907 5.890625 4.28125 7.417969 2.65625 1.523437 5.925781 1.507812 8.566407-.039063l14.414062-8.320312c1.066406 2.234375 2.132812 4.472656 3.054688 6.828125 4.183593 10.375 6.71875 21.34375 7.507812 32.503906h-16.664062c-4.714844 0-8.535157 3.820312-8.535157 8.53125 0 4.714844 3.820313 8.535156 8.535157 8.535156h16.664062c-.789062 11.195313-3.332031 22.195313-7.535156 32.605469-.902344 2.292969-1.96875 4.503906-3.027344 6.722656l-14.414062-8.320312c-2.640626-1.546875-5.910157-1.5625-8.566407-.039063-2.652343 1.527344-4.289062 4.359375-4.28125 7.421875.007813 3.058594 1.652344 5.882813 4.316407 7.398438l14.367187 8.300781c-7.664063 11.339844-17.425781 21.109375-28.765625 28.777344l-8.300781-14.378906c-2.375-4.046876-7.566407-5.421876-11.628907-3.074219-4.0625 2.34375-5.46875 7.527343-3.152343 11.605469l8.296875 14.378906c-12.339844 5.917968-25.664063 9.492187-39.304688 10.546875v-16.613281c0-4.714844-3.824218-8.535157-8.535156-8.535157s-8.535156 3.820313-8.535156 8.535157v16.613281c-1.046875-.074219-2.105469-.058594-3.148438-.167969-12.554687-1.371094-24.78125-4.882812-36.152344-10.378906l8.292969-14.378906c2.316407-4.078126.910157-9.261719-3.152343-11.605469-4.0625-2.347657-9.253907-.972657-11.628907 3.074219l-8.292969 14.367187c-11.347656-7.65625-21.113281-17.421875-28.773437-28.765625l14.367187-8.300781c2.664063-1.515625 4.3125-4.339844 4.316407-7.398438.007812-3.0625-1.625-5.894531-4.28125-7.421875-2.65625-1.523437-5.925781-1.507812-8.566407.039063l-14.414062 8.320312c-1.066406-2.234375-2.132812-4.472656-3.054688-6.828125-4.183593-10.375-6.71875-21.339844-7.507812-32.5h16.664062c4.714844 0 8.535157-3.820312 8.535157-8.535156 0-4.710938-3.820313-8.53125-8.535157-8.53125zm147.421876 240.246094c-.625 4.164062-4.21875 7.238281-8.429688 7.21875h-90.25c-4.210938.023437-7.800781-3.046875-8.429688-7.210938l-10.878906-69.589844h128.851563zm33.058593-86.648438h-173.226562c-4.464844.015625-8.183594-3.417968-8.535157-7.867187l-4.460937-57.046875c1.527344 1.878906 3.011719 3.789062 4.652344 5.589844 8.871093 9.875 19.238281 18.292968 30.71875 24.953124.066406 0 .109375.117188.179687.160157.070313.027343.136719.054687.203125.085937 15.460938 8.894532 32.609375 14.460938 50.347657 16.34375 4.488281.476563 8.996093.71875 13.507812.714844 8.980469 0 17.9375-.949219 26.71875-2.824219.128906 0 .246094-.078125.367188-.101562 12.90625-2.792969 25.304687-7.5625 36.753906-14.140625l.160156-.066406c.066406-.042969.101562-.113282.164062-.148438 11.480469-6.644531 21.847657-15.058594 30.71875-24.925781 1.636719-1.789063 3.113282-3.695313 4.640626-5.570313l-4.460938 57.042969c-.378906 4.394531-4.042969 7.773437-8.449219 7.800781zm-140.167969-376.78125c.625-4.164062 4.21875-7.238281 8.429688-7.21875h90.25c4.210938-.023437 7.800781 3.046875 8.429688 7.210938l10.878906 69.589844h-128.851563zm-33.058593 86.648438h173.226562c4.464844-.011719 8.183594 3.417968 8.535157 7.867187l4.460937 57.046875c-1.527344-1.878906-3.011719-3.789062-4.648437-5.589844-8.875-9.871093-19.238282-18.292968-30.722657-24.953124-.066406 0-.109375-.117188-.179687-.160157h-.136719c-39.527344-22.808593-88.214844-22.808593-127.742187 0h-.121094c-.058594 0-.09375.101563-.152344.136719-11.484375 6.648438-21.851562 15.0625-30.71875 24.933594-1.640625 1.792968-3.117188 3.695312-4.644531 5.570312l4.464843-57.042968c.371094-4.371094 3.996094-7.746094 8.378907-7.808594zm0 0" />
	<path
		d="m98.015625 305.988281c1.941406 1.164063 4.265625 1.507813 6.460937.957031 2.195313-.550781 4.082032-1.949218 5.246094-3.890624l13.15625-21.976563c1.6875.347656 3.402344.523437 5.121094.523437 12.453125.023438 23.109375-8.941406 25.21875-21.214843 2.109375-12.273438-4.9375-24.277344-16.683594-28.417969v-35.703125c0-4.710937-3.824218-8.53125-8.535156-8.53125s-8.535156 3.820313-8.535156 8.53125v35.703125c-7.894532 2.710938-13.945313 9.140625-16.175782 17.1875-2.226562 8.042969-.347656 16.667969 5.023438 23.058594l-13.234375 22.109375c-2.394531 4.035156-1.082031 9.242187 2.9375 11.664062zm29.984375-58.519531c4.710938 0 8.535156 3.820312 8.535156 8.53125 0 4.714844-3.824218 8.535156-8.535156 8.535156s-8.535156-3.820312-8.535156-8.535156c0-4.710938 3.824218-8.53125 8.535156-8.53125zm0 0" />
	<path
		d="m93.867188 460.800781h68.265624c4.714844 0 8.535157-3.820312 8.535157-8.535156 0-4.710937-3.820313-8.53125-8.535157-8.53125h-68.265624c-4.714844 0-8.535157 3.820313-8.535157 8.53125 0 4.714844 3.820313 8.535156 8.535157 8.535156zm0 0" />
	<path
		d="m162.132812 51.199219h-68.265624c-4.714844 0-8.535157 3.820312-8.535157 8.535156 0 4.710937 3.820313 8.53125 8.535157 8.53125h68.265624c4.714844 0 8.535157-3.820313 8.535157-8.53125 0-4.714844-3.820313-8.535156-8.535157-8.535156zm0 0" />
</symbol>


 <symbol id="pearsing" viewBox="-64 0 512 512.13948"
	xmlns="http://www.w3.org/2000/svg">
	<path
		d="m375.496094 435.210938c-4.714844 0-8.535156 3.820312-8.535156 8.53125 0 19.753906-37.273438 51.199218-68.265626 51.199218-29.796874 1.621094-58.796874-9.945312-79.300781-31.632812-23.191406-23.191406-100.179687-107.398438-117.015625-216.746094 0-.109375-.1875-1.277344-.207031-1.382812.003906-.417969-.027344-.835938-.085937-1.253907-1.679688-11.164062-2.617188-22.425781-2.8125-33.714843-.269532-15.363282.757812-30.726563 3.070312-45.917969 6.839844 2.136719 14.261719 1.277343 20.429688-2.371094l.339843-.246094c7.078125-4.140625 11.703125-11.460937 12.398438-19.628906.703125-8.050781-2.542969-15.945313-8.710938-21.171875-3.472656-2.886719-7.183593-5.472656-11.09375-7.730469 3.191407-8.367187 6.933594-16.515625 11.203125-24.386719 4.25 3.289063 9.464844 5.085938 14.839844 5.117188h.9375c8.171875-.011719 15.832031-3.960938 20.585938-10.605469 4.757812-6.554687 6.007812-15.023437 3.34375-22.671875-1.746094-4.816406-3.953126-9.449218-6.589844-13.84375 21.664062-19.433594 49.835937-30.023437 78.933594-29.675781 102.570312 0 127.148437 108.125 128.179687 112.722656.847656 3.9375 4.328125 6.746094 8.355469 6.742188.609375-.003907 1.214844-.070313 1.808594-.195313 4.597656-.992187 7.527343-5.519531 6.546874-10.121094-.300781-1.261718-28.425781-126.2148432-144.890624-126.2148432-32.726563-.4023438-64.445313 11.3203122-89.042969 32.9101562-23.882813-25.550781-62.011719-31.742187-92.75-15.058594-30.738281 16.6875-46.320313 52.03125-37.90625 85.980469 1.476562 6.214844 3.773437 12.207031 6.828125 17.816406-15.820313 13.960938-25.210938 33.804688-25.96875 54.890625-.761719 21.082031 7.175781 41.554688 21.949218 56.617188 14.21875 14.636719 33.789063 22.855469 54.195313 22.757812 3.492187-.015625 6.976563-.261719 10.4375-.742187 19.625 111.65625 96.988281 196.53125 120.652344 220.160156 23.6875 24.890625 57.015625 38.273438 91.339843 36.667969 38.28125 0 85.332032-37.640625 85.332032-68.269531 0-2.261719-.898438-4.433594-2.496094-6.03125-1.601562-1.601563-3.773438-2.5-6.035156-2.5zm-309.136719-232.644532c-6.804687-3.066406-11.964844-8.910156-14.15625-16.042968-2.695313-8.820313-.367187-18.40625 6.074219-25.003907 2.601562-2.660156 5.742187-4.730469 9.214844-6.066406.292968-.070313.574218-.160156.855468-.265625 5.871094-2.1875 12.363282-2.019531 18.117188.460938-2.785156 16.035156-4.199219 32.28125-4.21875 48.554687-5.332032 1.164063-10.902344.589844-15.886719-1.636719zm8.59375-99.96875c-5.800781-6.363281-8.042969-15.203125-5.976563-23.5625 2.578126-10.222656 11.171876-17.8125 21.636719-19.105468 10.460938-1.296876 20.644531 3.96875 25.640625 13.253906-6.324218 10.492187-11.730468 21.507812-16.164062 32.929687-8.121094-2.585937-16.621094-3.773437-25.136719-3.515625zm-27.941406-54.296875c11.585937-14.660156 29.363281-23.054687 48.042969-22.675781 18.679687.375 36.105468 9.480469 47.089843 24.59375 3.558594 4.875 6.371094 10.25 8.34375 15.949219.828125 2.425781.421875 5.101562-1.089843 7.167969-1.535157 2.1875-4.039063 3.484374-6.710938 3.472656h-.9375c-3.640625-.171875-6.777344-2.613282-7.839844-6.101563-.09375-.242187-.199218-.484375-.316406-.714843-6.707031-17.371094-23.90625-28.386719-42.488281-27.214844s-34.261719 14.257812-38.734375 32.335937c-2.378906 10.207031-1 20.929688 3.894531 30.199219-5.550781 1.550781-10.902344 3.730469-15.960937 6.492188-1.929688-3.773438-3.417969-7.753907-4.4375-11.871094-4.417969-18.007813-.308594-37.050782 11.144531-51.632813zm-12.679688 173.046875c-12.316406-12.484375-18.535156-29.742187-17.015625-47.214844 1.519532-17.46875 10.628906-33.394531 24.917969-43.5625 1.332031-.972656 2.75-1.851562 4.214844-2.738281 7.828125-4.726562 16.667969-7.515625 25.789062-8.132812 9.703125-.78125 19.449219.828125 28.390625 4.683593.273438.171876.558594.328126.851563.46875 5.160156 2.371094 9.96875 5.445313 14.285156 9.132813 1.953125 1.636719 2.96875 4.128906 2.722656 6.664063-.265625 2.796874-1.925781 5.273437-4.410156 6.585937l-.375.257813c-3.246094 1.648437-7.167969 1.148437-9.890625-1.261719-.230469-.171875-.460938-.335938-.699219-.488281-.738281-.617188-1.511719-1.1875-2.324219-1.707032h-.042968c-11.046875-7.65625-25.105469-9.515625-37.765625-5l-.511719.160156c-.097656.035157-.191406.070313-.28125.113282-.09375 0-.1875 0-.28125.078125-.097656.074219-.136719.09375-.214844.125-20.390625 7.570312-31.761718 29.328125-26.335937 50.390625s25.894531 34.617187 47.40625 31.394531c.324219 5.613281.828125 11.304687 1.515625 17.066406-18.40625 2.601563-36.953125-3.714843-49.945313-17.015625zm0 0" />
	<path
		d="m269.316406 71.996094c19.8125 3.695312 32.988282 17.800781 38.101563 40.800781 15.5625 70.058594-55.46875 118.570313-56.152344 119.046875-3.917969 2.617188-4.976563 7.917969-2.359375 11.839844 2.621094 3.921875 7.921875 4.976562 11.839844 2.359375 3.328125-2.21875 81.460937-55.382813 63.328125-136.953125-6.605469-29.71875-24.953125-48.886719-51.628907-53.878906-37.367187-6.953126-85.160156 15.429687-108.867187 50.996093-34.355469 51.53125-36.402344 120.847657-26.863281 168.578125.8125 3.976563 4.320312 6.832032 8.382812 6.824219.570313.003906 1.144532-.054687 1.703125-.171875 4.621094-.921875 7.621094-5.414062 6.699219-10.035156-8.875-44.371094-7.132812-108.535156 24.328125-155.722656 19.816406-29.808594 60.871094-49.460938 91.488281-43.683594zm0 0" />
	<path
		d="m366.050781 362.222656c3.730469-6.03125 4.363281-13.484375 1.707031-20.058594-4.515624-9.386718-15.761718-11.734374-26.632812-14.023437-7.46875-1.570313-16.761719-3.523437-18.773438-7.3125-.917968-3.523437-.4375-7.265625 1.339844-10.445313 12.261719-30.660156 12.566406-54.613281.851563-64.167968-4.480469-3.636719-14.386719-8.097656-30.566407 2.695312l-51.199218 34.132813c-3.921875 2.617187-4.980469 7.914062-2.363282 11.835937 2.613282 3.921875 7.914063 4.980469 11.835938 2.363282l51.199219-34.132813c5.972656-3.949219 9.496093-4.335937 10.34375-3.644531 2.8125 2.28125 5.21875 16.675781-5.976563 44.570312-3.917968 7.777344-4.109375 16.910156-.527344 24.847656 5.777344 10.789063 18.773438 13.535157 30.308594 15.960938 5.164063.644531 10.164063 2.230469 14.753906 4.675781-.042968 1.804688-.585937 3.5625-1.566406 5.074219-4.105468 8.203125-21.90625 12.066406-44.332031 9.59375-42.367187-4.652344-92.476563-29.917969-101.898437-67.585938-15.359376-61.300781 44.886718-100.007812 47.457031-101.628906 4.003906-2.5 5.226562-7.777344 2.722656-11.78125-2.5-4.007812-7.773437-5.226562-11.777344-2.726562-.734375.460937-73.320312 46.804687-54.957031 120.242187 11.410156 45.636719 67.285156 74.992188 116.582031 80.410157 5.007813.554687 10.035157.839843 15.070313.851562 23.417968.054688 39.964844-6.882812 46.398437-19.746094zm0 0" />
	<path
		d="m340.253906 431.027344-19.199218-34.132813c-1.511719-2.6875-4.359376-4.351562-7.441407-4.351562h-38.402343c-3.082032 0-5.929688 1.664062-7.441407 4.351562l-19.199219 34.132813c-.101562.179687-.136718.386718-.230468.574218s-.179688.441407-.265625.671876c-.707031 1.894531-.707031 3.980468 0 5.871093.085937.230469.164062.453125.265625.675781.101562.222657.128906.390626.230468.570313l19.199219 34.132813c1.511719 2.691406 4.359375 4.355468 7.441407 4.351562h38.402343c3.082031.003906 5.929688-1.660156 7.441407-4.351562l19.199218-34.132813c.101563-.179687.144532-.382813.230469-.570313s.1875-.445312.261719-.667968c.710937-1.898438.710937-3.988282 0-5.886719-.074219-.222656-.160156-.445313-.261719-.664063-.101563-.222656-.128906-.394531-.230469-.574218zm-31.632812 29.78125h-28.417969l-9.597656-17.066406h2.492187c4.710938 0 8.53125-3.820313 8.53125-8.53125 0-4.714844-3.820312-8.535157-8.53125-8.535157h-2.476562l9.601562-17.066406h28.414063l9.601562 17.066406h-2.476562c-4.710938 0-8.53125 3.820313-8.53125 8.535157 0 4.710937 3.820312 8.53125 8.53125 8.53125h2.476562zm0 0" />
</symbol>


<symbol id="tiara" viewBox="0 -26 512.00066 512"
	xmlns="http://www.w3.org/2000/svg">
	<path
		d="m392.535156 276.480469v-11.949219c0-18.851562 15.28125-34.132812 34.132813-34.132812 2.300781-.003907 4.503906.941406 6.082031 2.613281 1.582031 1.5625 2.46875 3.695312 2.449219 5.921875.003906 2.296875-.941407 4.496094-2.609375 6.074218-1.558594 1.59375-3.695313 2.480469-5.921875 2.457032h-8.535157c-4.710937 0-8.53125 3.820312-8.53125 8.535156 0 4.710938 3.820313 8.53125 8.53125 8.53125h8.535157c14.136719 0 25.597656-11.460938 25.597656-25.597656 0-14.140625-11.460937-25.601563-25.597656-25.601563-28.265625.027344-51.171875 22.933594-51.199219 51.199219v6.640625c-8.085938-2.277344-16.617188-4.351563-25.601562-6.222656v-34.550781c0-4.710938-3.820313-8.53125-8.535157-8.53125-4.710937 0-8.53125 3.820312-8.53125 8.53125v31.429687c-8.175781-1.316406-16.707031-2.421875-25.601562-3.320313v-36.640624c0-4.714844-3.820313-8.535157-8.53125-8.535157-4.714844 0-8.535157 3.820313-8.535157 8.535157v35.25c-8.242187-.53125-16.777343-.867188-25.597656-1.007813v-93.976563c.011719-6.417968 1.488282-12.746093 4.324219-18.5 14.550781-3.234374 27.367187-11.78125 35.941406-23.972656.8125-.058594 1.546875-.195312 2.398438-.195312h17.066406c23.554687.027344 42.640625 19.113281 42.667969 42.667968 0 6.769532-2.675782 13.265626-7.441406 18.074219-10.140626 9.640625-26.046876 9.675781-36.230469.085938-4.8125-4.820313-7.519531-11.351563-7.527344-18.160157v-8.535156c0-4.710937-3.820313-8.53125-8.535156-8.53125-4.710938 0-8.53125 3.820313-8.53125 8.53125v8.535156c0 23.5625 19.101562 42.664063 42.664062 42.664063 23.566407 0 42.667969-19.101563 42.667969-42.664063-.039062-32.976562-26.757812-59.695312-59.734375-59.734374h-11.09375c1.683594-5.535157 2.542969-11.28125 2.5625-17.066407 0-31.054687-48.351563-77.765625-53.863281-82.996093-3.289063-3.113282-8.441406-3.113282-11.734375 0-5.519531 5.230468-53.871094 51.941406-53.871094 82.996093.019531 5.785157.882813 11.53125 2.5625 17.066407h-11.09375c-32.976563.039062-59.695313 26.757812-59.734375 59.734374 0 23.5625 19.101562 42.664063 42.667969 42.664063 23.5625 0 42.664062-19.101563 42.664062-42.664063v-8.535156c0-4.710937-3.820312-8.53125-8.53125-8.53125-4.714843 0-8.535156 3.820313-8.535156 8.53125v8.535156c0 6.769532-2.675781 13.265626-7.441406 18.074219-10.140625 9.640625-26.042969 9.675781-36.230469.085938-4.8125-4.820313-7.515625-11.351563-7.527344-18.160157.027344-23.554687 19.113282-42.640624 42.667969-42.667968h17.066406c.851563 0 1.585938.136718 2.398438.195312 8.574219 12.191406 21.390625 20.738282 35.941406 23.972656 2.835937 5.753907 4.316406 12.082032 4.328125 18.5v93.976563c-8.824219.136719-17.359375.472656-25.601562 1.007813v-35.25c0-4.714844-3.820313-8.535157-8.535157-8.535157-4.710937 0-8.53125 3.820313-8.53125 8.535157v36.640624c-8.886719.898438-17.417969 2.003907-25.601562 3.320313v-31.429687c0-4.710938-3.820313-8.53125-8.53125-8.53125-4.714844 0-8.535157 3.820312-8.535157 8.53125v34.550781c-8.988281 1.851562-17.519531 3.921875-25.597656 6.222656v-6.640625c-.03125-28.265625-22.9375-51.171875-51.203125-51.199219-14.136719 0-25.597656 11.460938-25.597656 25.601563 0 14.136718 11.460937 25.597656 25.597656 25.597656h8.535157c4.710937 0 8.53125-3.820312 8.53125-8.53125 0-4.714844-3.820313-8.535156-8.53125-8.535156h-8.535157c-2.300781.007812-4.5-.9375-6.082031-2.609375-1.582031-1.5625-2.464844-3.699219-2.449219-5.921875-.003906-2.300782.941407-4.496094 2.609375-6.078125 1.558594-1.589844 3.695313-2.480469 5.921875-2.457031 18.851563 0 34.136719 15.28125 34.136719 34.132812v11.949219c-62.765625 21.476562-95.292969 54.492187-109.109375 72.359375-6.757813 8.878906-10.3984375 19.734375-10.359375 30.890625v72.535156c0 4.710937 3.820312 8.53125 8.535156 8.53125 4.710938 0 8.53125-3.820313 8.53125-8.53125v-32.425781c5.417969-11.8125 53.617188-104.109375 238.933594-104.109375 185.320312 0 233.523438 92.289062 238.933594 104.109375v32.425781c0 4.710937 3.820312 8.53125 8.535156 8.53125 4.710938 0 8.53125-3.820313 8.53125-8.53125v-72.535156c.039062-11.152344-3.601562-22.007813-10.359375-30.878907-13.816406-17.878906-46.34375-50.894531-109.105469-72.371093zm-179.203125-191.148438c0-16.121093 24.160157-46.078125 42.667969-64.851562 18.507812 18.773437 42.667969 48.714843 42.667969 64.851562 0 23.5625-19.101563 42.667969-42.667969 42.667969-23.5625 0-42.667969-19.105469-42.667969-42.667969zm42.667969 213.332031c-146.421875 0-212.0625 54.460938-238.933594 88.960938v-7.894531c-.039062-7.390625 2.359375-14.589844 6.828125-20.476563 20-25.902344 82.773438-86.1875 232.105469-86.1875s212.105469 60.285156 232.105469 86.1875c4.46875 5.886719 6.867187 13.085938 6.828125 20.476563v7.902343c-26.871094-34.507812-92.511719-88.96875-238.933594-88.96875zm0 0" />
	<path
		d="m264.535156 102.398438c0-4.710938-3.820312-8.53125-8.535156-8.53125-4.566406-.03125-8.3125-3.625-8.53125-8.183594-.269531-4.667969-4.179688-8.289063-8.851562-8.203125-2.265626.082031-4.402344 1.0625-5.945313 2.726562-1.542969 1.660157-2.359375 3.867188-2.273437 6.132813.496093 13.765625 11.828124 24.652344 25.601562 24.59375 4.714844 0 8.535156-3.820313 8.535156-8.535156zm0 0" />
</symbol>


<symbol id="earrings" viewBox="0 0 512 512.00089"
	xmlns="http://www.w3.org/2000/svg">
	<path
		d="m273.585938 17.230469c-4.613282-.140625-9.089844 1.59375-12.402344 4.808593-3.316406 3.214844-5.183594 7.636719-5.183594 12.257813v16.902344h-51.199219v-17.066407c0-18.851562-15.28125-34.132812-34.132812-34.132812h-8.535157c-14.136718 0-25.597656 11.460938-25.597656 25.601562 0 4.710938 3.820313 8.53125 8.53125 8.53125 4.714844 0 8.535156-3.820312 8.535156-8.53125 0-4.714843 3.820313-8.535156 8.53125-8.535156h8.535157c9.425781 0 17.066406 7.640625 17.066406 17.066406v17.066407h-179.199219c-4.714844 0-8.535156 3.820312-8.535156 8.535156 0 4.710937 3.820312 8.53125 8.535156 8.53125h179.199219v17.066406c0 9.425781-7.640625 17.066407-17.066406 17.066407h-8.535157c-4.710937 0-8.53125-3.820313-8.53125-8.53125 0-4.714844-3.820312-8.535157-8.535156-8.535157-4.710937 0-8.53125 3.820313-8.53125 8.535157 0 14.136718 11.460938 25.597656 25.597656 25.597656h8.535157c18.851562 0 34.132812-15.28125 34.132812-34.132813v-17.066406h51.199219v17.308594c.046875 9.148437 7.285156 16.644531 16.425781 17.011719 43.097657 2.101562 83.578125 21.289062 112.480469 53.320312 28.90625 32.035156 43.851562 74.265625 41.53125 117.347656-5.046875 82.421875-70.761719 148.136719-153.183594 153.183594-56.496094 3.054688-110.5-23.5625-142.488281-70.234375-31.992187-46.667969-37.335937-106.636719-14.105469-158.230469 6.628906-15.488281 3.507813-33.425781-7.960937-45.769531-11.46875-12.339844-29.132813-16.761719-45.066407-11.285156-11.285156 3.914062-20.453124 12.320312-25.328124 23.230469-14.074219 31.589843-21.308594 65.800781-21.238282 100.386718.125 68.308594 28.367188 133.558594 78.089844 180.402344 45.667969 43.222656 106.207031 67.230469 169.085938 67.0625 5.34375 0 10.707031-.167969 16.09375-.503906 131.488281-8.519532 233.238281-118.578125 231.441406-250.328125-1.800782-131.75-106.519532-238.984375-238.191406-243.914063zm220.851562 262.058593c-5.898438 91.898438-65.953125 171.457032-152.71875 202.320313-86.761719 30.859375-183.570312 7.089844-246.175781-60.445313-62.605469-67.535156-78.980469-165.863281-41.644531-250.046874 4.136718-9.359376 13.394531-15.410157 23.628906-15.445313 8.515625.035156 16.457031 4.300781 21.1875 11.382813 4.726562 7.082031 5.628906 16.050781 2.398437 23.929687-25.664062 57.011719-19.753906 123.277344 15.589844 174.851563 35.339844 51.574218 95.007813 80.996093 157.4375 77.640624 91.113281-5.578124 163.761719-78.222656 169.34375-169.335937 2.554687-47.613281-13.972656-94.28125-45.921875-129.675781-31.949219-35.394532-76.691406-56.59375-124.316406-58.910156l-.410156 8.535156.230468-8.515625-.050781-25.601563c0-.085937.050781-.164062.050781-.246094 0-.085937-.050781-.164062-.050781-.257812l-.050781-25.191406c62.160156 2.28125 120.757812 29.601562 162.46875 75.746094 41.710937 46.140624 62.992187 107.191406 59.003906 169.265624zm0 0" />
</symbol>


<symbol id="longearrings" viewBox="-25 0 512 512.00893"
	xmlns="http://www.w3.org/2000/svg">
	<path
	d="m111.203125 477.867188c60.570313.730468 110.308594-47.695313 111.195313-108.261719 0-48.460938-71.617188-150.800781-96.289063-184.621094 17.933594-6.507813 29.339844-24.15625 27.917969-43.179687-1.421875-19.023438-15.328125-34.777344-34.027344-38.550782v-32.714844l6.390625-11.199218c7.101563-12.253906 7.046875-27.378906-.136719-39.585938-7.03125-12.285156-20.136718-19.8359372-34.292968-19.753906-17.492188.0859375-32.886719 11.542969-37.992188 28.273438-.105469.34375-.1875.699218-.246094 1.054687l-6.828125 41.371094c-2.148437 13.164062-7.097656 25.714843-14.507812 36.804687l-21.886719 32.828125c-2.613281 3.921875-1.558594 9.21875 2.363281 11.835938 3.921875 2.613281 9.222657 1.554687 11.835938-2.363281l21.914062-32.835938c8.769531-13.113281 14.617188-27.953125 17.152344-43.523438l6.742187-40.753906c3.054688-9.273437 11.6875-15.5625 21.453126-15.625 8.054687 0 15.5 4.285156 19.542968 11.25 4.042969 6.964844 4.074219 15.558594.082032 22.550782l-7.527344 13.132812c-.746094 1.296875-1.132813 2.769531-1.125 4.265625v34.988281c-18.609375 3.769532-32.472656 19.40625-33.988282 38.332032-1.515624 18.925781 9.679688 36.570312 27.453126 43.253906-21.53125 29.5-79.257813 111.789062-93.261719 164.40625 0 .066406-.042969.125-.050781.203125-1.871094 6.558593-2.90625 13.328125-3.08203175 20.148437.87890575 60.574219 50.62109375 109.003906 111.19921875 108.269532zm-.425781-59.734376c-24.179688-.859374-43.144532-21.042968-42.507813-45.226562 0-12.882812 17.203125-49.765625 42.667969-91.996094 25.457031 42.230469 42.667969 79.113282 42.667969 91.996094.636719 24.21875-18.386719 44.414062-42.597657 45.226562zm7.386718-158.105468c-1.65625-2.363282-4.363281-3.773438-7.25-3.773438-2.890624 0-5.597656 1.410156-7.253906 3.773438-8.765625 14.039062-52.5 85.417968-52.5 112.835937-.015625 10.324219 2.449219 20.496094 7.195313 29.664063-18.570313-12.082032-32.074219-30.539063-37.972657-51.890625 13.21875-45.269531 63.597657-120.082031 90.820313-157.160157 27.210937 37.070313 77.566406 111.839844 90.800781 157.117188-5.996094 21.71875-19.851562 40.429688-38.875 52.503906 4.964844-9.308594 7.554688-19.699218 7.542969-30.25 0-27.417968-43.734375-98.800781-52.507813-112.835937zm-6.960937 200.773437c-44.277344.449219-82.804687-30.207031-92.3125-73.453125 20.78125 29.824219 54.789063 47.65625 91.144531 47.785156.304688 0 .59375.050782.902344.050782h.257812c36.785157.21875 71.320313-17.695313 92.328126-47.898438-9.488282 43.273438-48.023438 73.957032-92.320313 73.515625zm-25.335937-315.734375c0-14.136718 11.460937-25.597656 25.601562-25.597656 14.136719 0 25.597656 11.460938 25.597656 25.597656 0 14.140625-11.460937 25.601563-25.597656 25.601563-14.140625 0-25.601562-11.460938-25.601562-25.601563zm0 0" />
	<path
	d="m350.136719 512c60.570312.730469 110.308593-47.691406 111.195312-108.261719 0-48.460937-71.617187-150.800781-96.289062-184.617187 17.933593-6.511719 29.339843-24.160156 27.917969-43.183594-1.421876-19.023438-15.328126-34.777344-34.027344-38.550781v-32.714844l6.390625-11.195313c7.015625-12.277343 6.964843-27.355468-.128907-39.585937-7.097656-12.226563-20.164062-19.753906-34.300781-19.757813-17.492187.085938-32.890625 11.542969-37.992187 28.273438-.105469.347656-.1875.699219-.246094 1.058594l-6.828125 41.367187c-2.148437 13.164063-7.097656 25.714844-14.507813 36.804688l-21.886718 32.828125c-2.617188 3.921875-1.558594 9.21875 2.363281 11.835937 3.921875 2.613281 9.222656 1.558594 11.835937-2.363281l21.914063-32.835938c8.769531-13.113281 14.617187-27.953124 17.152344-43.519531l6.742187-40.757812c3.054688-9.273438 11.6875-15.5625 21.453125-15.625 8.050781 0 15.5 4.285156 19.542969 11.25 4.042969 6.964843 4.074219 15.558593.082031 22.550781l-7.527343 13.132812c-.746094 1.300782-1.132813 2.769532-1.125 4.269532v34.984375c-18.609376 3.773437-32.472657 19.40625-33.988282 38.332031s9.679688 36.570312 27.453125 43.253906c-21.53125 29.5-79.257812 111.789063-93.261719 164.40625 0 .066406 0 .125-.050781.203125-1.875 6.558594-2.910156 13.328125-3.082031 20.148438.878906 60.574219 50.621094 109.003906 111.199219 108.269531zm-.425781-59.734375c-24.179688-.859375-43.144532-21.042969-42.507813-45.226563 0-12.882812 17.203125-49.765624 42.667969-91.996093 25.453125 42.230469 42.667968 79.113281 42.667968 91.996093.636719 24.21875-18.386718 44.417969-42.601562 45.226563zm7.386718-158.105469c-1.660156-2.347656-4.355468-3.742187-7.230468-3.742187s-5.570313 1.394531-7.230469 3.742187c-8.765625 14.039063-52.5 85.421875-52.5 112.835938-.015625 10.324218 2.449219 20.496094 7.195312 29.664062-18.582031-12.070312-32.105469-30.519531-38.015625-51.875 13.21875-45.269531 63.597656-120.082031 90.820313-157.15625 27.210937 37.066406 77.566406 111.835938 90.800781 157.113282-5.996094 21.71875-19.851562 40.433593-38.875 52.507812 4.964844-9.308594 7.554688-19.703125 7.542969-30.253906 0-27.433594-43.734375-98.8125-52.507813-112.851563zm-6.960937 200.773438c-44.277344.449218-82.804688-30.207032-92.316407-73.453125 20.785157 29.824219 54.792969 47.65625 91.144532 47.785156.308594 0 .597656.050781.90625.050781h.257812c36.785156.21875 71.320313-17.695312 92.328125-47.898437-9.488281 43.273437-48.023437 73.957031-92.320312 73.515625zm-25.335938-315.734375c0-14.136719 11.460938-25.597657 25.597657-25.597657 14.140624 0 25.601562 11.460938 25.601562 25.597657 0 14.140625-11.460938 25.601562-25.601562 25.601562-14.136719 0-25.597657-11.460937-25.597657-25.601562zm0 0" />
</symbol>


<symbol version="1.1" id="electronic" xmlns="http://www.w3.org/2000/svg" xmlns:xlink="http://www.w3.org/1999/xlink" x="0px" y="0px"
	 viewBox="0 0 321.145 321.145" style="enable-background:new 0 0 321.145 321.145;" xml:space="preserve">
<g>
	<g>
		<path d="M320.973,200.981c-0.8-18.4-4-38.8-8.8-58c-4.8-18.4-10.8-35.6-18-48.8c-28-49.2-58.4-41.6-94.8-32
			c-11.6,2.8-24,6-36.8,7.2h-4c-12.8-1.2-25.2-4.4-36.8-7.2c-36.4-9.2-66.8-17.2-94.8,32.4c-7.2,13.2-13.6,30.4-18,48.8
			c-4.8,19.2-8,39.6-8.8,58c-0.8,20.4,1.2,35.2,5.6,45.6c4.4,9.6,10.8,15.6,19.2,18c7.6,2,16.4,1.2,25.6-2.8
			c15.6-6.4,33.6-20,51.2-36.4c12.4-12,35.6-18,58.8-18s46.4,6,58.8,18c17.6,16.4,35.6,30,51.2,36.4c9.2,3.6,18,4.8,25.6,2.8
			c8-2.4,14.8-8,19.2-18.4C319.773,236.581,321.773,221.781,320.973,200.981z M301.773,240.981c-2.4,5.6-5.6,8.8-9.6,10
			c-4.4,1.2-10,0.4-16.4-2c-14-5.6-30.4-18-46.4-33.2c-15.2-15.2-42-22.8-68.8-22.8s-53.6,7.6-69.2,22c-16.4,15.2-32.8,28-46.4,33.2
			c-6.4,2.4-12,3.6-16.4,2c-4-1.2-7.2-4.4-9.6-10c-3.2-7.6-4.8-20-4-38.4c0.8-17.2,3.6-36.8,8.4-55.2c4.4-17.2,10-33.2,16.8-45.2
			c22-39.6,47.6-33.2,78-25.2c12.4,3.2,25.2,6.4,39.2,7.6c0.4,0,0.4,0,0.8,0h4.4c0.4,0,0.4,0,0.8,0c14.4-1.2,27.2-4.4,39.6-7.6
			c30.4-7.6,56-14.4,78,25.2c6.8,12,12.4,27.6,16.8,45.2c4.4,18.4,7.6,37.6,8.4,55.2
			C306.973,220.181,305.373,232.581,301.773,240.981z"/>
	</g>
</g>
<g>
	<g>
		<path d="M123.773,122.981c-4-3.6-8.8-6.4-14.4-6.8c-0.4-5.2-2.8-10.4-6.4-14l-0.4-0.4c-4.4-4.4-10-6.8-16.4-6.8
			c-6.4,0-12.4,2.8-16.4,6.8c-3.6,3.6-6.4,8.8-6.8,14.4c-5.6,0.4-10.4,2.8-14.4,6.4l-0.4,0.4c-4.4,4.4-6.8,10-6.8,16.4
			c0,6.4,2.8,12.4,6.8,16.4c4,4,8.8,6.4,14.8,6.8c0.4,5.6,2.8,10.8,6.8,14.4c4.4,4.4,10,6.8,16.4,6.8c6.4,0,12.4-2.8,16.4-6.8
			c3.6-4,6.4-8.8,6.8-14.4c5.6-0.4,10.8-2.8,14.4-6.8c4.4-4.4,6.8-10,6.8-16.4C130.573,132.981,127.773,126.981,123.773,122.981z
			 M113.773,145.381c-1.6,1.6-3.6,2.4-6,2.4h-5.6c-4,0-7.6,3.2-7.6,7.6v5.2c0,2.4-0.8,4.4-2.4,6c-1.6,1.6-3.6,2.4-6,2.4
			c-2.4,0-4.4-0.8-6-2.4c-1.6-1.6-2.4-3.6-2.4-6v-5.6c0-4-3.2-7.6-7.6-7.6h-5.6c-2.4,0-4.4-0.8-6-2.4c-1.2-1.2-2.4-3.2-2.4-5.6
			c0-2.4,0.8-4.4,2.4-6c0,0,0,0,0.4-0.4c1.6-1.2,3.6-2,5.6-2h5.6c4,0,7.6-3.2,7.6-7.6v-5.6c0-2.4,0.8-4.4,2.4-6
			c1.6-1.6,3.6-2.4,6-2.4c2.4,0,4.4,0.8,6,2.4c0,0,0,0,0.4,0.4c1.2,1.6,2,3.6,2,5.6v5.6c0,4,3.2,7.6,7.6,7.6h5.6
			c2.4,0,4.4,0.8,6,2.4c1.6,1.6,2.4,3.6,2.4,6C116.173,141.781,115.373,143.781,113.773,145.381z"/>
	</g>
</g>
<g>
	<g>
		<circle cx="230.173" cy="110.981" r="14"/>
	</g>
</g>
<g>
	<g>
		<circle cx="230.173" cy="167.781" r="14"/>
	</g>
</g>
<g>
	<g>
		<circle cx="201.773" cy="139.381" r="14"/>
	</g>
</g>
<g>
	<g>
		<circle cx="258.573" cy="139.381" r="14"/>
	</g>
</g>
</symbol>



<symbol viewBox="0 0 74 74" id="phone" xmlns="http://www.w3.org/2000/svg"><g id="Icons"><path d="m56.5 34.47a1 1 0 0 1 -1-1v-2.91a1 1 0 0 1 2 0v2.91a1 1 0 0 1 -1 1z"/><path d="m53.5 72h-33a4 4 0 0 1 -4-4v-62a4 4 0 0 1 4-4h33a4 4 0 0 1 4 4v17.56a1 1 0 1 1 -2 0v-17.56a2 2 0 0 0 -2-2h-33a2 2 0 0 0 -2 2v62a2 2 0 0 0 2 2h33a2 2 0 0 0 2-2v-17.56a1 1 0 0 1 2 0v17.56a4 4 0 0 1 -4 4z"/><path d="m56.5 44.44a1 1 0 0 1 -1-1v-2.97a1 1 0 0 1 2 0v2.97a1 1 0 0 1 -1 1z"/><path d="m56.5 14.01h-39a1 1 0 0 1 0-2h39a1 1 0 0 1 0 2z"/><path d="m56.5 60.01h-39a1 1 0 1 1 0-2h39a1 1 0 0 1 0 2z"/><path d="m37.167 9.005h-5.667a1 1 0 1 1 0-2h5.667a1 1 0 0 1 0 2z"/><path d="m41.5 9.005h-.667a1 1 0 1 1 0-2h.667a1 1 0 0 1 0 2z"/><path d="m36.5 68.275a3.271 3.271 0 1 1 3.271-3.27 3.275 3.275 0 0 1 -3.271 3.27zm0-4.541a1.271 1.271 0 1 0 1.271 1.271 1.272 1.272 0 0 0 -1.271-1.271z"/><path d="m30.2 40.433a4.423 4.423 0 1 1 4.423-4.423 4.428 4.428 0 0 1 -4.423 4.423zm0-6.846a2.423 2.423 0 1 0 2.423 2.423 2.426 2.426 0 0 0 -2.423-2.423z"/><path d="m43.8 33.438a4.423 4.423 0 1 1 4.423-4.423 4.428 4.428 0 0 1 -4.423 4.423zm0-6.846a2.423 2.423 0 1 0 2.423 2.423 2.426 2.426 0 0 0 -2.423-2.423z"/><path d="m43.8 47.428a4.423 4.423 0 1 1 4.423-4.423 4.428 4.428 0 0 1 -4.423 4.423zm0-6.846a2.423 2.423 0 1 0 2.423 2.423 2.426 2.426 0 0 0 -2.423-2.423z"/><path d="m33 35.043a1 1 0 0 1 -.4-1.916l7.767-3.427a1 1 0 1 1 .807 1.83l-7.768 3.429a1.009 1.009 0 0 1 -.406.084z"/><path d="m40.77 42.407a.994.994 0 0 1 -.4-.086l-7.77-3.428a1 1 0 0 1 .807-1.831l7.768 3.429a1 1 0 0 1 -.4 1.916z"/></g></symbol>


<symbol version="1.1" id="tv" xmlns="http://www.w3.org/2000/svg" xmlns:xlink="http://www.w3.org/1999/xlink" x="0px" y="0px"
	 viewBox="0 0 480 480" style="enable-background:new 0 0 480 480;" xml:space="preserve">
<g>
	<g>
		<path d="M480,368V64H0v304h184v32h-56v16h240v-16h-72v-32H480z M280,400h-80v-32h80V400z M16,352V80h448v272H16z"/>
	</g>
</g>
</symbol>


<symbol xmlns="http://www.w3.org/2000/svg" id="women" viewBox="0 0 512 512"><path d="M407.5,453.222,328,238.566V208c0-17.882,3.289-28.534,7.1-40.869C339.271,153.617,344,138.3,344,112c0-27.968-23.549-88.362-24.552-90.92A8,8,0,0,0,312,16H288a8,8,0,0,0-7.951,7.117l-2.074,18.662A291.853,291.853,0,0,1,256,125.021a291.853,291.853,0,0,1-21.975-83.242l-2.074-18.662A8,8,0,0,0,224,16H200a8,8,0,0,0-7.448,5.08C191.549,23.638,168,84.032,168,112c0,26.3,4.729,41.617,8.9,55.131,3.809,12.335,7.1,22.987,7.1,40.869v30.566L104.5,453.222a8,8,0,0,0,3.924,9.933C111.1,464.5,175.042,496,256,496s144.9-31.5,147.578-32.845A8,8,0,0,0,407.5,453.222ZM205.516,32H216.84l1.283,11.546a307.92,307.92,0,0,0,30.722,104.032,8,8,0,0,0,14.31,0A307.92,307.92,0,0,0,293.877,43.546L295.16,32h11.325c2.236,5.972,6.1,16.589,9.926,28.492C323.993,84.074,328,101.885,328,112c0,23.886-4.164,37.371-8.19,50.411C316.5,173.126,313.1,184.168,312.224,200H199.776c-.878-15.832-4.277-26.874-7.586-37.589C188.164,149.371,184,135.886,184,112,184,91.343,199.9,47.005,205.516,32ZM200,232V216H312v16Zm56,248c-62.682,0-115.917-20.422-133.914-28.2L197.568,248H214.1L192.178,350.324l15.644,3.352L230.467,248H248v64h16V248h17.533l22.645,105.676,15.644-3.352L297.9,248h16.536l75.482,203.8C371.915,459.579,318.682,480,256,480Z"/></symbol>


<symbol version="1.1" id="men" xmlns="http://www.w3.org/2000/svg" xmlns:xlink="http://www.w3.org/1999/xlink" x="0px" y="0px"
	 viewBox="0 0 412.177 412.177" style="enable-background:new 0 0 412.177 412.177;" xml:space="preserve">
<g>
	<g>
		<g>
			<path d="M219.089,118.7c-1.32,0-2.601-0.539-3.54-1.469c-0.93-0.92-1.46-2.211-1.46-3.531c0-1.319,0.53-2.609,1.46-3.539
				c0.93-0.93,2.22-1.461,3.54-1.461c1.319,0,2.609,0.531,3.53,1.461c0.939,0.939,1.47,2.22,1.47,3.539
				c0,1.311-0.53,2.601-1.47,3.531C221.688,118.161,220.408,118.7,219.089,118.7z"/>
		</g>
		<path d="M394.979,159.654l-51.07-101.172c-1.734-5.758-8.383-14.839-41.633-28.439c-14.847-6.072-29.102-10.62-34.093-12.161
			c-3.997-6.169-10.186-11.851-18.615-17.121l-0.026,0.009C248.78,0.29,247.887,0,246.918,0H165.26
			c-0.971,0-1.867,0.285-2.629,0.768l-0.021-0.007c-8.43,5.27-14.618,10.952-18.614,17.12c-4.99,1.542-19.247,6.089-34.095,12.162
			c-33.251,13.6-39.898,22.682-41.632,28.44l-51.07,101.172c-0.604,1.196-0.702,2.585-0.273,3.855
			c0.429,1.27,1.35,2.313,2.555,2.897l72.827,35.306v200.055c0,2.115,1.33,4.002,3.322,4.711c1.639,0.583,18.656,5.699,110.452,5.7
			c0.002,0,0.004,0,0.007,0c0.002,0,0.004,0,0.006,0c91.799-0.001,108.815-5.117,110.454-5.7c1.992-0.709,3.322-2.596,3.322-4.711
			V201.711l72.826-35.306c1.205-0.585,2.126-1.628,2.555-2.897C395.681,162.239,395.583,160.85,394.979,159.654z M339.492,71.922
			l36.848,72.996l-56.469,27.625V148.08C319.871,121.419,332.637,87.961,339.492,71.922z M249.408,12.739
			c10.899,8.131,15.376,16.84,14.028,27.079c-1.465,11.138-7.808,37.162-10.516,48.023l-28.27-7.512L249.408,12.739z
			 M213.595,81.441l-7.506,10.913l-7.503-10.912L177.827,24.77h56.524L213.595,81.441z M239.762,10l-1.747,4.77h-63.851L172.417,10
			H239.762z M162.769,12.739l24.759,67.59l-28.271,7.512c-2.708-10.862-9.05-36.884-10.516-48.023
			C147.394,29.579,151.872,20.87,162.769,12.739z M92.307,190.598l-63.893-30.975l2.916-5.777l60.977,29.83V190.598z
			 M92.307,172.543l-56.47-27.625l36.85-72.999c6.854,16.03,19.62,49.472,19.62,76.16V172.543z M309.871,148.08v249.674
			c-8.228,1.426-33.847,4.424-103.782,4.424c-69.934,0-95.554-2.998-103.781-4.424V148.08c0-34.69-19.279-78.04-23.909-87.951
			c4.825-8.284,32.853-21.082,60.687-30.214c-0.684,3.584-0.77,7.315-0.258,11.207c1.944,14.778,11.563,52.492,11.973,54.091
			c0.33,1.292,1.163,2.399,2.314,3.075c0.773,0.453,2.419,0.961,3.814,0.52l35.057-9.314l9.098,13.23v40.921c0,2.761,2.238,5,5,5
			c2.762,0,5-2.239,5-5v-40.903l9.112-13.248l35.056,9.314c0.423,0.111,2.419,0.498,3.813-0.52c1.365-0.997,1.984-1.782,2.315-3.075
			c0.409-1.599,10.029-39.313,11.973-54.09c0.513-3.893,0.427-7.626-0.258-11.211c27.834,9.129,55.863,21.929,60.686,30.217
			C329.149,70.039,309.871,113.389,309.871,148.08z M319.871,190.598v-6.922l60.976-29.83l2.916,5.777L319.871,190.598z"/>
	</g>
</g>
</symbol>


<symbol id="toys" viewBox="0 0 74 74" xmlns="http://www.w3.org/2000/svg"><path d="m37 38.088c-10.814 0-19.612-7.4-19.612-16.486s8.798-16.486 19.612-16.486 19.612 7.4 19.612 16.486-8.798 16.486-19.612 16.486zm0-30.972c-9.711 0-17.612 6.5-17.612 14.486s7.901 14.486 17.612 14.486 17.612-6.5 17.612-14.486-7.901-14.486-17.612-14.486z"/><path d="m55.149 52.37a1 1 0 0 1 -.993-.894l-.52-4.87a1 1 0 0 1 1.308-1.055l6.26 2.07a3.865 3.865 0 0 0 .736.08 3.532 3.532 0 0 0 1.213-6.842l-14.692-6.4a1 1 0 0 1 .8-1.833l14.639 6.374a5.531 5.531 0 0 1 -1.96 10.7 5.734 5.734 0 0 1 -1.273-.156l-4.878-1.609.355 3.329a1 1 0 0 1 -.888 1.1.988.988 0 0 1 -.107.006z"/><path d="m18.851 52.37a.988.988 0 0 1 -.107-.006 1 1 0 0 1 -.888-1.1l.355-3.328-4.787 1.583a5.8 5.8 0 0 1 -1.364.181 5.532 5.532 0 0 1 -1.907-10.718l14.588-6.358a1 1 0 1 1 .8 1.833l-14.641 6.379a3.533 3.533 0 0 0 1.16 6.864 3.759 3.759 0 0 0 .827-.1l6.169-2.044a1 1 0 0 1 1.308 1.055l-.52 4.87a1 1 0 0 1 -.993.889z"/><path d="m51.876 72a7.48 7.48 0 0 1 -3.244-.729c-4.472-2.138-5.946-8.4-3.287-13.968s8.461-8.353 12.933-6.216c4.472 2.138 5.946 8.4 3.287 13.968a12.677 12.677 0 0 1 -5.675 5.954 9.051 9.051 0 0 1 -4.014.991zm3.154-19.639c-2.975 0-6.17 2.227-7.88 5.8-2.184 4.569-1.132 9.639 2.344 11.3a6.211 6.211 0 0 0 5.506-.24 10.673 10.673 0 0 0 4.761-5.021c2.184-4.569 1.132-9.639-2.344-11.3a5.5 5.5 0 0 0 -2.386-.535z"/><path d="m22.124 72a9.051 9.051 0 0 1 -4.014-.991 12.677 12.677 0 0 1 -5.675-5.954c-2.659-5.564-1.185-11.83 3.287-13.968 4.474-2.139 10.274.651 12.933 6.216s1.186 11.83-3.287 13.968a7.481 7.481 0 0 1 -3.244.729zm-5.541-19.1c-3.477 1.662-4.528 6.731-2.344 11.3a10.673 10.673 0 0 0 4.761 5.021 6.214 6.214 0 0 0 5.508.25c3.477-1.662 4.528-6.731 2.344-11.3s-6.79-6.937-10.266-5.273z"/><path d="m43.041 71.469h-11.862a7.611 7.611 0 0 1 -4.13-1.215l-.744-.479a1 1 0 1 1 1.083-1.682l.744.479a5.617 5.617 0 0 0 3.047.9h11.862a3.748 3.748 0 0 0 1.649-.353l2.149-.975a1 1 0 1 1 .826 1.821l-2.125.964a5.7 5.7 0 0 1 -2.499.54z"/><path d="m54.75 17.96a1 1 0 0 1 -.325-1.946 6.175 6.175 0 1 0 -7.857-7.814 1 1 0 0 1 -1.9-.635 8.174 8.174 0 1 1 10.4 10.343 1 1 0 0 1 -.318.052z"/><path d="m19.25 17.96a1 1 0 0 1 -.325-.055 8.175 8.175 0 1 1 10.4-10.343 1 1 0 1 1 -1.9.635 6.174 6.174 0 1 0 -7.856 7.817 1 1 0 0 1 -.325 1.946z"/><path d="m44.021 20.531c-1.687 0-3.009-1.627-3.009-3.705s1.322-3.7 3.009-3.7 3.009 1.627 3.009 3.7-1.322 3.705-3.009 3.705zm0-5.41c-.476 0-1.009.729-1.009 1.7s.533 1.705 1.009 1.705 1.009-.729 1.009-1.705-.53-1.699-1.009-1.699z"/><path d="m29.979 20.531c-1.687 0-3.009-1.627-3.009-3.705s1.322-3.7 3.009-3.7 3.009 1.627 3.009 3.7-1.322 3.705-3.009 3.705zm0-5.41c-.476 0-1.009.729-1.009 1.7s.533 1.705 1.009 1.705 1.009-.729 1.009-1.705-.533-1.699-1.009-1.699z"/><path d="m37.018 29.326a3.14 3.14 0 0 1 -1.605-.441 11.573 11.573 0 0 1 -2.8-2.312 3.041 3.041 0 0 1 -.589-2.977 3.1 3.1 0 0 1 2.276-2.086 12.272 12.272 0 0 1 5.383.024 3.13 3.13 0 0 1 2.3 2.1 3.03 3.03 0 0 1 -.582 2.959 11.093 11.093 0 0 1 -2.808 2.307 3.128 3.128 0 0 1 -1.575.426zm-.1-6.1a10.077 10.077 0 0 0 -2.185.241 1.114 1.114 0 0 0 -.815.756 1.055 1.055 0 0 0 .195 1.037 9.566 9.566 0 0 0 2.319 1.91 1.148 1.148 0 0 0 1.15.007 9.121 9.121 0 0 0 2.307-1.89 1.044 1.044 0 0 0 .191-1.023 1.146 1.146 0 0 0 -.838-.774 10.589 10.589 0 0 0 -2.32-.268z"/><path d="m37 32.906a1 1 0 0 1 -1-1v-3.582a1 1 0 0 1 2 0v3.582a1 1 0 0 1 -1 1z"/><path d="m37 32.909a10.606 10.606 0 0 1 -5.235-1.464 1 1 0 1 1 .979-1.743 8.109 8.109 0 0 0 8.511 0 1 1 0 1 1 .979 1.743 10.606 10.606 0 0 1 -5.234 1.464z"/><path d="m33.619 57.837a1 1 0 0 1 -.653-.243c-.657-.567-6.431-5.656-6.7-9.628a4.7 4.7 0 0 1 4.617-5.017 4.4 4.4 0 0 1 2.741.968 4.4 4.4 0 0 1 2.741-.968 4.7 4.7 0 0 1 4.616 5.016c-.274 3.973-6.047 9.061-6.7 9.628a1 1 0 0 1 -.662.244zm-2.742-12.888a2.619 2.619 0 0 0 -1.9.852 2.677 2.677 0 0 0 -.726 2.027c.163 2.361 3.483 5.912 5.362 7.663 1.88-1.752 5.2-5.305 5.363-7.663a2.676 2.676 0 0 0 -.726-2.027 2.618 2.618 0 0 0 -1.9-.852 2.5 2.5 0 0 0 -1.956 1 1.035 1.035 0 0 1 -1.571 0 2.469 2.469 0 0 0 -1.946-1z"/><path d="m38.441 59.051a1 1 0 0 1 -.653-.243 31.463 31.463 0 0 1 -3.059-3.108 1 1 0 0 1 1.523-1.295 29.727 29.727 0 0 0 2.192 2.295c1.642-1.543 4.415-4.538 4.551-6.518a2.213 2.213 0 0 0 -.6-1.674 2.11 2.11 0 0 0 -2.161-.607 1 1 0 0 1 -.627-1.9 4.141 4.141 0 0 1 4.249 1.141 4.191 4.191 0 0 1 1.135 3.176c-.242 3.517-5.318 7.991-5.9 8.49a1 1 0 0 1 -.65.243z"/></symbol>


<symbol viewBox="0 0 74 74" id="books" xmlns="http://www.w3.org/2000/svg"><g id="Icons"><path d="m10.78 65.938a1 1 0 0 1 -1-1v-56.838a6.1 6.1 0 0 1 6.1-6.1h46.559a1 1 0 0 1 1 1v55.876a1 1 0 0 1 -2 0v-54.876h-45.563a4.1 4.1 0 0 0 -4.1 4.1v56.838a1 1 0 0 1 -.996 1z"/><path d="m10.78 65.938a1 1 0 0 1 -1-1v-56.838a6.1 6.1 0 0 1 6.1-6.1h6.32a1 1 0 0 1 1 1v55.876a1 1 0 0 1 -2 0v-54.876h-5.324a4.1 4.1 0 0 0 -4.1 4.1v56.838a1 1 0 0 1 -.996 1z"/><path d="m62.439 72h-45.6a7.062 7.062 0 1 1 0-14.124h45.6a1 1 0 0 1 .814 1.582c-2.637 3.688-2.637 7.272 0 10.96a1 1 0 0 1 -.814 1.582zm-45.6-12.124a5.062 5.062 0 1 0 0 10.124h43.793a10.04 10.04 0 0 1 0-10.124z"/><path d="m54.985 65.938h-38.142a1 1 0 0 1 0-2h38.142a1 1 0 0 1 0 2z"/><path d="m62.439 17.413a1 1 0 0 1 -.707-.293l-13.412-13.413a1 1 0 0 1 1.414-1.414l13.412 13.413a1 1 0 0 1 -.707 1.707z"/><path d="m50.232 45.125h-17.286a1 1 0 0 1 -1-1v-8.647a6.053 6.053 0 0 1 2.806-11.241 6.839 6.839 0 0 1 13.665 0 6.05 6.05 0 0 1 2.815 11.231v8.657a1 1 0 0 1 -1 1zm-16.286-2h15.286v-8.259a1 1 0 0 1 .584-.91 4.049 4.049 0 0 0 -1.7-7.727 3.819 3.819 0 0 0 -.586.063 1 1 0 0 1 -1.146-1.1 6.183 6.183 0 0 0 .04-.658 4.84 4.84 0 0 0 -9.679 0 5.92 5.92 0 0 0 .05.658 1 1 0 0 1 -1.142 1.1 4.042 4.042 0 0 0 -2.291 7.673 1 1 0 0 1 .584.91z"/><path d="m36.717 27.771a1 1 0 0 1 -.634-.227 3.86 3.86 0 0 1 -1.261-2.034 1 1 0 0 1 1.955-.424 1.883 1.883 0 0 0 .576.913 1 1 0 0 1 -.636 1.772z"/><path d="m46.452 27.771a1 1 0 0 1 -.636-1.771 1.892 1.892 0 0 0 .574-.9 1 1 0 0 1 1.957.413 3.867 3.867 0 0 1 -1.261 2.034 1 1 0 0 1 -.634.224z"/><path d="m47.965 36.385h-.049a1 1 0 0 1 .007-2h.042a3.7 3.7 0 0 0 1.751-.375 1 1 0 0 1 1.367.343 1 1 0 0 1 -.322 1.362 5.54 5.54 0 0 1 -2.796.67z"/><path d="m35.205 36.385a5.541 5.541 0 0 1 -2.8-.67 1 1 0 0 1 1.047-1.705 3.886 3.886 0 0 0 1.785.375h.007a1 1 0 0 1 .007 2z"/></g></symbol>


<symbol version="1.1" id="decor" xmlns="http://www.w3.org/2000/svg" xmlns:xlink="http://www.w3.org/1999/xlink" x="0px" y="0px"
	 viewBox="0 0 512 512" style="enable-background:new 0 0 512 512;" xml:space="preserve">
<g>
	<g>
		<path d="M482.002,206.004h-73.771l-13.67-22.167c-4.843-7.851-12.119-13.535-20.55-16.345v-41.482h53.995
			c3.223,0,6.247-1.554,8.126-4.173c1.878-2.619,2.379-5.983,1.345-9.034L401.574,6.813c-1.376-4.061-5.186-6.791-9.471-6.791
			h-92.178c-4.286,0-8.095,2.731-9.471,6.791L254.55,112.804c-1.034,3.052-0.533,6.415,1.345,9.034
			c1.879,2.619,4.904,4.173,8.126,4.173v19.748c0,5.522,4.478,9.999,9.999,9.999s9.999-4.478,9.999-9.999v-19.748h33.997v41.482
			c-8.43,2.809-15.707,8.492-20.55,16.345l-13.67,22.167h-73.771c-16.541,0-29.997,13.457-29.997,29.997
			s13.457,29.998,29.997,29.998h6v235.98c0,5.522,4.478,9.999,9.999,9.999h39.997c5.522,0,9.999-4.478,9.999-9.999v-83.993h139.988
			v83.993c0,5.522,4.478,9.999,9.999,9.999h39.997c5.522,0,9.999-4.478,9.999-9.999v-235.98h5.999
			c16.541,0,29.997-13.457,29.997-29.998S498.543,206.004,482.002,206.004z M277.965,106.013l29.131-85.993h77.837l29.131,85.993
			H277.965z M354.013,126.011v39.498h-15.999v-39.498H354.013z M314.489,194.335c3.409-5.527,9.321-8.827,15.815-8.827h31.42
			c6.494,0,12.407,3.301,15.816,8.827l6.889,11.171h-76.83L314.489,194.335z M256.021,491.98h-19.998v-73.994h19.998V491.98z
			 M456.005,491.98h-19.998v-73.994h19.998V491.98z M482.002,246.001h-92.993c-5.522,0-9.999,4.478-9.999,9.999
			c0,5.522,4.478,9.999,9.999,9.999h66.995v131.989h-29.997H266.021h-29.997V265.999h69.993c5.521,0,9.999-4.478,9.999-9.999
			c0-5.521-4.478-9.999-9.999-9.999h-95.991c-5.514,0-9.999-4.486-9.999-9.999s4.486-9.999,9.999-9.999h271.977
			c5.514,0,9.999,4.486,9.999,9.999S487.516,246.001,482.002,246.001z"/>
	</g>
</g>
<g>
	<g>
		<path d="M353.081,248.931c-1.859-1.86-4.439-2.93-7.068-2.93c-2.63,0-5.21,1.069-7.069,2.93s-2.93,4.44-2.93,7.069
			c0,2.63,1.069,5.21,2.93,7.068c1.86,1.861,4.44,2.931,7.069,2.931c2.63,0,5.21-1.07,7.068-2.931
			c1.86-1.859,2.931-4.439,2.931-7.068C356.012,253.37,354.942,250.79,353.081,248.931z"/>
	</g>
</g>
<g>
	<g>
		<path d="M364.012,301.996h-35.997c-5.522,0-9.999,4.478-9.999,9.999s4.478,9.999,9.999,9.999h35.997
			c5.522,0,9.999-4.478,9.999-9.999S369.534,301.996,364.012,301.996z"/>
	</g>
</g>
<g>
	<g>
		<path d="M169.35,319.23c-1.893-2.061-4.564-3.235-7.363-3.235H95.992v-16.892c42.697-4.973,75.952-41.341,75.952-85.35
			c0-24.492-10.553-47.791-28.62-64.006c5.083-9.413,7.734-19.903,7.734-30.808c0-35.878-29.188-65.065-65.065-65.065
			s-65.066,29.188-65.066,65.065c0,10.904,2.652,21.395,7.734,30.809c-18.068,16.213-28.62,39.512-28.62,64.005
			c0,44.009,33.254,80.378,75.952,85.35v16.892H9.999c-2.8,0-5.471,1.174-7.364,3.235c-1.894,2.063-2.836,4.823-2.599,7.612
			l14.985,175.985c0.44,5.175,4.77,9.15,9.963,9.15h122.017c5.194,0,9.522-3.977,9.963-9.15l14.985-175.985
			C172.186,324.052,171.244,321.291,169.35,319.23z M75.992,211.004v67.945c-31.636-4.833-55.951-32.227-55.951-65.196
			c0-21.236,10.345-41.307,27.673-53.687c2.19-1.565,3.657-3.946,4.068-6.605c0.412-2.66-0.266-5.374-1.88-7.526
			c-5.872-7.835-8.976-17.17-8.976-26.994c0-24.851,20.217-45.067,45.067-45.067s45.067,20.217,45.067,45.067
			c0,9.823-3.104,19.157-8.977,26.994c-1.613,2.154-2.291,4.867-1.879,7.526c0.411,2.66,1.878,5.041,4.068,6.604
			c17.328,12.383,27.673,32.452,27.673,53.687c0,32.967-24.315,60.363-55.953,65.196v-67.945c0-5.521-4.478-9.999-9.999-9.999
			S75.992,205.482,75.992,211.004z M148.885,362.003H95.034c-5.522,0-9.999,4.478-9.999,9.999s4.478,9.999,9.999,9.999h52.148
			l-9.364,109.979H34.168L20.886,335.993H151.1L148.885,362.003z"/>
	</g>
</g>
<g>
	<g>
		<path d="M66.105,364.931c-1.859-1.859-4.439-2.93-7.068-2.93s-5.21,1.07-7.069,2.93c-1.86,1.86-2.93,4.44-2.93,7.069
			c0,2.63,1.069,5.21,2.93,7.069c1.86,1.859,4.44,2.93,7.069,2.93s5.21-1.07,7.068-2.93c1.86-1.86,2.931-4.44,2.931-7.069
			C69.036,369.37,67.966,366.791,66.105,364.931z"/>
	</g>
</g>
</symbol>

<symbol version="1.1" id="iron" xmlns="http://www.w3.org/2000/svg" xmlns:xlink="http://www.w3.org/1999/xlink" x="0px" y="0px"
	 viewBox="0 0 512 512" style="enable-background:new 0 0 512 512;" xml:space="preserve">
<g>
	<g>
		<path d="M511.852,356.833c-1.858-55.019-23.253-106.733-60.978-147.632v-46.197c0-10.082-8.203-18.286-18.286-18.286h-16.718
			c-10.082,0-18.286,8.203-18.286,18.286v2.806c-37.623-22.583-81.057-34.675-126.408-34.675H132.348
			c-10.848,0-20.653,6.001-25.589,15.662l-4.276,8.371H56.947v14.935c-7.203,0-13.061-5.859-13.061-13.061v-18.069
			c0-15.844-12.89-28.735-28.735-28.735H0v15.673h15.151c7.202,0,13.061,5.859,13.061,13.061v18.069
			c0,15.844,12.89,28.735,28.735,28.735v14.928h22.272L17.534,321.45l8.854,2.778c15.595,4.893,26.804,17.499,29.719,32.604H47.02
			v44.931H512v-44.931H511.852z M413.257,163.004c0-1.441,1.172-2.612,2.612-2.612h16.718c1.44,0,2.612,1.171,2.612,2.612v30.69
			c-7.004-6.33-14.328-12.215-21.943-17.633V163.004z M72.62,185.031v-14.19h21.855l-7.25,14.19H72.62z M39.619,312.67
			l81.096-158.743c2.243-4.392,6.701-7.12,11.632-7.12h138.828c121.436,0,220.709,93.512,224.99,210.024H71.994
			C69.364,337.762,57.25,321.267,39.619,312.67z M496.327,386.09H62.694v-13.584h433.633V386.09z"/>
	</g>
</g>
<g>
	<g>
		<path d="M425.584,291.738c-12.387,0-22.465,10.078-22.465,22.465c0,12.387,10.078,22.465,22.465,22.465
			s22.465-10.078,22.465-22.465C448.049,301.816,437.971,291.738,425.584,291.738z M425.584,320.995
			c-3.745,0-6.792-3.047-6.792-6.792s3.047-6.792,6.792-6.792s6.792,3.047,6.792,6.792S429.329,320.995,425.584,320.995z"/>
	</g>
</g>
<g>
	<g>
		<path d="M339.115,207.872c-17.165-20.452-51.601-35.203-89.871-38.497c-59.959-5.167-109.353,18.003-112.447,52.759
			c-2.243,25.345,20.442,49.296,59.202,62.505c13.175,4.497,27.395,7.426,42.262,8.707c5.503,0.477,10.968,0.713,16.365,0.713
			c16.095,0,31.555-2.103,45.406-6.221c30.341-9.034,48.812-26.25,50.678-47.234v-0.002
			C351.703,229.411,347.694,218.093,339.115,207.872z M240.327,277.785c-0.239-0.02-0.478-0.033-0.717-0.054
			c-11.62-1.001-22.771-3.101-33.242-6.237v-9.224c0-1.441,1.172-2.612,2.612-2.612h31.347V277.785z M289.959,274.325
			c-10.545,2.591-22.024,3.954-33.959,4.048v-18.716h31.347c1.44,0,2.612,1.171,2.612,2.612V274.325z M335.098,239.218
			c-1.061,11.909-11.863,22.753-29.465,30.042v-6.99c0-10.082-8.203-18.286-18.286-18.286H208.98
			c-10.082,0-18.286,8.203-18.286,18.286v3.508c-24.578-10.789-39.631-27.049-38.285-42.258
			c2.015-22.62,37.577-39.167,80.732-39.167c4.836,0,9.768,0.208,14.758,0.638c34.274,2.95,64.626,15.578,79.211,32.957
			C333.036,225.008,335.724,232.165,335.098,239.218z"/>
	</g>
</g>
</symbol>


<symbol viewBox="0 1 511.99981 511" id="returnable" xmlns="http://www.w3.org/2000/svg"><path d="m506.8125 111.230469-199.40625-109.496094c-2.996094-1.6445312-6.628906-1.6445312-9.625 0l-75.160156 41.269531c-1.585938.417969-3.066406 1.214844-4.292969 2.359375l-119.949219 65.867188c-3.199218 1.753906-5.1875 5.113281-5.1875 8.765625v132.429687c-20.234375 6.328125-38.777344 17.488281-54.195312 32.910157-40.1875 40.183593-50.433594 101.472656-25.496094 152.507812 2.421875 4.960938 8.410156 7.019531 13.371094 4.59375 4.964844-2.425781 7.019531-8.414062 4.597656-13.375-21.1875-43.363281-12.480469-95.4375 21.667969-129.585938 21.355469-21.355468 49.746093-33.117187 79.945312-33.117187s58.589844 11.761719 79.945313 33.117187c21.351562 21.351563 33.113281 49.742188 33.113281 79.941407s-11.761719 58.589843-33.117187 79.945312c-34.148438 34.148438-86.222657 42.855469-129.585938 21.667969-4.960938-2.425781-10.949219-.367188-13.371094 4.59375-2.425781 4.964844-.371094 10.953125 4.59375 13.375 18.589844 9.085938 38.535156 13.5 58.335938 13.5 34.542968-.003906 68.625-13.449219 94.171875-38.996094 11.714843-11.714844 20.972656-25.230468 27.523437-39.921875l43.089844 23.660157c1.5.824218 3.15625 1.234374 4.8125 1.234374s3.316406-.410156 4.8125-1.234374l199.40625-109.492188c3.199219-1.757812 5.1875-5.117188 5.1875-8.765625v-69.496094c0-5.523437-4.476562-10-10-10s-10 4.476563-10 10v63.578125l-179.375 98.496094v-196.171875l59.199219-32.507813v51.53125c0 3.539063 1.867187 6.8125 4.910156 8.609376 1.570313.925781 3.328125 1.390624 5.089844 1.390624 1.65625 0 3.316406-.410156 4.820312-1.238281l42.730469-23.519531c3.195312-1.757812 5.175781-5.113281 5.175781-8.757812v-62.460938l57.449219-31.542969v52.597657c0 5.523437 4.476562 10 10 10s10-4.476563 10-10v-69.496094c0-3.648438-1.988281-7.011719-5.1875-8.765625zm-204.21875-89.324219 178.628906 98.089844-56.347656 30.941406-178.628906-98.089844zm0 196.175781-178.628906-98.085937 58.414062-32.078125 178.632813 98.085937zm79.191406-43.484375-178.628906-98.085937 22.3125-12.253907 178.632812 98.085938zm-154.617187 110.738282c-25.132813-25.132813-58.546875-38.972657-94.085938-38.972657-6.722656 0-13.363281.496094-19.890625 1.46875v-110.9375l179.4375 98.53125v196.171875l-31.144531-17.101562c3.066406-11.289063 4.652344-23.0625 4.652344-35.078125 0-35.539063-13.839844-68.953125-38.96875-94.082031zm187.386719-60.347657-22.730469 12.511719v-45.597656l22.730469-12.480469zm0 0"/><path d="m502 219.441406c-2.628906 0-5.210938 1.070313-7.070312 2.929688-1.859376 1.859375-2.929688 4.4375-2.929688 7.070312 0 2.628906 1.070312 5.207032 2.929688 7.066406 1.859374 1.863282 4.441406 2.929688 7.070312 2.929688s5.210938-1.066406 7.070312-2.929688c1.859376-1.859374 2.929688-4.4375 2.929688-7.066406 0-2.632812-1.070312-5.210937-2.929688-7.070312-1.859374-1.859375-4.441406-2.929688-7.070312-2.929688zm0 0"/><path d="m99.457031 389.417969c2.558594 0 5.121094-.976563 7.070313-2.925781 3.90625-3.90625 3.90625-10.238282 0-14.144532l-6.925782-6.929687h59.101563c14.335937 0 26 11.664062 26 26 0 14.335937-11.664063 26-26 26h-35.019531c-5.523438 0-10 4.476562-10 10 0 5.519531 4.476562 9.996093 10 9.996093h35.019531c25.363281 0 46-20.632812 46-45.996093s-20.636719-45.996094-46-45.996094h-59.101563l6.925782-6.929687c3.90625-3.90625 3.90625-10.238282 0-14.144532-3.902344-3.902344-10.234375-3.902344-14.140625 0l-24 24c-3.902344 3.90625-3.902344 10.238282 0 14.144532l24 23.996093c1.953125 1.953125 4.511719 2.929688 7.070312 2.929688zm0 0"/><path d="m46.074219 476.449219c-2.84375 0-5.667969-1.210938-7.640625-3.558594l-.019532-.023437c-3.554687-4.226563-3.007812-10.53125 1.21875-14.085938 4.226563-3.558594 10.535157-3.011719 14.089844 1.214844 3.550782 4.230468 3.015625 10.546875-1.210937 14.101562-1.878907 1.578125-4.164063 2.351563-6.4375 2.351563zm0 0"/></symbol>

<symbol version="1.1" id="warranty" xmlns="http://www.w3.org/2000/svg" xmlns:xlink="http://www.w3.org/1999/xlink" x="0px" y="0px"
	 viewBox="0 0 368.029 368.029" style="enable-background:new 0 0 368.029 368.029;" xml:space="preserve">
<g>
	<g>
		<path d="M363.568,204.926c-2.056-7.448-3.992-14.488-3.992-20.912c0-6.424,1.936-13.464,3.992-20.912
			c3.272-11.856,6.648-24.12,2.608-36.04c-4.192-12.4-14.64-20.504-24.744-28.328c-6.056-4.696-11.776-9.128-15.488-14.008
			c-3.776-4.976-6.448-11.616-9.264-18.648c-4.648-11.552-9.448-23.504-20.2-31.008c-10.576-7.392-23.776-8.104-36.52-8.784
			c-7.952-0.424-15.472-0.832-21.768-2.792c-5.888-1.832-11.984-5.632-18.432-9.656c-10.376-6.48-22.144-13.824-35.752-13.824
			c-13.608,0-25.376,7.344-35.752,13.832c-6.448,4.024-12.528,7.832-18.424,9.656c-6.304,1.96-13.824,2.368-21.776,2.792
			c-12.752,0.688-25.936,1.392-36.52,8.784c-10.752,7.504-15.552,19.448-20.2,31c-2.832,7.032-5.504,13.68-9.28,18.656
			c-3.712,4.896-9.432,9.328-15.488,14.032c-10.096,7.832-20.528,15.92-24.72,28.304c-4.04,11.928-0.664,24.184,2.6,36.048
			c2.056,7.448,3.992,14.48,3.992,20.904s-1.936,13.464-3.992,20.912c-3.264,11.856-6.64,24.12-2.6,36.056
			c4.192,12.384,14.632,20.488,24.728,28.312c6.056,4.688,11.776,9.128,15.48,14.008c3.784,4.976,6.456,11.616,9.28,18.656
			c4.648,11.552,9.456,23.504,20.216,31.024c10.568,7.376,23.76,8.08,36.504,8.76c7.952,0.424,15.472,0.832,21.768,2.792
			c5.888,1.832,11.976,5.632,18.416,9.648c10.384,6.472,22.152,13.824,35.768,13.824c13.616,0,25.392-7.352,35.784-13.832
			c6.44-4.016,12.52-7.816,18.416-9.648c6.296-1.96,13.816-2.368,21.768-2.792c12.752-0.68,25.936-1.384,36.504-8.76
			c10.776-7.52,15.576-19.488,20.224-31.048c2.824-7.024,5.488-13.664,9.248-18.624c3.712-4.88,9.432-9.32,15.488-14.008
			c10.104-7.832,20.544-15.928,24.744-28.32C370.224,229.046,366.84,216.79,363.568,204.926z M351.023,235.854
			c-2.648,7.824-10.784,14.128-19.392,20.8c-6.6,5.12-13.432,10.416-18.424,16.976c-5.064,6.688-8.264,14.64-11.36,22.344
			c-3.944,9.824-7.672,19.096-14.528,23.88c-6.832,4.768-17.208,5.32-28.2,5.904c-8.584,0.456-17.472,0.928-25.68,3.488
			c-7.848,2.456-15.112,6.976-22.128,11.36c-9.4,5.872-18.272,11.408-27.304,11.408c-9.032,0-17.896-5.536-27.296-11.408
			c-7.008-4.376-14.264-8.904-22.12-11.36c-8.208-2.552-17.096-3.032-25.68-3.488c-10.992-0.584-21.376-1.144-28.2-5.904
			c-6.848-4.784-10.584-14.056-14.528-23.872c-3.096-7.704-6.304-15.664-11.376-22.352c-4.984-6.56-11.816-11.856-18.424-16.984
			c-8.6-6.672-16.728-12.968-19.376-20.792c-2.472-7.288,0.128-16.712,2.872-26.68c2.24-8.152,4.56-16.568,4.56-25.168
			c0-8.6-2.32-17.008-4.56-25.16c-2.752-9.968-5.344-19.384-2.872-26.672c2.648-7.824,10.768-14.12,19.368-20.792
			c6.608-5.128,13.448-10.432,18.424-17c5.088-6.688,8.288-14.656,11.392-22.36c3.936-9.816,7.664-19.08,14.504-23.848
			c6.832-4.776,17.224-5.328,28.224-5.912c8.576-0.464,17.464-0.936,25.664-3.496c7.864-2.448,15.128-6.984,22.152-11.368
			c9.384-5.848,18.248-11.384,27.272-11.384s17.896,5.536,27.288,11.4c7.024,4.392,14.28,8.92,22.144,11.368
			c8.2,2.552,17.08,3.024,25.664,3.488c11,0.584,21.384,1.152,28.216,5.92c6.848,4.784,10.576,14.048,14.512,23.848
			c3.104,7.712,6.296,15.672,11.384,22.36c4.984,6.56,11.816,11.856,18.416,16.976c8.608,6.68,16.744,12.984,19.392,20.824
			c2.472,7.272-0.136,16.688-2.88,26.656c-2.248,8.152-4.568,16.568-4.568,25.168s2.312,17.016,4.568,25.16
			C350.896,219.15,353.495,228.566,351.023,235.854z"/>
	</g>
</g>
<g>
	<g>
		<path d="M184.008,64.014c-66.168,0-120,53.832-120,120s53.832,120,120,120s120-53.832,120-120S250.176,64.014,184.008,64.014z
			 M184.008,288.014c-57.344,0-104-46.656-104-104s46.656-104,104-104c29.576,0,56.24,12.472,75.2,32.36l-76.24,107.288
			l-41.304-41.304c-3.128-3.128-8.184-3.128-11.312,0s-3.128,8.184,0,11.312l48,48c1.504,1.512,3.544,2.344,5.656,2.344
			c0.216,0,0.448-0.008,0.672-0.032c2.344-0.192,4.488-1.416,5.848-3.336l79.176-111.424c11.52,16.736,18.304,36.976,18.304,58.792
			C288.008,241.358,241.352,288.014,184.008,288.014z"/>
	</g>
</g>
</symbol>

</svg>