<svg version="1.2" baseProfile="tiny-ps" xmlns="http://www.w3.org/2000/svg" viewBox="0 0 133 132" width="133" height="132">
	<title>Layer 1</title>
	<defs>
		<linearGradient id="grd1" gradientUnits="userSpaceOnUse"  x1="8.672" y1="38.358" x2="66.358" y2="132.068">
			<stop offset="0" stop-color="#ffffff"  />
			<stop offset="1" stop-color="#5b5b5b"  />
		</linearGradient>
	</defs>
	<style>
		tspan { white-space:pre }
		.shp0 { fill: url(#grd1) } 
	</style>
	<g id="Layer 1">
		<g id="&lt;Group&gt;">
			<g id="&lt;Group&gt;">
				<g id="&lt;Group&gt;">
					<g id="&lt;Group&gt;">
						<path id="&lt;Mesh&gt;" class="shp0" d="M66.36 66L66.36 66C69.08 64.74 73.84 62.9 76.56 61.64C77.62 63.21 78.3 64.76 78.3 66C74.32 66 70.34 66 66.36 66ZM78.3 66C78.3 64.76 77.62 63.21 76.56 61.64C79.16 60.44 82.95 58.55 86.29 56.58C88.27 59.72 89.7 63.15 89.7 66C85.9 66 82.1 66 78.3 66ZM89.7 66C89.7 63.15 88.27 59.72 86.29 56.58C90.19 54.27 95.48 51.5 99.32 49.25C101.73 54.44 102.99 60.28 102.99 66C98.56 66 94.13 66 89.7 66ZM102.99 66C102.99 60.28 101.73 54.44 99.32 49.25C102.24 47.55 105.72 45.9 108.02 44.83C111.25 51.19 113.08 58.38 113.08 66C109.71 66 106.35 66 102.99 66ZM113.08 66C113.08 58.38 111.25 51.19 108.02 44.83C110.23 43.81 114 42.13 116.84 40.45C120.71 47.96 122.76 56.39 122.76 66C119.53 66 116.3 66 113.08 66ZM122.76 66C122.76 56.39 120.71 47.96 116.84 40.45C118.03 39.75 119.46 39.04 120.6 38.39C124.67 46.6 126.8 55.87 126.8 66C125.45 66 124.1 66 122.76 66ZM126.8 66C126.8 55.87 124.67 46.6 120.6 38.39C121.06 38.13 121.6 37.87 122.04 37.63C126.21 46.1 128.41 55.67 128.41 66C127.88 66 127.34 66 126.8 66ZM128.41 66C128.41 55.67 126.21 46.1 122.04 37.63C122.48 37.39 123 37.15 123.41 36.94C127.72 45.64 130.03 55.48 130.03 66C129.49 66 128.95 66 128.41 66ZM130.03 66C130.03 55.48 127.72 45.64 123.41 36.94C124.03 36.61 124.73 36.32 125.28 36.07C129.85 45.05 132.43 55.22 132.43 66C131.63 66 130.83 66 130.03 66ZM66.36 66L66.36 66C68.4 64.06 71.99 60.52 74.03 58.59C74.99 59.56 75.86 60.61 76.56 61.64C73.84 62.9 69.08 64.74 66.36 66ZM76.56 61.64C75.86 60.61 74.99 59.56 74.03 58.59C75.98 56.74 78.79 54.01 81.89 50.97C83.43 52.54 84.98 54.49 86.29 56.58C82.95 58.55 79.16 60.44 76.56 61.64ZM86.29 56.58C84.98 54.49 83.43 52.54 81.89 50.97C85.5 47.42 89.52 43.46 93.04 40.01C95.62 42.66 97.72 45.81 99.32 49.25C95.48 51.5 90.19 54.27 86.29 56.58ZM99.32 49.25C97.72 45.81 95.62 42.66 93.04 40.01C95.72 37.39 98.12 35.06 99.85 33.42C103.11 36.78 105.87 40.62 108.02 44.83C105.72 45.9 102.24 47.55 99.32 49.25ZM108.02 44.83C105.87 40.62 103.11 36.78 99.85 33.42C101.5 31.85 104.15 29.26 106.79 26.67C110.9 30.9 114.27 35.47 116.84 40.45C114 42.13 110.23 43.81 108.02 44.83ZM116.84 40.45C114.27 35.47 110.9 30.9 106.79 26.67C107.89 25.59 108.99 24.51 110.02 23.5C114.36 27.96 117.9 32.95 120.6 38.39C119.46 39.04 118.03 39.75 116.84 40.45ZM120.6 38.39C117.9 32.95 114.36 27.96 110.02 23.5C110.43 23.1 110.83 22.71 111.22 22.34C115.64 26.88 119.27 32.01 122.04 37.63C121.6 37.87 121.06 38.13 120.6 38.39ZM122.04 37.63C119.27 32.01 115.64 26.88 111.22 22.34C111.6 21.96 111.97 21.6 112.32 21.27C116.83 25.9 120.56 31.17 123.41 36.94C123 37.15 122.48 37.39 122.04 37.63ZM123.41 36.94C120.56 31.17 116.83 25.9 112.32 21.27C112.84 20.77 113.31 20.32 113.72 19.93C118.33 24.67 122.24 30.11 125.28 36.07C124.73 36.32 124.03 36.61 123.41 36.94ZM66.36 66L66.36 66C67.72 63.38 69.61 58.59 70.97 55.97C72.02 56.71 73.07 57.61 74.03 58.59C71.99 60.52 68.4 64.06 66.36 66ZM74.03 58.59C73.07 57.61 72.02 56.71 70.97 55.97C72.27 53.47 74.24 49.7 76.3 46.4C78.39 47.77 80.34 49.38 81.89 50.97C78.79 54.01 75.98 56.74 74.03 58.59ZM81.89 50.97C80.34 49.38 78.39 47.77 76.3 46.4C78.7 42.56 81.56 37.23 83.91 33.45C87.32 35.14 90.44 37.34 93.04 40.01C89.52 43.46 85.5 47.42 81.89 50.97ZM93.04 40.01C90.44 37.34 87.32 35.14 83.91 33.45C85.69 30.58 87.41 27.09 88.56 24.88C92.75 27.15 96.55 30.04 99.85 33.42C98.12 35.06 95.72 37.39 93.04 40.01ZM99.85 33.42C96.55 30.04 92.75 27.15 88.56 24.88C89.66 22.75 91.4 19.33 93.15 16.16C98.31 18.89 102.63 22.4 106.79 26.67C104.15 29.26 101.5 31.85 99.85 33.42ZM106.79 26.67C102.63 22.4 98.31 18.89 93.15 16.16C93.88 14.83 94.61 13.56 95.3 12.44C100.71 15.29 105.64 19 110.02 23.5C108.99 24.51 107.89 25.59 106.79 26.67ZM110.02 23.5C105.64 19 100.71 15.29 95.3 12.44C95.57 11.99 95.84 11.5 96.09 11.02C101.67 13.96 106.75 17.74 111.22 22.34C110.83 22.71 110.43 23.1 110.02 23.5ZM111.22 22.34C106.75 17.74 101.67 13.96 96.09 11.02C96.35 10.54 96.59 10.07 96.83 9.66C102.56 12.69 107.77 16.59 112.32 21.27C111.97 21.6 111.6 21.96 111.22 22.34ZM112.32 21.27C107.77 16.59 102.56 12.69 96.83 9.66C97.17 9.07 97.48 8.37 97.75 7.85C103.68 11.05 109.06 15.14 113.72 19.93C113.31 20.32 112.84 20.77 112.32 21.27ZM66.36 66L66.36 66C66.36 62.02 66.36 58.04 66.36 54.06C67.66 54.06 69.31 54.81 70.97 55.97C69.61 58.59 67.72 63.38 66.36 66ZM70.97 55.97C69.31 54.81 67.66 54.06 66.36 54.06C66.36 50.26 66.36 46.46 66.36 42.66C69.36 42.66 73.01 44.24 76.3 46.4C74.24 49.7 72.27 53.47 70.97 55.97ZM76.3 46.4C73.01 44.24 69.36 42.66 66.36 42.66C66.36 38.23 66.36 33.8 66.36 29.37C72.39 29.37 78.52 30.78 83.91 33.45C81.56 37.23 78.7 42.56 76.3 46.4ZM83.91 33.45C78.52 30.78 72.39 29.37 66.36 29.37C66.36 26.01 66.36 22.64 66.36 19.28C74.39 19.28 81.95 21.31 88.56 24.88C87.41 27.09 85.69 30.58 83.91 33.45ZM88.56 24.88C81.95 21.31 74.39 19.28 66.36 19.28C66.36 16.05 66.36 12.82 66.36 9.6C76.49 9.6 85.03 11.85 93.15 16.16C91.4 19.33 89.66 22.75 88.56 24.88ZM93.15 16.16C85.03 11.85 76.49 9.6 66.36 9.6C66.36 8.25 66.36 6.91 66.36 5.56C77.04 5.56 86.77 7.94 95.3 12.44C94.61 13.56 93.88 14.83 93.15 16.16ZM95.3 12.44C86.77 7.94 77.04 5.56 66.36 5.56C66.36 5.02 66.36 4.48 66.36 3.94C77.25 3.94 87.31 6.39 96.09 11.02C95.84 11.5 95.57 11.99 95.3 12.44ZM96.09 11.02C87.31 6.39 77.25 3.94 66.36 3.94C66.36 3.4 66.36 2.86 66.36 2.32C77.46 2.32 87.79 4.9 96.83 9.66C96.59 10.07 96.35 10.54 96.09 11.02ZM96.83 9.66C87.79 4.9 77.46 2.32 66.36 2.32C66.36 1.52 66.36 0.73 66.36 -0.07C77.72 -0.07 88.41 2.8 97.75 7.85C97.48 8.37 97.17 9.07 96.83 9.66ZM66.36 66L66.36 66C65.87 62.5 64.61 58.1 64.12 54.61C64.93 54.26 65.69 54.06 66.36 54.06C66.36 58.04 66.36 62.02 66.36 66ZM66.36 54.06C65.69 54.06 64.93 54.26 64.12 54.61C63.66 51.27 62.45 47.44 61.36 43.78C63.09 43.1 64.82 42.66 66.36 42.66C66.36 46.46 66.36 50.26 66.36 54.06ZM66.36 42.66C64.82 42.66 63.09 43.1 61.36 43.78C60.09 39.51 58.1 34.67 56.88 30.43C60.02 29.72 63.27 29.37 66.36 29.37C66.36 33.8 66.36 38.23 66.36 42.66ZM66.36 29.37C63.27 29.37 60.02 29.72 56.88 30.43C55.96 27.21 54.85 23.77 54.44 20.81C58.24 19.81 62.24 19.28 66.36 19.28C66.36 22.64 66.36 26.01 66.36 29.37ZM66.36 19.28C62.24 19.28 58.24 19.81 54.44 20.81C54.04 17.98 52.94 14.63 51.91 11.37C56.62 10.19 61.16 9.6 66.36 9.6C66.36 12.82 66.36 16.05 66.36 19.28ZM66.36 9.6C61.16 9.6 56.62 10.19 51.91 11.37C51.48 10.01 51.06 8.67 50.71 7.4C55.67 6.17 60.88 5.56 66.36 5.56C66.36 6.91 66.36 8.25 66.36 9.6ZM66.36 5.56C60.88 5.56 55.67 6.17 50.71 7.4C50.57 6.88 50.43 6.36 50.29 5.83C55.39 4.57 60.77 3.94 66.36 3.94C66.36 4.48 66.36 5.02 66.36 5.56ZM66.36 3.94C60.77 3.94 55.39 4.57 50.29 5.83C50.15 5.31 50.02 4.79 49.91 4.3C55.16 2.99 60.67 2.32 66.36 2.32C66.36 2.86 66.36 3.4 66.36 3.94ZM66.36 2.32C60.67 2.32 55.16 2.99 49.91 4.3C49.76 3.57 49.59 2.8 49.5 2.1C54.88 0.68 60.53 -0.07 66.36 -0.07C66.36 0.73 66.36 1.52 66.36 2.32ZM66.36 66L66.36 66L66.36 66C65.28 63.1 62.25 59.29 61.17 56.39C61.2 56.37 61.22 56.35 61.25 56.33C62.22 55.6 63.2 55.01 64.12 54.61C64.61 58.1 65.87 62.5 66.36 66ZM64.12 54.61C63.2 55.01 62.22 55.6 61.25 56.33C61.22 56.35 61.2 56.37 61.17 56.39C60.13 53.63 58.01 50.36 55.59 46.87C55.64 46.83 55.69 46.8 55.73 46.77C57.41 45.65 59.38 44.56 61.36 43.78C62.45 47.44 63.66 51.27 64.12 54.61ZM61.36 43.78C59.38 44.56 57.41 45.65 55.73 46.77C55.69 46.8 55.64 46.83 55.59 46.87C52.77 42.8 49.36 38.54 46.65 34.53C46.73 34.47 46.82 34.42 46.9 34.37C49.83 32.55 53.29 31.25 56.88 30.43C58.1 34.67 60.09 39.51 61.36 43.78ZM56.88 30.43C53.29 31.25 49.83 32.55 46.9 34.37C46.82 34.42 46.73 34.47 46.65 34.53C44.59 31.48 42.8 28.65 41.88 26.2C41.99 26.13 42.09 26.07 42.2 26C45.96 23.72 50.07 21.96 54.44 20.81C54.85 23.77 55.96 27.21 56.88 30.43ZM54.44 20.81C50.07 21.96 45.96 23.72 42.2 26C42.09 26.07 41.99 26.13 41.88 26.2C41 23.85 38.89 20.91 36.79 17.96C36.93 17.88 37.06 17.79 37.19 17.71C41.94 14.84 46.51 12.72 51.91 11.37C52.94 14.63 54.04 17.98 54.44 20.81ZM51.91 11.37C46.51 12.72 41.94 14.84 37.19 17.71C37.06 17.79 36.93 17.88 36.79 17.96C35.92 16.73 35.05 15.49 34.27 14.3C34.41 14.22 34.56 14.13 34.7 14.04C39.7 11.01 45.04 8.8 50.71 7.4C51.06 8.67 51.48 10.01 51.91 11.37ZM50.71 7.4C45.04 8.8 39.7 11.01 34.7 14.04C34.56 14.13 34.41 14.22 34.27 14.3C33.96 13.82 33.66 13.35 33.38 12.9C33.52 12.81 33.67 12.72 33.81 12.63C38.91 9.55 44.44 7.29 50.29 5.83C50.43 6.36 50.57 6.88 50.71 7.4ZM50.29 5.83C44.44 7.29 38.91 9.55 33.81 12.63C33.67 12.72 33.52 12.81 33.38 12.9C33.1 12.44 32.84 11.99 32.6 11.55C32.75 11.46 32.9 11.37 33.04 11.28C38.24 8.14 43.91 5.8 49.91 4.3C50.02 4.79 50.15 5.31 50.29 5.83ZM49.91 4.3C43.91 5.8 38.24 8.14 33.04 11.28C32.9 11.37 32.75 11.46 32.6 11.55C32.26 10.9 31.96 10.29 31.74 9.71C31.89 9.62 32.04 9.53 32.19 9.43C37.52 6.21 43.33 3.72 49.5 2.1C49.59 2.8 49.76 3.57 49.91 4.3ZM66.36 66L66.36 66C63.52 64.86 58.83 63.03 55.99 61.89C57.28 59.92 59.2 57.89 61.17 56.39C62.25 59.29 65.28 63.1 66.36 66ZM61.17 56.39C59.2 57.89 57.28 59.92 55.99 61.89C53.28 60.8 49.35 58.47 46.09 57.1C48.57 53.04 52.18 49.19 55.59 46.87C58.01 50.36 60.13 53.63 61.17 56.39ZM55.59 46.87C52.18 49.19 48.57 53.04 46.09 57.1C42.3 55.5 36.88 51.94 33.13 50.36C36.04 43.88 40.72 38.27 46.65 34.53C49.36 38.54 52.77 42.8 55.59 46.87ZM46.65 34.53C40.72 38.27 36.04 43.88 33.13 50.36C30.28 49.16 26.6 46.8 24.2 45.84C28.09 37.72 34.26 30.89 41.88 26.2C42.8 28.65 44.59 31.48 46.65 34.53ZM41.88 26.2C34.26 30.89 28.09 37.72 24.2 45.84C21.9 44.91 18.02 42.58 15.24 41.42C19.81 31.78 27.2 23.87 36.79 17.96C38.89 20.91 41 23.85 41.88 26.2ZM36.79 17.96C27.2 23.87 19.81 31.78 15.24 41.42C14.08 40.94 12.63 40.14 11.51 39.67C16.35 29.21 24.15 20.53 34.27 14.3C35.05 15.49 35.92 16.73 36.79 17.96ZM34.27 14.3C24.15 20.53 16.35 29.21 11.51 39.67C11.06 39.48 10.51 39.18 10.07 39C15.05 28.23 23.06 19.25 33.38 12.9C33.66 13.35 33.96 13.82 34.27 14.3ZM33.38 12.9C23.06 19.25 15.05 28.23 10.07 39C9.63 38.82 9.09 38.53 8.67 38.36C13.83 27.29 22.09 18.03 32.6 11.55C32.84 11.99 33.1 12.44 33.38 12.9ZM32.6 11.55C22.09 18.03 13.83 27.29 8.67 38.36C8.05 38.1 7.31 37.72 6.74 37.49C12.24 26 20.97 16.35 31.74 9.71C31.96 10.29 32.26 10.9 32.6 11.55ZM66.36 66L66.36 66C62.38 66 58.4 66 54.42 66C54.42 64.82 55.03 63.37 55.99 61.89C58.83 63.03 63.52 64.86 66.36 66ZM55.99 61.89C55.03 63.37 54.42 64.82 54.42 66C50.62 66 46.82 66 43.02 66C43.02 63.3 44.23 60.15 46.09 57.1C49.35 58.47 53.28 60.8 55.99 61.89ZM46.09 57.1C44.23 60.15 43.02 63.3 43.02 66C38.59 66 34.16 66 29.73 66C29.73 60.58 30.93 55.23 33.13 50.36C36.88 51.94 42.3 55.5 46.09 57.1ZM33.13 50.36C30.93 55.23 29.73 60.58 29.73 66C26.37 66 23 66 19.64 66C19.64 58.78 21.28 51.94 24.2 45.84C26.6 46.8 30.28 49.16 33.13 50.36ZM24.2 45.84C21.28 51.94 19.64 58.78 19.64 66C16.41 66 13.19 66 9.96 66C9.96 56.9 11.8 48.67 15.24 41.42C18.02 42.58 21.9 44.91 24.2 45.84ZM15.24 41.42C11.8 48.67 9.96 56.9 9.96 66C8.61 66 7.27 66 5.92 66C5.92 56.4 7.88 47.53 11.51 39.67C12.63 40.14 14.08 40.94 15.24 41.42ZM11.51 39.67C7.88 47.53 5.92 56.4 5.92 66C5.38 66 4.84 66 4.3 66C4.3 56.21 6.33 47.1 10.07 39C10.51 39.18 11.06 39.48 11.51 39.67ZM10.07 39C6.33 47.1 4.3 56.21 4.3 66C3.76 66 3.22 66 2.68 66C2.68 56.03 4.8 46.68 8.67 38.36C9.09 38.53 9.63 38.82 10.07 39ZM8.67 38.36C4.8 46.68 2.68 56.03 2.68 66C1.88 66 1.09 66 0.29 66C0.29 55.79 2.6 46.12 6.74 37.49C7.31 37.72 8.05 38.1 8.67 38.36ZM66.36 66L66.36 66C63.77 67.39 58.96 69.27 56.37 70.66C55.19 68.99 54.42 67.32 54.42 66C58.4 66 62.38 66 66.36 66ZM54.42 66C54.42 67.32 55.19 68.99 56.37 70.66C53.89 71.99 50.07 74.14 46.84 76.05C44.6 72.69 43.02 69.03 43.02 66C46.82 66 50.62 66 54.42 66ZM43.02 66C43.02 69.03 44.6 72.69 46.84 76.05C43.07 78.27 37.63 81.41 33.92 83.59C31.2 78.2 29.73 72.09 29.73 66C34.16 66 38.59 66 43.02 66ZM29.73 66C29.73 72.09 31.2 78.2 33.92 83.59C31.1 85.24 27.54 87.23 25.35 88.4C21.71 81.75 19.64 74.12 19.64 66C23 66 26.37 66 29.73 66ZM19.64 66C19.64 74.12 21.71 81.75 25.35 88.4C23.25 89.53 19.15 91.93 16.44 93.52C12.22 85.51 9.96 76.23 9.96 66C13.19 66 16.41 66 19.64 66ZM9.96 66C9.96 76.23 12.22 85.51 16.44 93.52C15.31 94.18 14 94.92 13.12 95.39C8.51 86.77 5.92 76.79 5.92 66C7.27 66 8.61 66 9.96 66ZM5.92 66C5.92 76.79 8.51 86.77 13.12 95.39C12.77 95.58 12.18 95.82 11.75 96.07C6.98 87.22 4.3 77 4.3 66C4.84 66 5.38 66 5.92 66ZM4.3 66C4.3 77 6.98 87.22 11.75 96.07C11.31 96.32 10.72 96.55 10.37 96.74C5.46 87.67 2.68 77.21 2.68 66C3.22 66 3.76 66 4.3 66ZM2.68 66C2.68 77.21 5.46 87.67 10.37 96.74C9.85 97.02 8.89 97.4 8.37 97.68C3.22 88.28 0.29 77.48 0.29 66C1.09 66 1.88 66 2.68 66ZM66.36 66L66.36 66C64.76 68.38 61.42 72.11 59.82 74.49C58.53 73.33 57.31 72 56.37 70.66C58.96 69.27 63.77 67.39 66.36 66ZM56.37 70.66C57.31 72 58.53 73.33 59.82 74.49C58.3 76.77 55.81 79.79 52.98 83.06C50.83 81.24 48.63 78.74 46.84 76.05C50.07 74.14 53.89 71.99 56.37 70.66ZM46.84 76.05C48.63 78.74 50.83 81.24 52.98 83.06C49.69 86.88 45.94 91.04 42.75 94.78C39.08 91.76 36.1 87.9 33.92 83.59C37.63 81.41 43.07 78.27 46.84 76.05ZM33.92 83.59C36.1 87.9 39.08 91.76 42.75 94.78C40.32 97.62 38.21 100.22 36.87 102.23C32.19 98.42 28.27 93.73 25.35 88.4C27.54 87.23 31.1 85.24 33.92 83.59ZM25.35 88.4C28.27 93.73 32.19 98.42 36.87 102.23C35.57 104.17 32.51 107.45 30.18 110.18C24.45 105.54 19.82 99.94 16.44 93.52C19.15 91.93 23.25 89.53 25.35 88.4ZM16.44 93.52C19.82 99.94 24.45 105.54 30.18 110.18C29.21 111.32 28.36 112.36 27.82 113.17C21.81 108.31 16.82 102.29 13.12 95.39C14 94.92 15.31 94.18 16.44 93.52ZM13.12 95.39C16.82 102.29 21.81 108.31 27.82 113.17C27.6 113.49 27.25 113.92 26.89 114.35C20.71 109.35 15.56 103.15 11.75 96.07C12.18 95.82 12.77 95.58 13.12 95.39ZM11.75 96.07C15.56 103.15 20.71 109.35 26.89 114.35C26.54 114.78 26.18 115.21 25.96 115.54C19.61 110.38 14.31 104.01 10.37 96.74C10.72 96.55 11.31 96.32 11.75 96.07ZM10.37 96.74C14.31 104.01 19.61 110.38 25.96 115.54C25.65 116.01 24.97 116.76 24.65 117.24C18.04 111.86 12.49 105.21 8.37 97.68C8.89 97.4 9.85 97.02 10.37 96.74ZM66.36 66L66.36 66C65.28 68.9 63.52 73.58 62.44 76.49C61.57 75.93 60.68 75.25 59.82 74.49C61.42 72.11 64.76 68.38 66.36 66ZM59.82 74.49C60.68 75.25 61.57 75.93 62.44 76.49C61.42 79.26 59.74 83.04 57.84 86.48C56.07 85.46 54.39 84.26 52.98 83.06C55.81 79.79 58.3 76.77 59.82 74.49ZM52.98 83.06C54.39 84.26 56.07 85.46 57.84 86.48C55.62 90.5 53.1 95.23 50.95 99.61C48.05 98.2 45.16 96.76 42.75 94.78C45.94 91.04 49.69 86.88 52.98 83.06ZM42.75 94.78C45.16 96.76 48.05 98.2 50.95 99.61C49.31 102.94 47.89 106.07 46.99 108.52C43.34 106.86 39.94 104.74 36.87 102.23C38.21 100.22 40.32 97.62 42.75 94.78ZM36.87 102.23C39.94 104.74 43.34 106.86 46.99 108.52C46.12 110.88 44.06 114.54 42.49 117.66C37.97 115.65 33.95 113.23 30.18 110.18C32.51 107.45 35.57 104.17 36.87 102.23ZM30.18 110.18C33.95 113.23 37.97 115.65 42.49 117.66C41.83 118.96 41.26 120.17 40.9 121.16C36.16 119.05 31.77 116.36 27.82 113.17C28.36 112.36 29.21 111.32 30.18 110.18ZM27.82 113.17C31.77 116.36 36.16 119.05 40.9 121.16C40.76 121.55 40.54 122.07 40.33 122.59C35.46 120.42 30.96 117.64 26.89 114.35C27.25 113.92 27.6 113.49 27.82 113.17ZM26.89 114.35C30.96 117.64 35.46 120.42 40.33 122.59C40.11 123.12 39.9 123.64 39.75 124.03C34.77 121.79 30.14 118.93 25.96 115.54C26.18 115.21 26.54 114.78 26.89 114.35ZM25.96 115.54C30.14 118.93 34.77 121.79 39.75 124.03C39.54 124.62 39.18 125.56 38.96 126.14C33.8 123.78 29 120.78 24.65 117.24C24.97 116.76 25.65 116.01 25.96 115.54ZM66.36 66L66.36 66C66.36 69.98 66.36 73.96 66.36 77.94C65.23 77.94 63.86 77.38 62.44 76.49C63.52 73.58 65.28 68.9 66.36 66ZM62.44 76.49C63.86 77.38 65.23 77.94 66.36 77.94C66.36 81.74 66.36 85.54 66.36 89.34C63.78 89.34 60.69 88.14 57.84 86.48C59.74 83.04 61.42 79.26 62.44 76.49ZM57.84 86.48C60.69 88.14 63.78 89.34 66.36 89.34C66.36 93.77 66.36 98.2 66.36 102.62C61.17 102.62 55.63 101.89 50.95 99.61C53.1 95.23 55.62 90.5 57.84 86.48ZM50.95 99.61C55.63 101.89 61.17 102.62 66.36 102.62C66.36 105.99 66.36 109.35 66.36 112.72C59.45 112.72 52.89 111.22 46.99 108.52C47.89 106.07 49.31 102.94 50.95 99.61ZM46.99 108.52C52.89 111.22 59.45 112.72 66.36 112.72C66.36 115.94 66.36 119.17 66.36 122.4C57.65 122.4 49.79 120.92 42.49 117.66C44.06 114.54 46.12 110.88 46.99 108.52ZM42.49 117.66C49.79 120.92 57.65 122.4 66.36 122.4C66.36 123.74 66.36 125.09 66.36 126.44C57.17 126.44 48.57 124.56 40.9 121.16C41.26 120.17 41.83 118.96 42.49 117.66ZM40.9 121.16C48.57 124.56 57.17 126.44 66.36 126.44C66.36 126.98 66.36 127.51 66.36 128.05C56.99 128.05 48.19 126.11 40.33 122.59C40.54 122.07 40.76 121.55 40.9 121.16ZM40.33 122.59C48.19 126.11 56.99 128.05 66.36 128.05C66.36 128.59 66.36 129.13 66.36 129.67C56.81 129.67 47.81 127.66 39.75 124.03C39.9 123.64 40.11 123.12 40.33 122.59ZM39.75 124.03C47.81 127.66 56.81 129.67 66.36 129.67C66.36 130.47 66.36 131.27 66.36 132.07C56.59 132.07 47.31 129.95 38.96 126.14C39.18 125.56 39.54 124.62 39.75 124.03ZM66.36 66L66.36 66C67.39 68.95 69.07 73.65 70.1 76.6C68.75 77.43 67.44 77.94 66.36 77.94C66.36 73.96 66.36 69.98 66.36 66ZM66.36 77.94C67.44 77.94 68.75 77.43 70.1 76.6C71.08 79.41 72.84 83.23 74.54 86.68C71.76 88.25 68.83 89.34 66.36 89.34C66.36 85.54 66.36 81.74 66.36 77.94ZM66.36 89.34C68.83 89.34 71.76 88.25 74.54 86.68C76.52 90.69 78.98 95.44 81.1 99.85C76.56 101.97 71.33 102.62 66.36 102.62C66.36 98.2 66.36 93.77 66.36 89.34ZM66.36 102.62C71.33 102.62 76.56 101.97 81.1 99.85C82.71 103.2 84.13 106.36 85 108.85C79.29 111.34 72.98 112.72 66.36 112.72C66.36 109.35 66.36 105.99 66.36 102.62ZM66.36 112.72C72.98 112.72 79.29 111.34 85 108.85C85.83 111.24 87.82 114.9 89.34 118.04C82.27 121.05 74.71 122.4 66.36 122.4C66.36 119.17 66.36 115.94 66.36 112.72ZM66.36 122.4C74.71 122.4 82.27 121.05 89.34 118.04C89.97 119.35 90.52 120.57 90.86 121.57C83.44 124.71 75.17 126.44 66.36 126.44C66.36 125.09 66.36 123.74 66.36 122.4ZM66.36 126.44C75.17 126.44 83.44 124.71 90.86 121.57C91 121.97 91.21 122.49 91.42 123.02C83.8 126.27 75.34 128.05 66.36 128.05C66.36 127.51 66.36 126.98 66.36 126.44ZM66.36 128.05C75.34 128.05 83.8 126.27 91.42 123.02C91.62 123.55 91.83 124.07 91.97 124.47C84.16 127.82 75.51 129.67 66.36 129.67C66.36 129.13 66.36 128.59 66.36 128.05ZM66.36 129.67C75.51 129.67 84.16 127.82 91.97 124.47C92.17 125.06 92.51 126.01 92.72 126.6C84.64 130.12 75.73 132.07 66.36 132.07C66.36 131.27 66.36 130.47 66.36 129.67ZM66.36 66L66.36 66C68.15 68.19 71.61 71.84 73.39 74.03C72.34 75.03 71.2 75.92 70.1 76.6C69.07 73.65 67.39 68.95 66.36 66ZM70.1 76.6C71.2 75.92 72.34 75.03 73.39 74.03C75.1 76.13 77.73 79.03 80.68 82.2C78.96 83.8 76.8 85.4 74.54 86.68C72.84 83.23 71.08 79.41 70.1 76.6ZM74.54 86.68C76.8 85.4 78.96 83.8 80.68 82.2C84.12 85.91 88 89.99 91.34 93.62C88.42 96.27 84.8 98.12 81.1 99.85C78.98 95.44 76.52 90.69 74.54 86.68ZM81.1 99.85C84.8 98.12 88.42 96.27 91.34 93.62C93.88 96.37 96.12 98.85 97.63 100.71C93.91 104.06 89.65 106.82 85 108.85C84.13 106.36 82.71 103.2 81.1 99.85ZM85 108.85C89.65 106.82 93.91 104.06 97.63 100.71C99.08 102.48 102.22 105.73 104.66 108.38C100.11 112.47 95.1 115.59 89.34 118.04C87.82 114.9 85.83 111.24 85 108.85ZM89.34 118.04C95.1 115.59 100.11 112.47 104.66 108.38C105.68 109.48 106.58 110.48 107.18 111.22C102.41 115.5 96.92 119.01 90.86 121.57C90.52 120.57 89.97 119.35 89.34 118.04ZM90.86 121.57C96.92 119.01 102.41 115.5 107.18 111.22C107.42 111.52 107.8 111.93 108.18 112.34C103.27 116.76 97.62 120.37 91.42 123.02C91.21 122.49 91 121.97 90.86 121.57ZM91.42 123.02C97.62 120.37 103.27 116.76 108.18 112.34C108.55 112.76 108.93 113.17 109.17 113.47C104.12 118.01 98.33 121.74 91.97 124.47C91.83 124.07 91.62 123.55 91.42 123.02ZM91.97 124.47C98.33 121.74 104.12 118.01 109.17 113.47C109.53 113.91 110.23 114.64 110.58 115.08C105.33 119.82 99.3 123.73 92.72 126.6C92.51 126.01 92.17 125.06 91.97 124.47ZM66.36 66L66.36 66C69.09 67.25 73.87 69.05 76.6 70.3C75.73 71.58 74.61 72.88 73.39 74.03C71.61 71.84 68.15 68.19 66.36 66ZM73.39 74.03C74.61 72.88 75.73 71.58 76.6 70.3C79.2 71.5 83.03 73.51 86.35 75.33C84.72 77.93 82.68 80.37 80.68 82.2C77.73 79.03 75.1 76.13 73.39 74.03ZM80.68 82.2C82.68 80.37 84.72 77.93 86.35 75.33C90.21 77.44 95.57 80.42 99.38 82.49C97.43 86.72 94.72 90.56 91.34 93.62C88 89.99 84.12 85.91 80.68 82.2ZM91.34 93.62C94.72 90.56 97.43 86.72 99.38 82.49C102.27 84.06 105.81 85.91 108.12 86.96C105.5 92.18 101.92 96.84 97.63 100.71C96.12 98.85 93.88 96.37 91.34 93.62ZM97.63 100.71C101.92 96.84 105.5 92.18 108.12 86.96C110.33 87.98 114.37 90.28 117.15 91.78C114.12 98.08 109.91 103.66 104.66 108.38C102.22 105.73 99.08 102.48 97.63 100.71ZM104.66 108.38C109.91 103.66 114.12 98.08 117.15 91.78C118.31 92.41 119.63 93.1 120.55 93.52C117.23 100.29 112.69 106.27 107.18 111.22C106.58 110.48 105.68 109.48 104.66 108.38ZM107.18 111.22C112.69 106.27 117.23 100.29 120.55 93.52C120.92 93.69 121.51 93.92 121.96 94.15C118.53 101.09 113.84 107.25 108.18 112.34C107.8 111.93 107.42 111.52 107.18 111.22ZM108.18 112.34C113.84 107.25 118.53 101.09 121.96 94.15C122.4 94.39 122.99 94.61 123.36 94.78C119.83 101.9 115 108.22 109.17 113.47C108.93 113.17 108.55 112.76 108.18 112.34ZM109.17 113.47C115 108.22 119.83 101.9 123.36 94.78C123.91 95.03 124.87 95.4 125.42 95.65C121.71 103.02 116.66 109.61 110.58 115.08C110.23 114.64 109.53 113.91 109.17 113.47ZM66.36 66L66.36 66C70.34 66 74.32 66 78.3 66C78.3 67.22 77.64 68.75 76.6 70.3C73.87 69.05 69.09 67.25 66.36 66ZM76.6 70.3C77.64 68.75 78.3 67.22 78.3 66C82.1 66 85.9 66 89.7 66C89.7 68.81 88.32 72.19 86.35 75.33C83.03 73.51 79.2 71.5 76.6 70.3ZM86.35 75.33C88.32 72.19 89.7 68.81 89.7 66C94.13 66 98.56 66 102.99 66C102.99 71.66 101.73 77.37 99.38 82.49C95.57 80.42 90.21 77.44 86.35 75.33ZM99.38 82.49C101.73 77.37 102.99 71.66 102.99 66C106.35 66 109.71 66 113.08 66C113.08 73.54 111.29 80.66 108.12 86.96C105.81 85.91 102.27 84.06 99.38 82.49ZM108.12 86.96C111.29 80.66 113.08 73.54 113.08 66C116.3 66 119.53 66 122.76 66C122.76 75.5 120.81 84.17 117.15 91.78C114.37 90.28 110.33 87.98 108.12 86.96ZM117.15 91.78C120.81 84.17 122.76 75.5 122.76 66C124.1 66 125.45 66 126.8 66C126.8 76.02 124.56 85.34 120.55 93.52C119.63 93.1 118.31 92.41 117.15 91.78ZM120.55 93.52C124.56 85.34 126.8 76.02 126.8 66C127.34 66 127.88 66 128.41 66C128.41 76.21 126.1 85.76 121.96 94.15C121.51 93.92 120.92 93.69 120.55 93.52ZM121.96 94.15C126.1 85.76 128.41 76.21 128.41 66C128.95 66 129.49 66 130.03 66C130.03 76.41 127.64 86.17 123.36 94.78C122.99 94.61 122.4 94.39 121.96 94.15ZM123.36 94.78C127.64 86.17 130.03 76.41 130.03 66C130.83 66 131.63 66 132.43 66C132.43 76.66 129.9 86.73 125.42 95.65C124.87 95.4 123.91 95.03 123.36 94.78Z" />
					</g>
				</g>
			</g>
		</g>
	</g>
</svg>