<svg id="Capa_1" enable-background="new 0 0 512 512" height="512" viewBox="0 0 512 512" width="512" xmlns="http://www.w3.org/2000/svg"><path d="m169.37 374.321c-12.184-2.641-24.838-3.982-37.611-3.982-51.128 0-87.827 20.93-109.61 38.488-1.944 1.566-3.889.904-4.636.548-.744-.356-2.476-1.453-2.476-3.942v-222.631c0-4.153-3.366-7.519-7.519-7.519s-7.518 3.366-7.518 7.519v222.632c0 7.546 4.225 14.255 11.025 17.507 2.697 1.29 5.563 1.925 8.407 1.924 4.33 0 8.607-1.47 12.156-4.33 19.899-16.039 53.43-35.157 100.173-35.157 11.703 0 23.285 1.225 34.424 3.641 4.057.873 8.061-1.698 8.942-5.755.878-4.058-1.698-8.062-5.757-8.943z"/><path d="m503.625 102.712c-15.011-15.315-57.085-50.937-123.385-50.937-43.841 0-76.809 15.804-96.746 29.061-12.839 8.537-22.032 17.08-27.494 22.756-5.462-5.676-14.655-14.218-27.494-22.756-19.938-13.257-52.906-29.061-96.747-29.061-66.3 0-108.373 35.622-123.384 50.938-5.4 5.51-8.375 12.811-8.375 20.556v25.844c0 4.153 3.366 7.519 7.519 7.519s7.519-3.366 7.519-7.519v-25.844c0-3.785 1.448-7.348 4.078-10.03 13.681-13.959 52.045-46.426 112.644-46.426 31.969 0 61.55 8.82 87.922 26.215 15.433 10.18 25.194 20.489 28.8 24.607v272.034c0 4.627-2.428 8.683-6.494 10.851-4.123 2.2-8.916 1.943-12.821-.677-8.431-5.661-17.385-10.604-26.614-14.694-3.798-1.681-8.239.03-9.921 3.829-1.682 3.797.032 8.238 3.828 9.921 8.433 3.736 16.616 8.254 24.323 13.43 4.644 3.118 9.997 4.695 15.367 4.695 4.423 0 8.857-1.07 12.91-3.231 2.642-1.408 4.963-3.182 6.94-5.232 1.977 2.049 4.298 3.823 6.94 5.232 8.973 4.784 19.808 4.221 28.276-1.464 15.461-10.381 39.475-22.444 70.901-25.948v63.177c0 4.478 2.707 8.391 6.896 9.971 1.246.47 2.531.698 3.798.698 2.992 0 5.888-1.272 7.965-3.634l8.36-9.513 8.36 9.513c2.957 3.363 7.573 4.517 11.762 2.936 4.189-1.579 6.896-5.492 6.896-9.971v-60.218c28.419 6.437 49.893 19.618 64.258 31.197 3.549 2.861 7.826 4.33 12.156 4.33 2.843 0 5.71-.633 8.407-1.924 6.799-3.252 11.024-9.961 11.024-17.507v-282.167c.001-7.746-2.973-15.046-8.374-20.557zm-102.508 335.217-4.818-5.482c-1.81-2.06-4.421-3.241-7.163-3.241-2.741 0-5.352 1.181-7.164 3.241l-4.817 5.482v-52.516c1.023-.019 2.049-.035 3.085-.035 7.28 0 14.239.464 20.876 1.308v51.243zm95.845-32.495c0 2.489-1.731 3.585-2.476 3.942-.747.357-2.693 1.016-4.635-.548-21.783-17.558-58.481-38.488-109.611-38.488-44.193 0-77.363 16.044-97.407 29.502-3.903 2.621-8.696 2.874-12.82.678-4.067-2.169-6.495-6.225-6.495-10.852v-272.032c3.614-4.127 13.374-14.432 28.801-24.608 26.371-17.395 55.952-26.215 87.921-26.215 60.598 0 98.963 32.467 112.645 46.426 2.629 2.682 4.077 6.244 4.077 10.03z"/><path d="m57.404 290.126c-4.153 0-7.519 3.366-7.519 7.519s3.366 7.519 7.519 7.519h32.306c4.153 0 7.519-3.366 7.519-7.519s-3.366-7.519-7.519-7.519h-6.128l21.378-63.366h44.038l22.289 63.366h-7.902c-4.153 0-7.519 3.366-7.519 7.519s3.366 7.519 7.519 7.519h32.307c4.153 0 7.519-3.366 7.519-7.519s-3.366-7.519-7.519-7.519h-8.464l-53.391-151.783c-1.059-3.011-3.902-5.024-7.093-5.024h-23.244c-4.153 0-7.519 3.366-7.519 7.519s3.366 7.519 7.519 7.519h12.04l-47.828 141.769zm69.116-127.269 17.189 48.865h-33.675z"/><path d="m424.976 154.826c1.698-1.051 3.339-2.157 4.904-3.329 17.175-12.862 25.389-31.959 28.757-42.201 1.094-3.327.493-6.986-1.606-9.789-2.1-2.802-5.455-4.433-8.943-4.294-10.773.349-31.411 2.854-48.586 15.715-16.452 12.32-24.669 30.343-28.293 40.839-1.211.601-2.404 1.26-3.585 1.952v-4.684c0-4.153-3.366-7.519-7.519-7.519s-7.519 3.366-7.519 7.519v7.027c-6.069-4.413-12.765-6.758-19.651-6.758-26.092 0-46.532 32.682-46.532 74.405 0 .07.001.139.003.209.043 1.551.043 3.125 0 4.678-.002.069-.003.138-.003.208 0 49.406 38.557 89.601 85.949 89.601 14.994 0 29.395-4.146 41.989-11.524.386-.153.762-.332 1.119-.548 11.244-6.809 20.804-16.191 28.025-27.276.157-.24.315-.479.47-.722.413-.647.816-1.301 1.212-1.959.249-.411.494-.825.736-1.24.326-.561.648-1.125.963-1.695.292-.528.577-1.062.86-1.597.263-.5.527-1 .782-1.506.316-.627.619-1.262.921-1.898.21-.444.426-.885.629-1.332.338-.744.659-1.498.979-2.254.152-.36.312-.715.46-1.078.459-1.126.899-2.263 1.315-3.415 4.569-10.971 6.983-23.315 6.983-35.711.002-30.354-14.157-56.726-34.819-69.824zm-16.46-31.86c11.112-8.321 24.62-11.236 33.538-12.242-3.476 8.275-10.077 20.416-21.187 28.735-4.164 3.118-9.004 5.72-14.385 7.747-3.586-.76-7.266-1.179-11.027-1.179-1.897 0-3.782.11-5.652.307 3.825-7.612 9.824-16.712 18.713-23.368zm30.352 131.762c-2.271 5.458-4.501 10.721-7.713 15.718-5.862 9.096-13.556 16.673-22.413 22.259-2.874.374-5.644.566-8.253.566-27.423 0-54.339-33.989-54.339-68.62 0-7.571 1.027-14.976 3.052-22.013 1.147-3.991-1.156-8.157-5.147-9.306-3.993-1.147-8.157 1.157-9.306 5.147-2.413 8.388-3.637 17.194-3.637 26.172 0 33.808 20.842 66.162 47.084 78.453-1.933.17-3.881.263-5.842.263-39.07 0-70.86-33.395-70.911-74.464.047-1.757.047-3.536 0-5.293.03-32.136 14.44-59.267 31.494-59.267 8.246 0 14.588 6.411 18.455 11.79 1.332 1.853 3.435 3.001 5.715 3.119 2.268.121 4.49-.806 6.007-2.512 1.656-1.862 3.399-3.567 5.211-5.115 7.481-6.395 17.251-10.56 27.13-10.56 27.187 0 49.305 28.524 49.305 63.586-.001 10.486-2.038 20.886-5.892 30.077z"/></svg>