<svg height="512" viewBox="0 0 50 60" width="512" xmlns="http://www.w3.org/2000/svg"><g id="Page-1" fill="none" fill-rule="evenodd"><g id="056---Science-Fiction-Novel" fill="rgb(0,0,0)" fill-rule="nonzero" transform="translate(-1)"><path id="Shape" d="m48 0h-41c-3.31233757.00330738-5.99669262 2.68766243-6 6v44c-.00311203.1956303.0049009.3912794.024.586.38318859 3.1162408 3.04646318 5.4471442 6.186 5.414h3.79v2c-.0050454.722159.384077 1.3896095 1.015 1.741.6256978.3598127 1.3977993.3498452 2.014-.026l2.971-1.784 2.971 1.782c.6175574.3705391 1.3866446.3804356 2.0135321.02591.6268875-.3545257 1.0147548-1.0187184 1.0154679-1.73891v-2h25c1.6568542 0 3-1.3431458 3-3v-50c0-1.65685425-1.3431458-3-3-3zm-27 58-2.972-1.783c-.6331208-.3796258-1.4238792-.3796258-2.057 0l-2.971 1.783v-7h8zm2-7h3c.5522847 0 1-.4477153 1-1s-.4477153-1-1-1h-17c-.55228475 0-1 .4477153-1 1s.44771525 1 1 1h2v3h-3.79c-2.11949134.0402921-3.9294676-1.5214589-4.2-3.624-.01078908-.125024-.01412832-.2505793-.01-.376.00876947-2.2054964 1.79450365-3.9912305 4-4h37c-1.334579 2.4996884-1.334579 5.5003116 0 8h-21zm25 3h-1c-.944 0-2-1.711-2-4s1.056-4 2-4h1c.3507845-.0022166.6951198-.0944985 1-.268v7.268c0 .5522847-.4477153 1-1 1zm0-10h-39v-1c0-.5522847-.44771525-1-1-1s-1 .4477153-1 1v1c-1.47803858-.0007329-2.90362277.5477606-4 1.539v-39.539c0-2.209139 1.790861-4 4-4v1c0 .55228475.44771525 1 1 1s1-.44771525 1-1v-1h39c.5522847 0 1 .44771525 1 1v39c-.0286401.7798547-.3933003 1.5091751-1 2z"/><path id="Shape" d="m8 6c-.55228475 0-1 .44771525-1 1v2c0 .55228475.44771525 1 1 1s1-.44771525 1-1v-2c0-.55228475-.44771525-1-1-1z"/><path id="Shape" d="m8 12c-.55228475 0-1 .4477153-1 1v2c0 .5522847.44771525 1 1 1s1-.4477153 1-1v-2c0-.5522847-.44771525-1-1-1z"/><path id="Shape" d="m8 18c-.55228475 0-1 .4477153-1 1v2c0 .5522847.44771525 1 1 1s1-.4477153 1-1v-2c0-.5522847-.44771525-1-1-1z"/><path id="Shape" d="m8 24c-.55228475 0-1 .4477153-1 1v2c0 .5522847.44771525 1 1 1s1-.4477153 1-1v-2c0-.5522847-.44771525-1-1-1z"/><path id="Shape" d="m8 30c-.55228475 0-1 .4477153-1 1v2c0 .5522847.44771525 1 1 1s1-.4477153 1-1v-2c0-.5522847-.44771525-1-1-1z"/><path id="Shape" d="m8 36c-.55228475 0-1 .4477153-1 1v2c0 .5522847.44771525 1 1 1s1-.4477153 1-1v-2c0-.5522847-.44771525-1-1-1z"/><path id="Shape" d="m46.131 20.591c-1.9841987-.6489076-4.0459998-1.0305981-6.131-1.135v-4.456c0-6.07513225-4.9248678-11-11-11s-11 4.92486775-11 11v4.456c-2.0842892.1041837-4.1454144.4855373-6.129 1.134-.4785844.2129408-.8071877.6650562-.862 1.186-.0572464.5294325.1684203 1.0499097.594 1.37l9.611 7.242c.358608.2652926.7709137.4489188 1.208.538l4.914 7.183c.3697837.5544116.99142.8882182 1.6578345.8902248.6664144.0020067 1.2900497-.3280502 1.6631655-.8802248l4.921-7.193c.4373377-.0892517.8499339-.2728553 1.209-.538l9.61-7.242c.4254171-.3202185.6510418-.8405986.594-1.37-.0545683-.5202019-.3823453-.9718481-.86-1.185zm-26.131-5.591c.0000001-4.9705627 4.0294373-8.99999981 9-8.99999981s8.9999999 4.02943711 9 8.99999981v4.292c-2.644-.186-5.716-.292-9-.292s-6.356.106-9 .292zm8.993 21.99-4.093-5.99h8.2zm6.592-8.2c-.1828089.1364763-.4048666.2101448-.633.21h-11.9c-.2278495.0002886-.4496338-.0734055-.632-.21l-8.842-6.662c2.375-.598 7.945-1.128 15.422-1.128s13.045.53 15.426 1.128z"/><path id="Shape" d="m30 9c0-.55228475-.4477153-1-1-1-2.421 0-7 1.463-7 7 0 .5522847.4477153 1 1 1s1-.4477153 1-1c0-4.821 4.487-5 5-5 .5522847 0 1-.44771525 1-1z"/><path id="Shape" d="m20 32c-.5522847 0-1 .4477153-1 1v4c0 1.6568542-1.3431458 3-3 3h-.5c-.8284271 0-1.5-.6715729-1.5-1.5s.6715729-1.5 1.5-1.5h.5c.5522847 0 1-.4477153 1-1s-.4477153-1-1-1h-.5c-1.9329966 0-3.5 1.5670034-3.5 3.5s1.5670034 3.5 3.5 3.5h.5c2.7600532-.0033061 4.9966939-2.2399468 5-5v-4c0-.5522847-.4477153-1-1-1z"/><path id="Shape" d="m42.5 35h-.5c-.5522847 0-1 .4477153-1 1s.4477153 1 1 1h.5c.8284271 0 1.5.6715729 1.5 1.5s-.6715729 1.5-1.5 1.5h-.5c-1.6568542 0-3-1.3431458-3-3v-4c0-.5522847-.4477153-1-1-1s-1 .4477153-1 1v4c.0033061 2.7600532 2.2399468 4.9966939 5 5h.5c1.9329966 0 3.5-1.5670034 3.5-3.5s-1.5670034-3.5-3.5-3.5z"/></g></g></svg>